G75*
G70*
%OFA0B0*%
%FSLAX24Y24*%
%IPPOS*%
%LPD*%
%AMOC8*
5,1,8,0,0,1.08239X$1,22.5*
%
%ADD10C,0.0000*%
D10*
X009757Y001126D02*
X029835Y001126D01*
X029835Y020811D01*
X009757Y020811D01*
X009757Y001126D01*
X010701Y002425D02*
X010703Y002466D01*
X010709Y002507D01*
X010719Y002547D01*
X010732Y002586D01*
X010749Y002623D01*
X010770Y002659D01*
X010794Y002693D01*
X010821Y002724D01*
X010850Y002752D01*
X010883Y002778D01*
X010917Y002800D01*
X010954Y002819D01*
X010992Y002834D01*
X011032Y002846D01*
X011072Y002854D01*
X011113Y002858D01*
X011155Y002858D01*
X011196Y002854D01*
X011236Y002846D01*
X011276Y002834D01*
X011314Y002819D01*
X011350Y002800D01*
X011385Y002778D01*
X011418Y002752D01*
X011447Y002724D01*
X011474Y002693D01*
X011498Y002659D01*
X011519Y002623D01*
X011536Y002586D01*
X011549Y002547D01*
X011559Y002507D01*
X011565Y002466D01*
X011567Y002425D01*
X011565Y002384D01*
X011559Y002343D01*
X011549Y002303D01*
X011536Y002264D01*
X011519Y002227D01*
X011498Y002191D01*
X011474Y002157D01*
X011447Y002126D01*
X011418Y002098D01*
X011385Y002072D01*
X011351Y002050D01*
X011314Y002031D01*
X011276Y002016D01*
X011236Y002004D01*
X011196Y001996D01*
X011155Y001992D01*
X011113Y001992D01*
X011072Y001996D01*
X011032Y002004D01*
X010992Y002016D01*
X010954Y002031D01*
X010918Y002050D01*
X010883Y002072D01*
X010850Y002098D01*
X010821Y002126D01*
X010794Y002157D01*
X010770Y002191D01*
X010749Y002227D01*
X010732Y002264D01*
X010719Y002303D01*
X010709Y002343D01*
X010703Y002384D01*
X010701Y002425D01*
X014419Y003173D02*
X014421Y003216D01*
X014427Y003259D01*
X014437Y003301D01*
X014450Y003342D01*
X014467Y003382D01*
X014488Y003420D01*
X014512Y003456D01*
X014540Y003489D01*
X014570Y003520D01*
X014603Y003548D01*
X014638Y003573D01*
X014675Y003595D01*
X014715Y003613D01*
X014755Y003627D01*
X014797Y003638D01*
X014840Y003645D01*
X014883Y003648D01*
X014926Y003647D01*
X014969Y003642D01*
X015012Y003633D01*
X015053Y003621D01*
X015093Y003604D01*
X015131Y003584D01*
X015168Y003561D01*
X015202Y003535D01*
X015234Y003505D01*
X015262Y003473D01*
X015288Y003438D01*
X015311Y003401D01*
X015330Y003362D01*
X015345Y003322D01*
X015357Y003280D01*
X015365Y003238D01*
X015369Y003195D01*
X015369Y003151D01*
X015365Y003108D01*
X015357Y003066D01*
X015345Y003024D01*
X015330Y002984D01*
X015311Y002945D01*
X015288Y002908D01*
X015262Y002873D01*
X015234Y002841D01*
X015202Y002811D01*
X015168Y002785D01*
X015132Y002762D01*
X015093Y002742D01*
X015053Y002725D01*
X015012Y002713D01*
X014969Y002704D01*
X014926Y002699D01*
X014883Y002698D01*
X014840Y002701D01*
X014797Y002708D01*
X014755Y002719D01*
X014715Y002733D01*
X014675Y002751D01*
X014638Y002773D01*
X014603Y002798D01*
X014570Y002826D01*
X014540Y002857D01*
X014512Y002890D01*
X014488Y002926D01*
X014467Y002964D01*
X014450Y003004D01*
X014437Y003045D01*
X014427Y003087D01*
X014421Y003130D01*
X014419Y003173D01*
X017293Y003173D02*
X017295Y003216D01*
X017301Y003259D01*
X017311Y003301D01*
X017324Y003342D01*
X017341Y003382D01*
X017362Y003420D01*
X017386Y003456D01*
X017414Y003489D01*
X017444Y003520D01*
X017477Y003548D01*
X017512Y003573D01*
X017549Y003595D01*
X017589Y003613D01*
X017629Y003627D01*
X017671Y003638D01*
X017714Y003645D01*
X017757Y003648D01*
X017800Y003647D01*
X017843Y003642D01*
X017886Y003633D01*
X017927Y003621D01*
X017967Y003604D01*
X018005Y003584D01*
X018042Y003561D01*
X018076Y003535D01*
X018108Y003505D01*
X018136Y003473D01*
X018162Y003438D01*
X018185Y003401D01*
X018204Y003362D01*
X018219Y003322D01*
X018231Y003280D01*
X018239Y003238D01*
X018243Y003195D01*
X018243Y003151D01*
X018239Y003108D01*
X018231Y003066D01*
X018219Y003024D01*
X018204Y002984D01*
X018185Y002945D01*
X018162Y002908D01*
X018136Y002873D01*
X018108Y002841D01*
X018076Y002811D01*
X018042Y002785D01*
X018006Y002762D01*
X017967Y002742D01*
X017927Y002725D01*
X017886Y002713D01*
X017843Y002704D01*
X017800Y002699D01*
X017757Y002698D01*
X017714Y002701D01*
X017671Y002708D01*
X017629Y002719D01*
X017589Y002733D01*
X017549Y002751D01*
X017512Y002773D01*
X017477Y002798D01*
X017444Y002826D01*
X017414Y002857D01*
X017386Y002890D01*
X017362Y002926D01*
X017341Y002964D01*
X017324Y003004D01*
X017311Y003045D01*
X017301Y003087D01*
X017295Y003130D01*
X017293Y003173D01*
X028024Y002425D02*
X028026Y002466D01*
X028032Y002507D01*
X028042Y002547D01*
X028055Y002586D01*
X028072Y002623D01*
X028093Y002659D01*
X028117Y002693D01*
X028144Y002724D01*
X028173Y002752D01*
X028206Y002778D01*
X028240Y002800D01*
X028277Y002819D01*
X028315Y002834D01*
X028355Y002846D01*
X028395Y002854D01*
X028436Y002858D01*
X028478Y002858D01*
X028519Y002854D01*
X028559Y002846D01*
X028599Y002834D01*
X028637Y002819D01*
X028673Y002800D01*
X028708Y002778D01*
X028741Y002752D01*
X028770Y002724D01*
X028797Y002693D01*
X028821Y002659D01*
X028842Y002623D01*
X028859Y002586D01*
X028872Y002547D01*
X028882Y002507D01*
X028888Y002466D01*
X028890Y002425D01*
X028888Y002384D01*
X028882Y002343D01*
X028872Y002303D01*
X028859Y002264D01*
X028842Y002227D01*
X028821Y002191D01*
X028797Y002157D01*
X028770Y002126D01*
X028741Y002098D01*
X028708Y002072D01*
X028674Y002050D01*
X028637Y002031D01*
X028599Y002016D01*
X028559Y002004D01*
X028519Y001996D01*
X028478Y001992D01*
X028436Y001992D01*
X028395Y001996D01*
X028355Y002004D01*
X028315Y002016D01*
X028277Y002031D01*
X028241Y002050D01*
X028206Y002072D01*
X028173Y002098D01*
X028144Y002126D01*
X028117Y002157D01*
X028093Y002191D01*
X028072Y002227D01*
X028055Y002264D01*
X028042Y002303D01*
X028032Y002343D01*
X028026Y002384D01*
X028024Y002425D01*
X028024Y019354D02*
X028026Y019395D01*
X028032Y019436D01*
X028042Y019476D01*
X028055Y019515D01*
X028072Y019552D01*
X028093Y019588D01*
X028117Y019622D01*
X028144Y019653D01*
X028173Y019681D01*
X028206Y019707D01*
X028240Y019729D01*
X028277Y019748D01*
X028315Y019763D01*
X028355Y019775D01*
X028395Y019783D01*
X028436Y019787D01*
X028478Y019787D01*
X028519Y019783D01*
X028559Y019775D01*
X028599Y019763D01*
X028637Y019748D01*
X028673Y019729D01*
X028708Y019707D01*
X028741Y019681D01*
X028770Y019653D01*
X028797Y019622D01*
X028821Y019588D01*
X028842Y019552D01*
X028859Y019515D01*
X028872Y019476D01*
X028882Y019436D01*
X028888Y019395D01*
X028890Y019354D01*
X028888Y019313D01*
X028882Y019272D01*
X028872Y019232D01*
X028859Y019193D01*
X028842Y019156D01*
X028821Y019120D01*
X028797Y019086D01*
X028770Y019055D01*
X028741Y019027D01*
X028708Y019001D01*
X028674Y018979D01*
X028637Y018960D01*
X028599Y018945D01*
X028559Y018933D01*
X028519Y018925D01*
X028478Y018921D01*
X028436Y018921D01*
X028395Y018925D01*
X028355Y018933D01*
X028315Y018945D01*
X028277Y018960D01*
X028241Y018979D01*
X028206Y019001D01*
X028173Y019027D01*
X028144Y019055D01*
X028117Y019086D01*
X028093Y019120D01*
X028072Y019156D01*
X028055Y019193D01*
X028042Y019232D01*
X028032Y019272D01*
X028026Y019313D01*
X028024Y019354D01*
X010701Y019354D02*
X010703Y019395D01*
X010709Y019436D01*
X010719Y019476D01*
X010732Y019515D01*
X010749Y019552D01*
X010770Y019588D01*
X010794Y019622D01*
X010821Y019653D01*
X010850Y019681D01*
X010883Y019707D01*
X010917Y019729D01*
X010954Y019748D01*
X010992Y019763D01*
X011032Y019775D01*
X011072Y019783D01*
X011113Y019787D01*
X011155Y019787D01*
X011196Y019783D01*
X011236Y019775D01*
X011276Y019763D01*
X011314Y019748D01*
X011350Y019729D01*
X011385Y019707D01*
X011418Y019681D01*
X011447Y019653D01*
X011474Y019622D01*
X011498Y019588D01*
X011519Y019552D01*
X011536Y019515D01*
X011549Y019476D01*
X011559Y019436D01*
X011565Y019395D01*
X011567Y019354D01*
X011565Y019313D01*
X011559Y019272D01*
X011549Y019232D01*
X011536Y019193D01*
X011519Y019156D01*
X011498Y019120D01*
X011474Y019086D01*
X011447Y019055D01*
X011418Y019027D01*
X011385Y019001D01*
X011351Y018979D01*
X011314Y018960D01*
X011276Y018945D01*
X011236Y018933D01*
X011196Y018925D01*
X011155Y018921D01*
X011113Y018921D01*
X011072Y018925D01*
X011032Y018933D01*
X010992Y018945D01*
X010954Y018960D01*
X010918Y018979D01*
X010883Y019001D01*
X010850Y019027D01*
X010821Y019055D01*
X010794Y019086D01*
X010770Y019120D01*
X010749Y019156D01*
X010732Y019193D01*
X010719Y019232D01*
X010709Y019272D01*
X010703Y019313D01*
X010701Y019354D01*
M02*
