G75*
G70*
%OFA0B0*%
%FSLAX24Y24*%
%IPPOS*%
%LPD*%
%AMOC8*
5,1,8,0,0,1.08239X$1,22.5*
%
%ADD10C,0.0946*%
%ADD11R,0.0730X0.0730*%
%ADD12C,0.0730*%
%ADD13C,0.0848*%
%ADD14R,0.1340X0.0789*%
%ADD15C,0.1030*%
%ADD16C,0.0456*%
D10*
X011134Y002425D03*
X028457Y002425D03*
X028457Y019354D03*
X011134Y019354D03*
D11*
X012237Y015220D03*
X017040Y018449D03*
X020308Y003528D03*
X024245Y003528D03*
D12*
X026213Y003528D03*
X022276Y003528D03*
X012237Y013252D03*
X015071Y018449D03*
D13*
X019890Y017102D03*
X020678Y014740D03*
X022292Y011276D03*
X021505Y008913D03*
X022292Y006551D03*
X027095Y006551D03*
X027095Y011276D03*
X025481Y014740D03*
X025481Y019465D03*
X020678Y019465D03*
D14*
X025347Y013409D03*
X025347Y011205D03*
D15*
X017768Y003173D03*
X014894Y003173D03*
D16*
X014363Y007937D03*
X018379Y013567D03*
X020583Y012858D03*
X022709Y014669D03*
X024009Y014669D03*
X021449Y015575D03*
X020505Y015811D03*
X019402Y016008D03*
X018536Y016677D03*
X017827Y017386D03*
X019520Y019039D03*
X020032Y018528D03*
X020898Y018252D03*
X021646Y018764D03*
X022001Y019394D03*
X022985Y019512D03*
X023930Y019472D03*
X024757Y019669D03*
X018890Y019787D03*
X017591Y019866D03*
X016410Y019827D03*
X014993Y019827D03*
X013654Y020024D03*
X013024Y019315D03*
X012985Y018213D03*
X012946Y017071D03*
X012906Y016126D03*
X023575Y005969D03*
X022749Y005260D03*
X022316Y004591D03*
X024520Y007031D03*
X025386Y007937D03*
X026331Y008567D03*
X026961Y009394D03*
X027040Y010181D03*
X026568Y005969D03*
X026253Y005417D03*
X026213Y004630D03*
M02*
