%
M48
M72
T01C0.0236
T02C0.0433
T03C0.0512
T04C0.0866
T05C0.0950
%
T01
X14363Y7937
X18379Y13567
X20583Y12858
X22709Y14669
X24009Y14669
X21449Y15575
X20505Y15811
X19402Y16008
X18536Y16677
X17827Y17386
X19520Y19039
X20032Y18528
X20898Y18252
X21646Y18764
X22001Y19394
X22985Y19512
X23930Y19472
X24757Y19669
X18890Y19787
X17591Y19866
X16410Y19827
X14993Y19827
X13654Y20024
X13024Y19315
X12985Y18213
X12946Y17071
X12906Y16126
X23575Y5969
X22749Y5260
X22316Y4591
X24520Y7031
X25386Y7937
X26331Y8567
X26961Y9394
X27040Y10181
X26568Y5969
X26253Y5417
X26213Y4630
T02
X26213Y3528
X24245Y3528
X22276Y3528
X20308Y3528
X12237Y13252
X12237Y15220
X15071Y18449
X17040Y18449
T03
X19890Y17102
X20678Y14740
X22292Y11276
X21505Y8913
X22292Y6551
X27095Y6551
X27095Y11276
X25481Y14740
X25481Y19465
X20678Y19465
T04
X11134Y2425
X28457Y2425
X28457Y19354
X11134Y19354
T05
X14894Y3173
X17768Y3173
M30
