G75*
G70*
%OFA0B0*%
%FSLAX24Y24*%
%IPPOS*%
%LPD*%
%AMOC8*
5,1,8,0,0,1.08239X$1,22.5*
%
%ADD10C,0.0000*%
%ADD11R,0.0650X0.0650*%
%ADD12C,0.0650*%
%ADD13C,0.0768*%
%ADD14R,0.0236X0.0709*%
%ADD15R,0.0500X0.1150*%
%ADD16R,0.0650X0.1350*%
%ADD17R,0.1150X0.0500*%
%ADD18R,0.0394X0.0433*%
%ADD19C,0.0160*%
%ADD20C,0.0376*%
%ADD21C,0.0120*%
%ADD22C,0.1378*%
D10*
X009757Y001126D02*
X029835Y001126D01*
X029835Y020811D01*
X009757Y020811D01*
X009757Y001126D01*
X010701Y002425D02*
X010703Y002466D01*
X010709Y002507D01*
X010719Y002547D01*
X010732Y002586D01*
X010749Y002623D01*
X010770Y002659D01*
X010794Y002693D01*
X010821Y002724D01*
X010850Y002752D01*
X010883Y002778D01*
X010917Y002800D01*
X010954Y002819D01*
X010992Y002834D01*
X011032Y002846D01*
X011072Y002854D01*
X011113Y002858D01*
X011155Y002858D01*
X011196Y002854D01*
X011236Y002846D01*
X011276Y002834D01*
X011314Y002819D01*
X011350Y002800D01*
X011385Y002778D01*
X011418Y002752D01*
X011447Y002724D01*
X011474Y002693D01*
X011498Y002659D01*
X011519Y002623D01*
X011536Y002586D01*
X011549Y002547D01*
X011559Y002507D01*
X011565Y002466D01*
X011567Y002425D01*
X011565Y002384D01*
X011559Y002343D01*
X011549Y002303D01*
X011536Y002264D01*
X011519Y002227D01*
X011498Y002191D01*
X011474Y002157D01*
X011447Y002126D01*
X011418Y002098D01*
X011385Y002072D01*
X011351Y002050D01*
X011314Y002031D01*
X011276Y002016D01*
X011236Y002004D01*
X011196Y001996D01*
X011155Y001992D01*
X011113Y001992D01*
X011072Y001996D01*
X011032Y002004D01*
X010992Y002016D01*
X010954Y002031D01*
X010918Y002050D01*
X010883Y002072D01*
X010850Y002098D01*
X010821Y002126D01*
X010794Y002157D01*
X010770Y002191D01*
X010749Y002227D01*
X010732Y002264D01*
X010719Y002303D01*
X010709Y002343D01*
X010703Y002384D01*
X010701Y002425D01*
X014419Y003173D02*
X014421Y003216D01*
X014427Y003259D01*
X014437Y003301D01*
X014450Y003342D01*
X014467Y003382D01*
X014488Y003420D01*
X014512Y003456D01*
X014540Y003489D01*
X014570Y003520D01*
X014603Y003548D01*
X014638Y003573D01*
X014675Y003595D01*
X014715Y003613D01*
X014755Y003627D01*
X014797Y003638D01*
X014840Y003645D01*
X014883Y003648D01*
X014926Y003647D01*
X014969Y003642D01*
X015012Y003633D01*
X015053Y003621D01*
X015093Y003604D01*
X015131Y003584D01*
X015168Y003561D01*
X015202Y003535D01*
X015234Y003505D01*
X015262Y003473D01*
X015288Y003438D01*
X015311Y003401D01*
X015330Y003362D01*
X015345Y003322D01*
X015357Y003280D01*
X015365Y003238D01*
X015369Y003195D01*
X015369Y003151D01*
X015365Y003108D01*
X015357Y003066D01*
X015345Y003024D01*
X015330Y002984D01*
X015311Y002945D01*
X015288Y002908D01*
X015262Y002873D01*
X015234Y002841D01*
X015202Y002811D01*
X015168Y002785D01*
X015132Y002762D01*
X015093Y002742D01*
X015053Y002725D01*
X015012Y002713D01*
X014969Y002704D01*
X014926Y002699D01*
X014883Y002698D01*
X014840Y002701D01*
X014797Y002708D01*
X014755Y002719D01*
X014715Y002733D01*
X014675Y002751D01*
X014638Y002773D01*
X014603Y002798D01*
X014570Y002826D01*
X014540Y002857D01*
X014512Y002890D01*
X014488Y002926D01*
X014467Y002964D01*
X014450Y003004D01*
X014437Y003045D01*
X014427Y003087D01*
X014421Y003130D01*
X014419Y003173D01*
X017293Y003173D02*
X017295Y003216D01*
X017301Y003259D01*
X017311Y003301D01*
X017324Y003342D01*
X017341Y003382D01*
X017362Y003420D01*
X017386Y003456D01*
X017414Y003489D01*
X017444Y003520D01*
X017477Y003548D01*
X017512Y003573D01*
X017549Y003595D01*
X017589Y003613D01*
X017629Y003627D01*
X017671Y003638D01*
X017714Y003645D01*
X017757Y003648D01*
X017800Y003647D01*
X017843Y003642D01*
X017886Y003633D01*
X017927Y003621D01*
X017967Y003604D01*
X018005Y003584D01*
X018042Y003561D01*
X018076Y003535D01*
X018108Y003505D01*
X018136Y003473D01*
X018162Y003438D01*
X018185Y003401D01*
X018204Y003362D01*
X018219Y003322D01*
X018231Y003280D01*
X018239Y003238D01*
X018243Y003195D01*
X018243Y003151D01*
X018239Y003108D01*
X018231Y003066D01*
X018219Y003024D01*
X018204Y002984D01*
X018185Y002945D01*
X018162Y002908D01*
X018136Y002873D01*
X018108Y002841D01*
X018076Y002811D01*
X018042Y002785D01*
X018006Y002762D01*
X017967Y002742D01*
X017927Y002725D01*
X017886Y002713D01*
X017843Y002704D01*
X017800Y002699D01*
X017757Y002698D01*
X017714Y002701D01*
X017671Y002708D01*
X017629Y002719D01*
X017589Y002733D01*
X017549Y002751D01*
X017512Y002773D01*
X017477Y002798D01*
X017444Y002826D01*
X017414Y002857D01*
X017386Y002890D01*
X017362Y002926D01*
X017341Y002964D01*
X017324Y003004D01*
X017311Y003045D01*
X017301Y003087D01*
X017295Y003130D01*
X017293Y003173D01*
X028024Y002425D02*
X028026Y002466D01*
X028032Y002507D01*
X028042Y002547D01*
X028055Y002586D01*
X028072Y002623D01*
X028093Y002659D01*
X028117Y002693D01*
X028144Y002724D01*
X028173Y002752D01*
X028206Y002778D01*
X028240Y002800D01*
X028277Y002819D01*
X028315Y002834D01*
X028355Y002846D01*
X028395Y002854D01*
X028436Y002858D01*
X028478Y002858D01*
X028519Y002854D01*
X028559Y002846D01*
X028599Y002834D01*
X028637Y002819D01*
X028673Y002800D01*
X028708Y002778D01*
X028741Y002752D01*
X028770Y002724D01*
X028797Y002693D01*
X028821Y002659D01*
X028842Y002623D01*
X028859Y002586D01*
X028872Y002547D01*
X028882Y002507D01*
X028888Y002466D01*
X028890Y002425D01*
X028888Y002384D01*
X028882Y002343D01*
X028872Y002303D01*
X028859Y002264D01*
X028842Y002227D01*
X028821Y002191D01*
X028797Y002157D01*
X028770Y002126D01*
X028741Y002098D01*
X028708Y002072D01*
X028674Y002050D01*
X028637Y002031D01*
X028599Y002016D01*
X028559Y002004D01*
X028519Y001996D01*
X028478Y001992D01*
X028436Y001992D01*
X028395Y001996D01*
X028355Y002004D01*
X028315Y002016D01*
X028277Y002031D01*
X028241Y002050D01*
X028206Y002072D01*
X028173Y002098D01*
X028144Y002126D01*
X028117Y002157D01*
X028093Y002191D01*
X028072Y002227D01*
X028055Y002264D01*
X028042Y002303D01*
X028032Y002343D01*
X028026Y002384D01*
X028024Y002425D01*
X028024Y019354D02*
X028026Y019395D01*
X028032Y019436D01*
X028042Y019476D01*
X028055Y019515D01*
X028072Y019552D01*
X028093Y019588D01*
X028117Y019622D01*
X028144Y019653D01*
X028173Y019681D01*
X028206Y019707D01*
X028240Y019729D01*
X028277Y019748D01*
X028315Y019763D01*
X028355Y019775D01*
X028395Y019783D01*
X028436Y019787D01*
X028478Y019787D01*
X028519Y019783D01*
X028559Y019775D01*
X028599Y019763D01*
X028637Y019748D01*
X028673Y019729D01*
X028708Y019707D01*
X028741Y019681D01*
X028770Y019653D01*
X028797Y019622D01*
X028821Y019588D01*
X028842Y019552D01*
X028859Y019515D01*
X028872Y019476D01*
X028882Y019436D01*
X028888Y019395D01*
X028890Y019354D01*
X028888Y019313D01*
X028882Y019272D01*
X028872Y019232D01*
X028859Y019193D01*
X028842Y019156D01*
X028821Y019120D01*
X028797Y019086D01*
X028770Y019055D01*
X028741Y019027D01*
X028708Y019001D01*
X028674Y018979D01*
X028637Y018960D01*
X028599Y018945D01*
X028559Y018933D01*
X028519Y018925D01*
X028478Y018921D01*
X028436Y018921D01*
X028395Y018925D01*
X028355Y018933D01*
X028315Y018945D01*
X028277Y018960D01*
X028241Y018979D01*
X028206Y019001D01*
X028173Y019027D01*
X028144Y019055D01*
X028117Y019086D01*
X028093Y019120D01*
X028072Y019156D01*
X028055Y019193D01*
X028042Y019232D01*
X028032Y019272D01*
X028026Y019313D01*
X028024Y019354D01*
X010701Y019354D02*
X010703Y019395D01*
X010709Y019436D01*
X010719Y019476D01*
X010732Y019515D01*
X010749Y019552D01*
X010770Y019588D01*
X010794Y019622D01*
X010821Y019653D01*
X010850Y019681D01*
X010883Y019707D01*
X010917Y019729D01*
X010954Y019748D01*
X010992Y019763D01*
X011032Y019775D01*
X011072Y019783D01*
X011113Y019787D01*
X011155Y019787D01*
X011196Y019783D01*
X011236Y019775D01*
X011276Y019763D01*
X011314Y019748D01*
X011350Y019729D01*
X011385Y019707D01*
X011418Y019681D01*
X011447Y019653D01*
X011474Y019622D01*
X011498Y019588D01*
X011519Y019552D01*
X011536Y019515D01*
X011549Y019476D01*
X011559Y019436D01*
X011565Y019395D01*
X011567Y019354D01*
X011565Y019313D01*
X011559Y019272D01*
X011549Y019232D01*
X011536Y019193D01*
X011519Y019156D01*
X011498Y019120D01*
X011474Y019086D01*
X011447Y019055D01*
X011418Y019027D01*
X011385Y019001D01*
X011351Y018979D01*
X011314Y018960D01*
X011276Y018945D01*
X011236Y018933D01*
X011196Y018925D01*
X011155Y018921D01*
X011113Y018921D01*
X011072Y018925D01*
X011032Y018933D01*
X010992Y018945D01*
X010954Y018960D01*
X010918Y018979D01*
X010883Y019001D01*
X010850Y019027D01*
X010821Y019055D01*
X010794Y019086D01*
X010770Y019120D01*
X010749Y019156D01*
X010732Y019193D01*
X010719Y019232D01*
X010709Y019272D01*
X010703Y019313D01*
X010701Y019354D01*
D11*
X012237Y015220D03*
X017040Y018449D03*
X020308Y003528D03*
X024245Y003528D03*
D12*
X026213Y003528D03*
X022276Y003528D03*
X012237Y013252D03*
X015071Y018449D03*
D13*
X019890Y017102D03*
X020678Y014740D03*
X022292Y011276D03*
X021505Y008913D03*
X022292Y006551D03*
X027095Y006551D03*
X027095Y011276D03*
X025481Y014740D03*
X025481Y019465D03*
X020678Y019465D03*
D14*
X017461Y014748D03*
X016961Y014748D03*
X016461Y014748D03*
X015961Y014748D03*
X015961Y012465D03*
X016461Y012465D03*
X016961Y012465D03*
X017461Y012465D03*
D15*
X016922Y007150D03*
X015741Y007150D03*
X015741Y005327D03*
X016922Y005327D03*
D16*
X011804Y007077D03*
X011804Y011317D03*
D17*
X013959Y009787D03*
X013959Y008606D03*
D18*
X016725Y010398D03*
X016725Y011067D03*
X017946Y011067D03*
X017946Y010398D03*
D19*
X017355Y010398D01*
X017355Y011795D01*
X016961Y011795D01*
X016961Y012465D01*
X016461Y012465D01*
X016211Y012885D02*
X016137Y012959D01*
X015785Y012959D01*
X015703Y012877D01*
X015703Y012052D01*
X015718Y012038D01*
X015718Y009879D01*
X014891Y009052D01*
X014891Y008869D01*
X014891Y005236D01*
X015020Y005107D01*
X015202Y005107D01*
X015351Y005107D01*
X015351Y004694D01*
X015433Y004612D01*
X016049Y004612D01*
X016131Y004694D01*
X016131Y005960D01*
X016049Y006042D01*
X015433Y006042D01*
X015351Y005960D01*
X015351Y005547D01*
X015331Y005547D01*
X015331Y008869D01*
X016029Y009567D01*
X016158Y009696D01*
X016158Y011991D01*
X016211Y012044D01*
X016285Y011970D01*
X016637Y011970D01*
X016711Y012044D01*
X016741Y012014D01*
X016741Y011886D01*
X016741Y011704D01*
X016870Y011575D01*
X017135Y011575D01*
X017135Y010618D01*
X017062Y010618D01*
X017062Y010672D01*
X017029Y010705D01*
X017032Y010706D01*
X017066Y010740D01*
X017090Y010781D01*
X017102Y010827D01*
X017102Y011048D01*
X016744Y011048D01*
X016744Y011085D01*
X017102Y011085D01*
X017102Y011307D01*
X017090Y011353D01*
X017066Y011394D01*
X017032Y011427D01*
X016991Y011451D01*
X016946Y011463D01*
X016743Y011463D01*
X016743Y011086D01*
X016707Y011086D01*
X016707Y011463D01*
X016504Y011463D01*
X016459Y011451D01*
X016418Y011427D01*
X016384Y011394D01*
X016360Y011353D01*
X016348Y011307D01*
X016348Y011085D01*
X016706Y011085D01*
X016706Y011048D01*
X016348Y011048D01*
X016348Y010827D01*
X016360Y010781D01*
X016384Y010740D01*
X016418Y010706D01*
X016421Y010705D01*
X016388Y010672D01*
X016388Y010123D01*
X016470Y010041D01*
X016702Y010041D01*
X016702Y007865D01*
X016614Y007865D01*
X016532Y007783D01*
X016532Y006517D01*
X016614Y006435D01*
X017230Y006435D01*
X017312Y006517D01*
X017312Y007783D01*
X017230Y007865D01*
X017142Y007865D01*
X017142Y010178D01*
X017264Y010178D01*
X017446Y010178D01*
X017609Y010178D01*
X017609Y010123D01*
X017691Y010041D01*
X018200Y010041D01*
X018282Y010123D01*
X018282Y010672D01*
X018250Y010705D01*
X018253Y010706D01*
X018286Y010740D01*
X018310Y010781D01*
X018322Y010827D01*
X018322Y011048D01*
X017964Y011048D01*
X017964Y011085D01*
X018322Y011085D01*
X018322Y011307D01*
X018310Y011353D01*
X018286Y011394D01*
X018253Y011427D01*
X018212Y011451D01*
X018166Y011463D01*
X017964Y011463D01*
X017964Y011086D01*
X017927Y011086D01*
X017927Y011463D01*
X017725Y011463D01*
X017679Y011451D01*
X017638Y011427D01*
X017605Y011394D01*
X017581Y011353D01*
X017575Y011330D01*
X017575Y011886D01*
X017491Y011970D01*
X017637Y011970D01*
X017719Y012052D01*
X017719Y012265D01*
X017871Y012265D01*
X021021Y009114D01*
X020981Y009018D01*
X020981Y008809D01*
X021060Y008617D01*
X021208Y008469D01*
X021400Y008390D01*
X021609Y008390D01*
X021801Y008469D01*
X021949Y008617D01*
X022028Y008809D01*
X022028Y009018D01*
X021949Y009210D01*
X021801Y009357D01*
X021609Y009437D01*
X021400Y009437D01*
X021304Y009397D01*
X018036Y012665D01*
X017871Y012665D01*
X017719Y012665D01*
X017719Y012877D01*
X017637Y012959D01*
X017285Y012959D01*
X017211Y012885D01*
X017137Y012959D01*
X016785Y012959D01*
X016711Y012885D01*
X016637Y012959D01*
X016285Y012959D01*
X016211Y012885D01*
X015961Y012465D02*
X015938Y012441D01*
X015938Y009787D01*
X015111Y008961D01*
X015111Y005327D01*
X015741Y005327D01*
X015351Y005062D02*
X009986Y005062D01*
X009986Y005221D02*
X014906Y005221D01*
X014891Y005379D02*
X009986Y005379D01*
X009986Y005538D02*
X014891Y005538D01*
X014891Y005696D02*
X009986Y005696D01*
X009986Y005855D02*
X014891Y005855D01*
X014891Y006013D02*
X009986Y006013D01*
X009986Y006172D02*
X014891Y006172D01*
X014891Y006330D02*
X012255Y006330D01*
X012269Y006344D02*
X012269Y007810D01*
X012187Y007892D01*
X011421Y007892D01*
X011339Y007810D01*
X011339Y006344D01*
X011421Y006262D01*
X012187Y006262D01*
X012269Y006344D01*
X012269Y006489D02*
X014891Y006489D01*
X014891Y006647D02*
X012269Y006647D01*
X012269Y006806D02*
X014891Y006806D01*
X014891Y006964D02*
X012269Y006964D01*
X012269Y007123D02*
X014891Y007123D01*
X014891Y007282D02*
X012269Y007282D01*
X012269Y007440D02*
X014891Y007440D01*
X014891Y007599D02*
X012269Y007599D01*
X012269Y007757D02*
X014082Y007757D01*
X014085Y007751D02*
X014177Y007659D01*
X014298Y007609D01*
X014428Y007609D01*
X014549Y007659D01*
X014641Y007751D01*
X014691Y007872D01*
X014691Y008002D01*
X014641Y008123D01*
X014549Y008215D01*
X014546Y008216D01*
X014592Y008216D01*
X014674Y008298D01*
X014674Y008914D01*
X014592Y008996D01*
X013326Y008996D01*
X013244Y008914D01*
X013244Y008298D01*
X013326Y008216D01*
X013772Y008216D01*
X014035Y007954D01*
X014035Y007872D01*
X014085Y007751D01*
X014035Y007916D02*
X009986Y007916D01*
X009986Y008074D02*
X013914Y008074D01*
X013959Y008341D02*
X014363Y007937D01*
X014661Y008074D02*
X014891Y008074D01*
X014891Y007916D02*
X014691Y007916D01*
X014643Y007757D02*
X014891Y007757D01*
X015331Y007757D02*
X015351Y007757D01*
X015351Y007783D02*
X015351Y006517D01*
X015433Y006435D01*
X016049Y006435D01*
X016131Y006517D01*
X016131Y007783D01*
X016049Y007865D01*
X015433Y007865D01*
X015351Y007783D01*
X015331Y007916D02*
X016702Y007916D01*
X016702Y008074D02*
X015331Y008074D01*
X015331Y008233D02*
X016702Y008233D01*
X016702Y008391D02*
X015331Y008391D01*
X015331Y008550D02*
X016702Y008550D01*
X016702Y008708D02*
X015331Y008708D01*
X015331Y008867D02*
X016702Y008867D01*
X016702Y009026D02*
X015487Y009026D01*
X015645Y009184D02*
X016702Y009184D01*
X016702Y009343D02*
X015804Y009343D01*
X015963Y009501D02*
X016702Y009501D01*
X016702Y009660D02*
X016121Y009660D01*
X016158Y009818D02*
X016702Y009818D01*
X016702Y009977D02*
X016158Y009977D01*
X016158Y010135D02*
X016388Y010135D01*
X016388Y010294D02*
X016158Y010294D01*
X016158Y010452D02*
X016388Y010452D01*
X016388Y010611D02*
X016158Y010611D01*
X016158Y010770D02*
X016367Y010770D01*
X016348Y010928D02*
X016158Y010928D01*
X016158Y011087D02*
X016348Y011087D01*
X016348Y011245D02*
X016158Y011245D01*
X016158Y011404D02*
X016394Y011404D01*
X016158Y011562D02*
X017135Y011562D01*
X017135Y011404D02*
X017056Y011404D01*
X017102Y011245D02*
X017135Y011245D01*
X017135Y011087D02*
X017102Y011087D01*
X017102Y010928D02*
X017135Y010928D01*
X017135Y010770D02*
X017083Y010770D01*
X016922Y010398D02*
X016922Y007150D01*
X017312Y007123D02*
X023439Y007123D01*
X023281Y006964D02*
X022676Y006964D01*
X022659Y006981D02*
X022587Y007033D01*
X022508Y007074D01*
X022424Y007101D01*
X022340Y007114D01*
X022340Y006599D01*
X022855Y006599D01*
X022842Y006683D01*
X022814Y006768D01*
X022774Y006847D01*
X022722Y006919D01*
X022659Y006981D01*
X022795Y006806D02*
X023122Y006806D01*
X023007Y006691D02*
X022820Y006503D01*
X022340Y006503D01*
X022340Y006023D01*
X022279Y005963D01*
X021807Y005490D01*
X021573Y005257D01*
X021447Y004952D01*
X021447Y004795D01*
X021447Y003417D01*
X021447Y003087D01*
X021573Y002782D01*
X021846Y002510D01*
X022151Y002384D01*
X022480Y002384D01*
X022785Y002510D01*
X023018Y002743D01*
X023145Y003048D01*
X023145Y003377D01*
X023105Y003473D01*
X023105Y004444D01*
X023451Y004790D01*
X024180Y005519D01*
X025223Y006562D01*
X025735Y007074D01*
X025836Y007175D01*
X027254Y008592D01*
X027798Y009137D01*
X027924Y009441D01*
X027924Y009771D01*
X027924Y009937D01*
X027924Y011440D01*
X027798Y011745D01*
X027565Y011978D01*
X027260Y012105D01*
X026930Y012105D01*
X026626Y011978D01*
X026392Y011745D01*
X026266Y011440D01*
X026266Y009950D01*
X026081Y009765D01*
X024664Y008348D01*
X024587Y008271D01*
X022492Y010366D01*
X022492Y010791D01*
X022589Y010831D01*
X022736Y010979D01*
X022816Y011171D01*
X022816Y011380D01*
X022736Y011572D01*
X022589Y011720D01*
X022396Y011799D01*
X022188Y011799D01*
X021995Y011720D01*
X021848Y011572D01*
X021768Y011380D01*
X021768Y011171D01*
X021848Y010979D01*
X021995Y010831D01*
X022092Y010791D01*
X022092Y010366D01*
X022092Y010201D01*
X024305Y007988D01*
X024051Y007734D01*
X023007Y006691D01*
X022964Y006647D02*
X022848Y006647D01*
X022340Y006647D02*
X022244Y006647D01*
X022244Y006599D02*
X022244Y007114D01*
X022160Y007101D01*
X022076Y007074D01*
X021996Y007033D01*
X021925Y006981D01*
X021862Y006919D01*
X021810Y006847D01*
X021769Y006768D01*
X021742Y006683D01*
X021729Y006599D01*
X022244Y006599D01*
X022244Y006503D01*
X022340Y006503D01*
X022340Y006599D01*
X022244Y006599D01*
X022244Y006503D02*
X021729Y006503D01*
X021742Y006419D01*
X021769Y006335D01*
X021810Y006256D01*
X021862Y006184D01*
X021925Y006121D01*
X021996Y006069D01*
X022076Y006029D01*
X022160Y006001D01*
X022244Y005988D01*
X022244Y006503D01*
X022244Y006489D02*
X022340Y006489D01*
X022340Y006330D02*
X022244Y006330D01*
X022244Y006172D02*
X022340Y006172D01*
X022330Y006013D02*
X022244Y006013D01*
X022123Y006013D02*
X017315Y006013D01*
X017316Y006012D02*
X017282Y006046D01*
X017241Y006069D01*
X017196Y006082D01*
X016967Y006082D01*
X016967Y005372D01*
X016877Y005372D01*
X016877Y006082D01*
X016648Y006082D01*
X016602Y006069D01*
X016561Y006046D01*
X016528Y006012D01*
X016504Y005971D01*
X016492Y005925D01*
X016492Y005372D01*
X016877Y005372D01*
X016877Y005282D01*
X016492Y005282D01*
X016492Y004728D01*
X016504Y004682D01*
X016528Y004641D01*
X016561Y004608D01*
X016602Y004584D01*
X016648Y004572D01*
X016877Y004572D01*
X016877Y005281D01*
X016967Y005281D01*
X016967Y004572D01*
X017196Y004572D01*
X017241Y004584D01*
X017282Y004608D01*
X017316Y004641D01*
X017340Y004682D01*
X017352Y004728D01*
X017352Y005282D01*
X016967Y005282D01*
X016967Y005372D01*
X017352Y005372D01*
X017352Y005925D01*
X017340Y005971D01*
X017316Y006012D01*
X017352Y005855D02*
X022171Y005855D01*
X022013Y005696D02*
X017352Y005696D01*
X017352Y005538D02*
X021854Y005538D01*
X021696Y005379D02*
X017352Y005379D01*
X017352Y005221D02*
X021558Y005221D01*
X021493Y005062D02*
X017352Y005062D01*
X017352Y004903D02*
X021447Y004903D01*
X021447Y004745D02*
X017352Y004745D01*
X017245Y004586D02*
X021447Y004586D01*
X021447Y004428D02*
X009986Y004428D01*
X009986Y004586D02*
X016598Y004586D01*
X016492Y004745D02*
X016131Y004745D01*
X016131Y004903D02*
X016492Y004903D01*
X016492Y005062D02*
X016131Y005062D01*
X016131Y005221D02*
X016492Y005221D01*
X016492Y005379D02*
X016131Y005379D01*
X016131Y005538D02*
X016492Y005538D01*
X016492Y005696D02*
X016131Y005696D01*
X016131Y005855D02*
X016492Y005855D01*
X016529Y006013D02*
X016077Y006013D01*
X016103Y006489D02*
X016560Y006489D01*
X016532Y006647D02*
X016131Y006647D01*
X016131Y006806D02*
X016532Y006806D01*
X016532Y006964D02*
X016131Y006964D01*
X016131Y007123D02*
X016532Y007123D01*
X016532Y007282D02*
X016131Y007282D01*
X016131Y007440D02*
X016532Y007440D01*
X016532Y007599D02*
X016131Y007599D01*
X016131Y007757D02*
X016532Y007757D01*
X017142Y007916D02*
X024232Y007916D01*
X024218Y008074D02*
X017142Y008074D01*
X017142Y008233D02*
X024060Y008233D01*
X023901Y008391D02*
X021613Y008391D01*
X021396Y008391D02*
X017142Y008391D01*
X017142Y008550D02*
X021127Y008550D01*
X021022Y008708D02*
X017142Y008708D01*
X017142Y008867D02*
X020981Y008867D01*
X020984Y009026D02*
X017142Y009026D01*
X017142Y009184D02*
X020951Y009184D01*
X020792Y009343D02*
X017142Y009343D01*
X017142Y009501D02*
X020634Y009501D01*
X020475Y009660D02*
X017142Y009660D01*
X017142Y009818D02*
X020317Y009818D01*
X020158Y009977D02*
X017142Y009977D01*
X017142Y010135D02*
X017609Y010135D01*
X017355Y010398D02*
X016725Y010398D01*
X016922Y010398D01*
X016743Y011087D02*
X016707Y011087D01*
X016707Y011245D02*
X016743Y011245D01*
X016743Y011404D02*
X016707Y011404D01*
X016741Y011721D02*
X016158Y011721D01*
X016158Y011879D02*
X016741Y011879D01*
X016717Y012038D02*
X016705Y012038D01*
X016217Y012038D02*
X016205Y012038D01*
X015717Y012038D02*
X015291Y012038D01*
X015291Y012196D02*
X015703Y012196D01*
X015703Y012355D02*
X015291Y012355D01*
X015291Y012514D02*
X015703Y012514D01*
X015703Y012672D02*
X015291Y012672D01*
X015291Y012831D02*
X015703Y012831D01*
X015291Y012989D02*
X020282Y012989D01*
X020305Y013044D02*
X020255Y012924D01*
X020255Y012793D01*
X020305Y012672D01*
X020397Y012580D01*
X020518Y012530D01*
X020649Y012530D01*
X020769Y012580D01*
X020861Y012672D01*
X029605Y012672D01*
X029605Y012514D02*
X018187Y012514D01*
X018346Y012355D02*
X029605Y012355D01*
X029605Y012196D02*
X018504Y012196D01*
X018663Y012038D02*
X026769Y012038D01*
X026526Y011879D02*
X018821Y011879D01*
X018980Y011721D02*
X021998Y011721D01*
X021844Y011562D02*
X019139Y011562D01*
X019297Y011404D02*
X021778Y011404D01*
X021768Y011245D02*
X019456Y011245D01*
X019614Y011087D02*
X021803Y011087D01*
X021899Y010928D02*
X019773Y010928D01*
X019931Y010770D02*
X022092Y010770D01*
X022092Y010611D02*
X020090Y010611D01*
X020248Y010452D02*
X022092Y010452D01*
X022092Y010294D02*
X020407Y010294D01*
X020565Y010135D02*
X022157Y010135D01*
X022316Y009977D02*
X020724Y009977D01*
X020882Y009818D02*
X022474Y009818D01*
X022633Y009660D02*
X021041Y009660D01*
X021200Y009501D02*
X022791Y009501D01*
X022950Y009343D02*
X021816Y009343D01*
X021959Y009184D02*
X023108Y009184D01*
X023267Y009026D02*
X022025Y009026D01*
X022028Y008867D02*
X023426Y008867D01*
X023584Y008708D02*
X021987Y008708D01*
X021882Y008550D02*
X023743Y008550D01*
X023991Y008867D02*
X025183Y008867D01*
X025025Y008708D02*
X024150Y008708D01*
X024308Y008550D02*
X024866Y008550D01*
X024708Y008391D02*
X024467Y008391D01*
X024074Y007757D02*
X017312Y007757D01*
X017312Y007599D02*
X023915Y007599D01*
X023757Y007440D02*
X017312Y007440D01*
X017312Y007282D02*
X023598Y007282D01*
X022340Y006964D02*
X022244Y006964D01*
X022244Y006806D02*
X022340Y006806D01*
X021908Y006964D02*
X017312Y006964D01*
X017312Y006806D02*
X021789Y006806D01*
X021736Y006647D02*
X017312Y006647D01*
X017284Y006489D02*
X021731Y006489D01*
X021772Y006330D02*
X015331Y006330D01*
X015331Y006172D02*
X021874Y006172D01*
X023406Y004745D02*
X025384Y004745D01*
X025384Y004903D02*
X023565Y004903D01*
X023723Y005062D02*
X025384Y005062D01*
X025384Y005221D02*
X023882Y005221D01*
X024040Y005379D02*
X025384Y005379D01*
X025384Y005538D02*
X024199Y005538D01*
X024357Y005696D02*
X025384Y005696D01*
X025384Y005740D02*
X025384Y004465D01*
X025384Y004426D01*
X025384Y003363D01*
X025510Y003058D01*
X025744Y002825D01*
X026048Y002699D01*
X026378Y002699D01*
X026683Y002825D01*
X026916Y003058D01*
X027042Y003363D01*
X027042Y004426D01*
X027042Y004465D01*
X027042Y005231D01*
X027979Y006168D01*
X028105Y006473D01*
X028105Y006803D01*
X027979Y007107D01*
X027746Y007341D01*
X027441Y007467D01*
X027111Y007467D01*
X026807Y007341D01*
X025744Y006278D01*
X025744Y006278D01*
X025510Y006044D01*
X025384Y005740D01*
X025432Y005855D02*
X024516Y005855D01*
X024674Y006013D02*
X025498Y006013D01*
X025638Y006172D02*
X024833Y006172D01*
X024991Y006330D02*
X025796Y006330D01*
X025955Y006489D02*
X025150Y006489D01*
X025309Y006647D02*
X026114Y006647D01*
X026272Y006806D02*
X025467Y006806D01*
X025626Y006964D02*
X026431Y006964D01*
X026589Y007123D02*
X025784Y007123D01*
X025943Y007282D02*
X026748Y007282D01*
X027047Y007440D02*
X026101Y007440D01*
X026260Y007599D02*
X029605Y007599D01*
X029605Y007757D02*
X026418Y007757D01*
X026577Y007916D02*
X029605Y007916D01*
X029605Y008074D02*
X026735Y008074D01*
X026894Y008233D02*
X029605Y008233D01*
X029605Y008391D02*
X027053Y008391D01*
X027211Y008550D02*
X029605Y008550D01*
X029605Y008708D02*
X027370Y008708D01*
X027528Y008867D02*
X029605Y008867D01*
X029605Y009026D02*
X027687Y009026D01*
X027817Y009184D02*
X029605Y009184D01*
X029605Y009343D02*
X027883Y009343D01*
X027924Y009501D02*
X029605Y009501D01*
X029605Y009660D02*
X027924Y009660D01*
X027924Y009818D02*
X029605Y009818D01*
X029605Y009977D02*
X027924Y009977D01*
X027924Y010135D02*
X029605Y010135D01*
X029605Y010294D02*
X027924Y010294D01*
X027924Y010452D02*
X029605Y010452D01*
X029605Y010611D02*
X027924Y010611D01*
X027924Y010770D02*
X029605Y010770D01*
X029605Y010928D02*
X027924Y010928D01*
X027924Y011087D02*
X029605Y011087D01*
X029605Y011245D02*
X027924Y011245D01*
X027924Y011404D02*
X029605Y011404D01*
X029605Y011562D02*
X027874Y011562D01*
X027808Y011721D02*
X029605Y011721D01*
X029605Y011879D02*
X027664Y011879D01*
X027421Y012038D02*
X029605Y012038D01*
X029605Y012831D02*
X020911Y012831D01*
X020911Y012793D02*
X020861Y012672D01*
X020911Y012793D02*
X020911Y012924D01*
X020861Y013044D01*
X020803Y013102D01*
X020803Y014225D01*
X020975Y014296D01*
X021109Y014431D01*
X021136Y014383D01*
X021180Y014278D01*
X021217Y014241D01*
X021243Y014195D01*
X021333Y014125D01*
X021413Y014045D01*
X021462Y014025D01*
X021504Y013992D01*
X021613Y013962D01*
X021718Y013919D01*
X021771Y013919D01*
X021822Y013905D01*
X021934Y013919D01*
X022584Y013919D01*
X023804Y013919D01*
X025906Y013919D01*
X026210Y014045D01*
X026444Y014278D01*
X026570Y014583D01*
X026570Y014913D01*
X026444Y015218D01*
X026210Y015451D01*
X025906Y015577D01*
X023804Y015577D01*
X022602Y015577D01*
X022597Y015583D01*
X022585Y015611D01*
X022489Y015707D01*
X022401Y015809D01*
X022374Y015823D01*
X022239Y015957D01*
X022239Y015959D01*
X022239Y016094D01*
X022227Y016122D01*
X022225Y016152D01*
X022165Y016273D01*
X022113Y016399D01*
X022091Y016420D01*
X022078Y016447D01*
X021976Y016536D01*
X021880Y016632D01*
X021851Y016644D01*
X021829Y016663D01*
X021700Y016706D01*
X021575Y016758D01*
X021545Y016758D01*
X021516Y016768D01*
X021381Y016758D01*
X020526Y016758D01*
X020424Y016773D01*
X020363Y016758D01*
X020300Y016758D01*
X020277Y016749D01*
X020334Y016806D01*
X020414Y016998D01*
X020414Y017207D01*
X020347Y017369D01*
X020349Y017368D01*
X020489Y017404D01*
X020588Y017423D01*
X020733Y017423D01*
X020773Y017423D01*
X021103Y017423D01*
X021407Y017549D01*
X021442Y017584D01*
X021643Y017667D01*
X021734Y017758D01*
X021801Y017785D01*
X022313Y018297D01*
X022546Y018530D01*
X022593Y018643D01*
X022820Y018643D01*
X023765Y018643D01*
X025441Y018643D01*
X025536Y018604D01*
X025866Y018604D01*
X026171Y018730D01*
X026404Y018963D01*
X026530Y019268D01*
X026530Y019598D01*
X026404Y019903D01*
X026132Y020175D01*
X025827Y020301D01*
X025497Y020301D01*
X023765Y020301D01*
X022820Y020301D01*
X021757Y020301D01*
X021452Y020175D01*
X021219Y019942D01*
X021150Y019774D01*
X021108Y019832D01*
X021045Y019895D01*
X020973Y019947D01*
X020894Y019987D01*
X020810Y020014D01*
X020726Y020028D01*
X020726Y019513D01*
X020630Y019513D01*
X020630Y020028D01*
X020546Y020014D01*
X020461Y019987D01*
X020382Y019947D01*
X020310Y019895D01*
X020248Y019832D01*
X020196Y019760D01*
X020155Y019681D01*
X020128Y019597D01*
X020114Y019513D01*
X020630Y019513D01*
X020630Y019417D01*
X020158Y019417D01*
X019872Y019703D01*
X019837Y019737D01*
X019837Y019913D01*
X019711Y020218D01*
X019478Y020451D01*
X019173Y020577D01*
X018983Y020577D01*
X018951Y020581D01*
X029605Y020581D01*
X029605Y001356D01*
X009986Y001356D01*
X009986Y020581D01*
X013643Y020581D01*
X013607Y020577D01*
X012859Y020577D01*
X012555Y020451D01*
X012321Y020218D01*
X012282Y020178D01*
X012156Y019874D01*
X012156Y019544D01*
X012156Y019229D01*
X012156Y018048D01*
X012156Y016312D01*
X011534Y015690D01*
X011408Y015385D01*
X011408Y015056D01*
X011534Y014751D01*
X011767Y014518D01*
X012072Y014391D01*
X012402Y014391D01*
X012706Y014518D01*
X013454Y015266D01*
X013688Y015499D01*
X013814Y015804D01*
X013814Y016000D01*
X013814Y018048D01*
X013814Y018919D01*
X013819Y018919D01*
X013864Y018938D01*
X015079Y019077D01*
X016245Y019077D01*
X016495Y019077D01*
X016337Y018918D01*
X016211Y018614D01*
X016211Y018377D01*
X016211Y018048D01*
X016337Y017743D01*
X017397Y016683D01*
X018621Y015460D01*
X018896Y015184D01*
X019129Y014951D01*
X019434Y014825D01*
X019788Y014825D01*
X020118Y014825D01*
X020154Y014839D01*
X020154Y014636D01*
X020234Y014443D01*
X020363Y014314D01*
X020363Y013102D01*
X020305Y013044D01*
X020363Y013148D02*
X015291Y013148D01*
X015291Y013306D02*
X018175Y013306D01*
X018193Y013289D02*
X018313Y013239D01*
X018444Y013239D01*
X018564Y013289D01*
X018657Y013381D01*
X018707Y013502D01*
X018707Y013632D01*
X018657Y013753D01*
X018579Y013831D01*
X018579Y014555D01*
X018461Y014672D01*
X017693Y015441D01*
X017693Y015469D01*
X017564Y015598D01*
X017382Y015598D01*
X015210Y015598D01*
X015141Y015611D01*
X015122Y015598D01*
X015098Y015598D01*
X015049Y015548D01*
X014990Y015508D01*
X014986Y015485D01*
X014970Y015469D01*
X014970Y015398D01*
X014868Y014855D01*
X014851Y014839D01*
X014851Y014769D01*
X014838Y014699D01*
X014851Y014680D01*
X014851Y010007D01*
X014674Y010007D01*
X014674Y010095D01*
X014592Y010177D01*
X013326Y010177D01*
X013244Y010095D01*
X013244Y009479D01*
X013326Y009397D01*
X014592Y009397D01*
X014674Y009479D01*
X014674Y009567D01*
X014980Y009567D01*
X015163Y009567D01*
X015291Y009696D01*
X015291Y014728D01*
X015372Y015158D01*
X015703Y015158D01*
X015703Y014336D01*
X015785Y014254D01*
X016137Y014254D01*
X016211Y014328D01*
X016285Y014254D01*
X016637Y014254D01*
X016687Y014304D01*
X016699Y014283D01*
X016733Y014250D01*
X016774Y014226D01*
X016819Y014214D01*
X016961Y014214D01*
X016961Y014748D01*
X016961Y014748D01*
X016961Y014214D01*
X017103Y014214D01*
X017149Y014226D01*
X017190Y014250D01*
X017223Y014283D01*
X017235Y014304D01*
X017285Y014254D01*
X017637Y014254D01*
X017719Y014336D01*
X017719Y014849D01*
X018179Y014390D01*
X018179Y013831D01*
X018100Y013753D01*
X018050Y013632D01*
X018050Y013502D01*
X018100Y013381D01*
X018193Y013289D01*
X018066Y013465D02*
X015291Y013465D01*
X015291Y013623D02*
X018050Y013623D01*
X018130Y013782D02*
X015291Y013782D01*
X015291Y013940D02*
X018179Y013940D01*
X018179Y014099D02*
X015291Y014099D01*
X015291Y014257D02*
X015781Y014257D01*
X015703Y014416D02*
X015291Y014416D01*
X015291Y014575D02*
X015703Y014575D01*
X015703Y014733D02*
X015292Y014733D01*
X015322Y014892D02*
X015703Y014892D01*
X015703Y015050D02*
X015352Y015050D01*
X015190Y015378D02*
X015071Y014748D01*
X015071Y009787D01*
X013959Y009787D01*
X014634Y010135D02*
X014851Y010135D01*
X014851Y010294D02*
X009986Y010294D01*
X009986Y010452D02*
X014851Y010452D01*
X014851Y010611D02*
X012269Y010611D01*
X012269Y010584D02*
X012269Y012050D01*
X012187Y012132D01*
X011421Y012132D01*
X011339Y012050D01*
X011339Y010584D01*
X011421Y010502D01*
X012187Y010502D01*
X012269Y010584D01*
X012269Y010770D02*
X014851Y010770D01*
X014851Y010928D02*
X012269Y010928D01*
X012269Y011087D02*
X014851Y011087D01*
X014851Y011245D02*
X012269Y011245D01*
X012269Y011404D02*
X014851Y011404D01*
X014851Y011562D02*
X012269Y011562D01*
X012269Y011721D02*
X014851Y011721D01*
X014851Y011879D02*
X012269Y011879D01*
X012269Y012038D02*
X014851Y012038D01*
X014851Y012196D02*
X009986Y012196D01*
X009986Y012038D02*
X011339Y012038D01*
X011339Y011879D02*
X009986Y011879D01*
X009986Y011721D02*
X011339Y011721D01*
X011339Y011562D02*
X009986Y011562D01*
X009986Y011404D02*
X011339Y011404D01*
X011339Y011245D02*
X009986Y011245D01*
X009986Y011087D02*
X011339Y011087D01*
X011339Y010928D02*
X009986Y010928D01*
X009986Y010770D02*
X011339Y010770D01*
X011339Y010611D02*
X009986Y010611D01*
X009986Y010135D02*
X013284Y010135D01*
X013244Y009977D02*
X009986Y009977D01*
X009986Y009818D02*
X013244Y009818D01*
X013244Y009660D02*
X009986Y009660D01*
X009986Y009501D02*
X013244Y009501D01*
X013244Y008867D02*
X009986Y008867D01*
X009986Y008708D02*
X013244Y008708D01*
X013244Y008550D02*
X009986Y008550D01*
X009986Y008391D02*
X013244Y008391D01*
X013309Y008233D02*
X009986Y008233D01*
X009986Y007757D02*
X011339Y007757D01*
X011339Y007599D02*
X009986Y007599D01*
X009986Y007440D02*
X011339Y007440D01*
X011339Y007282D02*
X009986Y007282D01*
X009986Y007123D02*
X011339Y007123D01*
X011339Y006964D02*
X009986Y006964D01*
X009986Y006806D02*
X011339Y006806D01*
X011339Y006647D02*
X009986Y006647D01*
X009986Y006489D02*
X011339Y006489D01*
X011352Y006330D02*
X009986Y006330D01*
X009986Y004903D02*
X015351Y004903D01*
X015351Y004745D02*
X009986Y004745D01*
X009986Y004269D02*
X021447Y004269D01*
X021447Y004111D02*
X009986Y004111D01*
X009986Y003952D02*
X019833Y003952D01*
X019839Y003963D02*
X019815Y003922D01*
X019803Y003876D01*
X019803Y003556D01*
X020279Y003556D01*
X020279Y003499D01*
X019803Y003499D01*
X019803Y003179D01*
X019815Y003133D01*
X019839Y003092D01*
X019872Y003059D01*
X019913Y003035D01*
X019959Y003023D01*
X020279Y003023D01*
X020279Y003499D01*
X020336Y003499D01*
X020336Y003023D01*
X020656Y003023D01*
X020702Y003035D01*
X020743Y003059D01*
X020777Y003092D01*
X020800Y003133D01*
X020812Y003179D01*
X020812Y003499D01*
X020336Y003499D01*
X020336Y003556D01*
X020279Y003556D01*
X020279Y004032D01*
X019959Y004032D01*
X019913Y004020D01*
X019872Y003996D01*
X019839Y003963D01*
X019803Y003794D02*
X018113Y003794D01*
X018168Y003771D02*
X017909Y003878D01*
X017628Y003878D01*
X017369Y003771D01*
X017171Y003573D01*
X017063Y003313D01*
X017063Y003033D01*
X017171Y002774D01*
X017369Y002576D01*
X017628Y002468D01*
X017909Y002468D01*
X018168Y002576D01*
X018366Y002774D01*
X018473Y003033D01*
X018473Y003313D01*
X018366Y003573D01*
X018168Y003771D01*
X018303Y003635D02*
X019803Y003635D01*
X019803Y003477D02*
X018406Y003477D01*
X018471Y003318D02*
X019803Y003318D01*
X019808Y003159D02*
X018473Y003159D01*
X018460Y003001D02*
X021483Y003001D01*
X021447Y003159D02*
X020807Y003159D01*
X020812Y003318D02*
X021447Y003318D01*
X021447Y003477D02*
X020812Y003477D01*
X020812Y003556D02*
X020336Y003556D01*
X020336Y004032D01*
X020656Y004032D01*
X020702Y004020D01*
X020743Y003996D01*
X020777Y003963D01*
X020800Y003922D01*
X020812Y003876D01*
X020812Y003556D01*
X020812Y003635D02*
X021447Y003635D01*
X021447Y003794D02*
X020812Y003794D01*
X020783Y003952D02*
X021447Y003952D01*
X020336Y003952D02*
X020279Y003952D01*
X020279Y003794D02*
X020336Y003794D01*
X020336Y003635D02*
X020279Y003635D01*
X020279Y003477D02*
X020336Y003477D01*
X020336Y003318D02*
X020279Y003318D01*
X020279Y003159D02*
X020336Y003159D01*
X021549Y002842D02*
X018394Y002842D01*
X018276Y002684D02*
X021672Y002684D01*
X021831Y002525D02*
X018046Y002525D01*
X017490Y002525D02*
X015172Y002525D01*
X015294Y002576D02*
X015492Y002774D01*
X015599Y003033D01*
X015599Y003313D01*
X015492Y003573D01*
X015294Y003771D01*
X015035Y003878D01*
X014754Y003878D01*
X014495Y003771D01*
X014297Y003573D01*
X014189Y003313D01*
X014189Y003033D01*
X014297Y002774D01*
X014495Y002576D01*
X014754Y002468D01*
X015035Y002468D01*
X015294Y002576D01*
X015402Y002684D02*
X017261Y002684D01*
X017142Y002842D02*
X015520Y002842D01*
X015586Y003001D02*
X017077Y003001D01*
X017063Y003159D02*
X015599Y003159D01*
X015597Y003318D02*
X017065Y003318D01*
X017131Y003477D02*
X015532Y003477D01*
X015429Y003635D02*
X017233Y003635D01*
X017424Y003794D02*
X015239Y003794D01*
X014550Y003794D02*
X009986Y003794D01*
X009986Y003635D02*
X014359Y003635D01*
X014257Y003477D02*
X009986Y003477D01*
X009986Y003318D02*
X014191Y003318D01*
X014189Y003159D02*
X009986Y003159D01*
X009986Y003001D02*
X010792Y003001D01*
X010759Y002987D02*
X010572Y002801D01*
X010471Y002557D01*
X010471Y002293D01*
X010572Y002050D01*
X009986Y002050D01*
X009986Y002208D02*
X010507Y002208D01*
X010471Y002367D02*
X009986Y002367D01*
X009986Y002525D02*
X010471Y002525D01*
X010524Y002684D02*
X009986Y002684D01*
X009986Y002842D02*
X010614Y002842D01*
X010759Y002987D02*
X011003Y003088D01*
X011266Y003088D01*
X011510Y002987D01*
X011697Y002801D01*
X011798Y002557D01*
X011798Y002293D01*
X011697Y002050D01*
X027895Y002050D01*
X028082Y001863D01*
X028325Y001762D01*
X028589Y001762D01*
X028833Y001863D01*
X029019Y002050D01*
X029605Y002050D01*
X029605Y002208D02*
X029085Y002208D01*
X029120Y002293D02*
X029019Y002050D01*
X028861Y001891D02*
X029605Y001891D01*
X029605Y001733D02*
X009986Y001733D01*
X009986Y001891D02*
X010731Y001891D01*
X010759Y001863D02*
X010572Y002050D01*
X010759Y001863D02*
X011003Y001762D01*
X011266Y001762D01*
X011510Y001863D01*
X011697Y002050D01*
X011762Y002208D02*
X027829Y002208D01*
X027794Y002293D02*
X027794Y002557D01*
X027895Y002801D01*
X028082Y002987D01*
X028325Y003088D01*
X028589Y003088D01*
X028833Y002987D01*
X029019Y002801D01*
X029120Y002557D01*
X029120Y002293D01*
X029120Y002367D02*
X029605Y002367D01*
X029605Y002525D02*
X029120Y002525D01*
X029068Y002684D02*
X029605Y002684D01*
X029605Y002842D02*
X028978Y002842D01*
X028800Y003001D02*
X029605Y003001D01*
X029605Y003159D02*
X026958Y003159D01*
X027024Y003318D02*
X029605Y003318D01*
X029605Y003477D02*
X027042Y003477D01*
X027042Y003635D02*
X029605Y003635D01*
X029605Y003794D02*
X027042Y003794D01*
X027042Y003952D02*
X029605Y003952D01*
X029605Y004111D02*
X027042Y004111D01*
X027042Y004269D02*
X029605Y004269D01*
X029605Y004428D02*
X027042Y004428D01*
X027042Y004586D02*
X029605Y004586D01*
X029605Y004745D02*
X027042Y004745D01*
X027042Y004903D02*
X029605Y004903D01*
X029605Y005062D02*
X027042Y005062D01*
X027042Y005221D02*
X029605Y005221D01*
X029605Y005379D02*
X027190Y005379D01*
X027348Y005538D02*
X029605Y005538D01*
X029605Y005696D02*
X027507Y005696D01*
X027665Y005855D02*
X029605Y005855D01*
X029605Y006013D02*
X027824Y006013D01*
X027980Y006172D02*
X029605Y006172D01*
X029605Y006330D02*
X028046Y006330D01*
X028105Y006489D02*
X029605Y006489D01*
X029605Y006647D02*
X028105Y006647D01*
X028104Y006806D02*
X029605Y006806D01*
X029605Y006964D02*
X028038Y006964D01*
X027963Y007123D02*
X029605Y007123D01*
X029605Y007282D02*
X027805Y007282D01*
X027505Y007440D02*
X029605Y007440D01*
X027276Y006638D02*
X026607Y005969D01*
X026568Y005969D01*
X026253Y005417D02*
X026253Y004669D01*
X026213Y004630D01*
X026233Y004630D01*
X026233Y004610D01*
X026213Y004591D01*
X025384Y004586D02*
X023248Y004586D01*
X023105Y004428D02*
X025384Y004428D01*
X025384Y004269D02*
X023105Y004269D01*
X023105Y004111D02*
X025384Y004111D01*
X025384Y003952D02*
X024720Y003952D01*
X024714Y003963D02*
X024680Y003996D01*
X024639Y004020D01*
X024593Y004032D01*
X024273Y004032D01*
X024273Y003556D01*
X024216Y003556D01*
X024216Y003499D01*
X023740Y003499D01*
X023740Y003179D01*
X023752Y003133D01*
X023776Y003092D01*
X023809Y003059D01*
X023850Y003035D01*
X023896Y003023D01*
X024216Y003023D01*
X024216Y003499D01*
X024273Y003499D01*
X024273Y003023D01*
X024593Y003023D01*
X024639Y003035D01*
X024680Y003059D01*
X024714Y003092D01*
X024737Y003133D01*
X024749Y003179D01*
X024749Y003499D01*
X024273Y003499D01*
X024273Y003556D01*
X024749Y003556D01*
X024749Y003876D01*
X024737Y003922D01*
X024714Y003963D01*
X024749Y003794D02*
X025384Y003794D01*
X025384Y003635D02*
X024749Y003635D01*
X024749Y003477D02*
X025384Y003477D01*
X025403Y003318D02*
X024749Y003318D01*
X024744Y003159D02*
X025468Y003159D01*
X025567Y003001D02*
X023125Y003001D01*
X023145Y003159D02*
X023745Y003159D01*
X023740Y003318D02*
X023145Y003318D01*
X023105Y003477D02*
X023740Y003477D01*
X023740Y003556D02*
X024216Y003556D01*
X024216Y004032D01*
X023896Y004032D01*
X023850Y004020D01*
X023809Y003996D01*
X023776Y003963D01*
X023752Y003922D01*
X023740Y003876D01*
X023740Y003556D01*
X023740Y003635D02*
X023105Y003635D01*
X023105Y003794D02*
X023740Y003794D01*
X023770Y003952D02*
X023105Y003952D01*
X024216Y003952D02*
X024273Y003952D01*
X024273Y003794D02*
X024216Y003794D01*
X024216Y003635D02*
X024273Y003635D01*
X024273Y003477D02*
X024216Y003477D01*
X024216Y003318D02*
X024273Y003318D01*
X024273Y003159D02*
X024216Y003159D01*
X023059Y002842D02*
X025726Y002842D01*
X026700Y002842D02*
X027937Y002842D01*
X027847Y002684D02*
X022959Y002684D01*
X022801Y002525D02*
X027794Y002525D01*
X027794Y002367D02*
X011798Y002367D01*
X011798Y002525D02*
X014616Y002525D01*
X014387Y002684D02*
X011745Y002684D01*
X011655Y002842D02*
X014268Y002842D01*
X014203Y003001D02*
X011477Y003001D01*
X011538Y001891D02*
X028054Y001891D01*
X027895Y002050D02*
X027794Y002293D01*
X028115Y003001D02*
X026859Y003001D01*
X029605Y001574D02*
X009986Y001574D01*
X009986Y001415D02*
X029605Y001415D01*
X025342Y009026D02*
X023833Y009026D01*
X023674Y009184D02*
X025501Y009184D01*
X025659Y009343D02*
X023516Y009343D01*
X023357Y009501D02*
X025818Y009501D01*
X025976Y009660D02*
X023199Y009660D01*
X023040Y009818D02*
X026135Y009818D01*
X026266Y009977D02*
X022881Y009977D01*
X022723Y010135D02*
X026266Y010135D01*
X026266Y010294D02*
X022564Y010294D01*
X022492Y010452D02*
X026266Y010452D01*
X026266Y010611D02*
X022492Y010611D01*
X022492Y010770D02*
X026266Y010770D01*
X026266Y010928D02*
X022685Y010928D01*
X022781Y011087D02*
X026266Y011087D01*
X026266Y011245D02*
X022816Y011245D01*
X022806Y011404D02*
X026266Y011404D01*
X026317Y011562D02*
X022740Y011562D01*
X022586Y011721D02*
X026382Y011721D01*
X025957Y013940D02*
X029605Y013940D01*
X029605Y013782D02*
X020803Y013782D01*
X020803Y013940D02*
X021666Y013940D01*
X021359Y014099D02*
X020803Y014099D01*
X020881Y014257D02*
X021201Y014257D01*
X021118Y014416D02*
X021094Y014416D01*
X020678Y014740D02*
X020583Y014646D01*
X020583Y012858D01*
X020884Y012989D02*
X029605Y012989D01*
X029605Y013148D02*
X020803Y013148D01*
X020803Y013306D02*
X029605Y013306D01*
X029605Y013465D02*
X020803Y013465D01*
X020803Y013623D02*
X029605Y013623D01*
X029605Y014099D02*
X026264Y014099D01*
X026423Y014257D02*
X029605Y014257D01*
X029605Y014416D02*
X026501Y014416D01*
X026566Y014575D02*
X029605Y014575D01*
X029605Y014733D02*
X026570Y014733D01*
X026570Y014892D02*
X029605Y014892D01*
X029605Y015050D02*
X026513Y015050D01*
X026447Y015209D02*
X029605Y015209D01*
X029605Y015367D02*
X026294Y015367D01*
X026029Y015526D02*
X029605Y015526D01*
X029605Y015684D02*
X022512Y015684D01*
X022354Y015843D02*
X029605Y015843D01*
X029605Y016001D02*
X022239Y016001D01*
X022221Y016160D02*
X029605Y016160D01*
X029605Y016319D02*
X022146Y016319D01*
X022043Y016477D02*
X029605Y016477D01*
X029605Y016636D02*
X021871Y016636D01*
X021449Y017587D02*
X029605Y017587D01*
X029605Y017745D02*
X021722Y017745D01*
X021919Y017904D02*
X029605Y017904D01*
X029605Y018063D02*
X022078Y018063D01*
X022237Y018221D02*
X029605Y018221D01*
X029605Y018380D02*
X022395Y018380D01*
X022549Y018538D02*
X029605Y018538D01*
X029605Y018697D02*
X028602Y018697D01*
X028589Y018691D02*
X028833Y018792D01*
X029019Y018979D01*
X029120Y019222D01*
X029120Y019486D01*
X029019Y019730D01*
X028833Y019916D01*
X028589Y020017D01*
X028325Y020017D01*
X028082Y019916D01*
X027895Y019730D01*
X027794Y019486D01*
X027794Y019222D01*
X027895Y018979D01*
X028082Y018792D01*
X028325Y018691D01*
X028589Y018691D01*
X028312Y018697D02*
X026090Y018697D01*
X026296Y018855D02*
X028019Y018855D01*
X027881Y019014D02*
X026425Y019014D01*
X026491Y019172D02*
X027815Y019172D01*
X027794Y019331D02*
X026530Y019331D01*
X026530Y019489D02*
X027796Y019489D01*
X027861Y019648D02*
X026510Y019648D01*
X026444Y019806D02*
X027972Y019806D01*
X028199Y019965D02*
X026342Y019965D01*
X026183Y020124D02*
X029605Y020124D01*
X029605Y020282D02*
X025873Y020282D01*
X025701Y019433D02*
X025505Y019236D01*
X024717Y019236D01*
X024757Y019276D01*
X024757Y019669D01*
X022985Y019512D02*
X022985Y019472D01*
X021711Y020282D02*
X019647Y020282D01*
X019750Y020124D02*
X021401Y020124D01*
X021242Y019965D02*
X020937Y019965D01*
X020726Y019965D02*
X020630Y019965D01*
X020630Y019806D02*
X020726Y019806D01*
X020726Y019648D02*
X020630Y019648D01*
X020630Y019489D02*
X020085Y019489D01*
X020145Y019648D02*
X019927Y019648D01*
X019837Y019806D02*
X020229Y019806D01*
X020418Y019965D02*
X019816Y019965D01*
X019488Y020441D02*
X029605Y020441D01*
X029605Y019965D02*
X028716Y019965D01*
X028943Y019806D02*
X029605Y019806D01*
X029605Y019648D02*
X029053Y019648D01*
X029119Y019489D02*
X029605Y019489D01*
X029605Y019331D02*
X029120Y019331D01*
X029100Y019172D02*
X029605Y019172D01*
X029605Y019014D02*
X029034Y019014D01*
X028896Y018855D02*
X029605Y018855D01*
X029605Y017428D02*
X021115Y017428D01*
X020388Y017270D02*
X029605Y017270D01*
X029605Y017111D02*
X020414Y017111D01*
X020395Y016953D02*
X029605Y016953D01*
X029605Y016794D02*
X020323Y016794D01*
X020465Y015929D02*
X020465Y015772D01*
X020505Y015811D01*
X019402Y016008D02*
X019323Y015929D01*
X019402Y016008D02*
X018733Y016677D01*
X018536Y016677D01*
X017920Y016160D02*
X013814Y016160D01*
X013814Y016001D02*
X018079Y016001D01*
X018237Y015843D02*
X013814Y015843D01*
X013764Y015684D02*
X018396Y015684D01*
X018554Y015526D02*
X017636Y015526D01*
X017767Y015367D02*
X018713Y015367D01*
X018871Y015209D02*
X017925Y015209D01*
X018084Y015050D02*
X019030Y015050D01*
X019272Y014892D02*
X018242Y014892D01*
X018401Y014733D02*
X020154Y014733D01*
X020179Y014575D02*
X018559Y014575D01*
X018579Y014416D02*
X020261Y014416D01*
X020363Y014257D02*
X018579Y014257D01*
X018579Y014099D02*
X020363Y014099D01*
X020363Y013940D02*
X018579Y013940D01*
X018628Y013782D02*
X020363Y013782D01*
X020363Y013623D02*
X018707Y013623D01*
X018691Y013465D02*
X020363Y013465D01*
X020363Y013306D02*
X018582Y013306D01*
X017719Y012831D02*
X020255Y012831D01*
X020306Y012672D02*
X017719Y012672D01*
X017719Y012196D02*
X017939Y012196D01*
X018097Y012038D02*
X017705Y012038D01*
X017575Y011879D02*
X018256Y011879D01*
X018414Y011721D02*
X017575Y011721D01*
X017575Y011562D02*
X018573Y011562D01*
X018731Y011404D02*
X018277Y011404D01*
X018322Y011245D02*
X018890Y011245D01*
X019048Y011087D02*
X018322Y011087D01*
X018322Y010928D02*
X019207Y010928D01*
X019366Y010770D02*
X018303Y010770D01*
X018282Y010611D02*
X019524Y010611D01*
X019683Y010452D02*
X018282Y010452D01*
X018282Y010294D02*
X019841Y010294D01*
X020000Y010135D02*
X018282Y010135D01*
X017964Y011087D02*
X017927Y011087D01*
X017927Y011245D02*
X017964Y011245D01*
X017964Y011404D02*
X017927Y011404D01*
X017614Y011404D02*
X017575Y011404D01*
X015718Y011404D02*
X015291Y011404D01*
X015291Y011562D02*
X015718Y011562D01*
X015718Y011721D02*
X015291Y011721D01*
X015291Y011879D02*
X015718Y011879D01*
X015718Y011245D02*
X015291Y011245D01*
X015291Y011087D02*
X015718Y011087D01*
X015718Y010928D02*
X015291Y010928D01*
X015291Y010770D02*
X015718Y010770D01*
X015718Y010611D02*
X015291Y010611D01*
X015291Y010452D02*
X015718Y010452D01*
X015718Y010294D02*
X015291Y010294D01*
X015291Y010135D02*
X015718Y010135D01*
X015718Y009977D02*
X015291Y009977D01*
X015291Y009818D02*
X015657Y009818D01*
X015499Y009660D02*
X015255Y009660D01*
X015340Y009501D02*
X014674Y009501D01*
X015023Y009184D02*
X009986Y009184D01*
X009986Y009026D02*
X014891Y009026D01*
X014891Y008867D02*
X014674Y008867D01*
X014674Y008708D02*
X014891Y008708D01*
X014891Y008550D02*
X014674Y008550D01*
X014674Y008391D02*
X014891Y008391D01*
X014891Y008233D02*
X014608Y008233D01*
X013959Y008341D02*
X013959Y008606D01*
X015182Y009343D02*
X009986Y009343D01*
X009986Y012355D02*
X014851Y012355D01*
X014851Y012514D02*
X009986Y012514D01*
X009986Y012672D02*
X014851Y012672D01*
X014851Y012831D02*
X012434Y012831D01*
X012500Y012858D02*
X012631Y012989D01*
X014851Y012989D01*
X014851Y013148D02*
X012697Y013148D01*
X012702Y013159D02*
X012631Y012989D01*
X012702Y013159D02*
X012702Y013344D01*
X012631Y013515D01*
X012500Y013646D01*
X012329Y013717D01*
X012144Y013717D01*
X011974Y013646D01*
X011843Y013515D01*
X011772Y013344D01*
X011772Y013159D01*
X011843Y012989D01*
X009986Y012989D01*
X009986Y012831D02*
X012039Y012831D01*
X011974Y012858D02*
X012144Y012787D01*
X012329Y012787D01*
X012500Y012858D01*
X012702Y013306D02*
X014851Y013306D01*
X014851Y013465D02*
X012652Y013465D01*
X012523Y013623D02*
X014851Y013623D01*
X014851Y013782D02*
X009986Y013782D01*
X009986Y013940D02*
X014851Y013940D01*
X014851Y014099D02*
X009986Y014099D01*
X009986Y014257D02*
X014851Y014257D01*
X014851Y014416D02*
X012461Y014416D01*
X012763Y014575D02*
X014851Y014575D01*
X014845Y014733D02*
X012922Y014733D01*
X013080Y014892D02*
X014875Y014892D01*
X014904Y015050D02*
X013239Y015050D01*
X013397Y015209D02*
X014934Y015209D01*
X014964Y015367D02*
X013556Y015367D01*
X013699Y015526D02*
X015016Y015526D01*
X015190Y015378D02*
X017473Y015378D01*
X017473Y014760D01*
X017461Y014748D01*
X017719Y014733D02*
X017835Y014733D01*
X017719Y014575D02*
X017994Y014575D01*
X018152Y014416D02*
X017719Y014416D01*
X017641Y014257D02*
X018179Y014257D01*
X017281Y014257D02*
X017198Y014257D01*
X016961Y014257D02*
X016961Y014257D01*
X016961Y014416D02*
X016961Y014416D01*
X016961Y014575D02*
X016961Y014575D01*
X016961Y014733D02*
X016961Y014733D01*
X016461Y014748D02*
X015961Y014748D01*
X016141Y014257D02*
X016281Y014257D01*
X016641Y014257D02*
X016725Y014257D01*
X017762Y016319D02*
X013814Y016319D01*
X013814Y016477D02*
X017603Y016477D01*
X017445Y016636D02*
X013814Y016636D01*
X013814Y016794D02*
X017286Y016794D01*
X017127Y016953D02*
X013814Y016953D01*
X013814Y017111D02*
X016969Y017111D01*
X016810Y017270D02*
X013814Y017270D01*
X013814Y017428D02*
X016652Y017428D01*
X016493Y017587D02*
X013814Y017587D01*
X013814Y017745D02*
X016336Y017745D01*
X016271Y017904D02*
X013814Y017904D01*
X013814Y018063D02*
X014744Y018063D01*
X014743Y018064D02*
X014807Y018017D01*
X014878Y017981D01*
X014953Y017956D01*
X015032Y017944D01*
X015043Y017944D01*
X015043Y018420D01*
X015100Y018420D01*
X015100Y017944D01*
X015111Y017944D01*
X015190Y017956D01*
X015265Y017981D01*
X015336Y018017D01*
X015400Y018064D01*
X015456Y018120D01*
X015503Y018184D01*
X015539Y018255D01*
X015564Y018331D01*
X015576Y018409D01*
X015576Y018420D01*
X015100Y018420D01*
X015100Y018477D01*
X015576Y018477D01*
X015576Y018489D01*
X015564Y018567D01*
X015539Y018643D01*
X015503Y018713D01*
X015456Y018778D01*
X015400Y018834D01*
X015336Y018881D01*
X015265Y018917D01*
X015190Y018941D01*
X015111Y018954D01*
X015100Y018954D01*
X015100Y018477D01*
X015043Y018477D01*
X015043Y018420D01*
X014567Y018420D01*
X014567Y018409D01*
X014579Y018331D01*
X014604Y018255D01*
X014640Y018184D01*
X014686Y018120D01*
X014743Y018064D01*
X014621Y018221D02*
X013814Y018221D01*
X013814Y018380D02*
X014571Y018380D01*
X014567Y018477D02*
X015043Y018477D01*
X015043Y018954D01*
X015032Y018954D01*
X014953Y018941D01*
X014878Y018917D01*
X014807Y018881D01*
X014743Y018834D01*
X014686Y018778D01*
X014640Y018713D01*
X014604Y018643D01*
X014579Y018567D01*
X014567Y018489D01*
X014567Y018477D01*
X014575Y018538D02*
X013814Y018538D01*
X013814Y018697D02*
X014631Y018697D01*
X014772Y018855D02*
X013814Y018855D01*
X014530Y019014D02*
X016433Y019014D01*
X016311Y018855D02*
X015371Y018855D01*
X015512Y018697D02*
X016245Y018697D01*
X016211Y018538D02*
X015568Y018538D01*
X015572Y018380D02*
X016211Y018380D01*
X016211Y018221D02*
X015522Y018221D01*
X015399Y018063D02*
X016211Y018063D01*
X015100Y018063D02*
X015043Y018063D01*
X015043Y018221D02*
X015100Y018221D01*
X015100Y018380D02*
X015043Y018380D01*
X015043Y018538D02*
X015100Y018538D01*
X015100Y018697D02*
X015043Y018697D01*
X015043Y018855D02*
X015100Y018855D01*
X014993Y019827D02*
X015032Y019906D01*
X016410Y019906D02*
X016410Y019827D01*
X016410Y019787D01*
X017591Y019827D02*
X017709Y019906D01*
X017591Y019866D02*
X017591Y019827D01*
X018890Y019787D02*
X018930Y019748D01*
X019442Y019039D02*
X019402Y019000D01*
X019442Y019039D02*
X019520Y019039D01*
X019914Y018567D02*
X020032Y018528D01*
X020898Y018252D02*
X021410Y018764D01*
X021646Y018764D01*
X021163Y019806D02*
X021126Y019806D01*
X017867Y017386D02*
X017827Y017386D01*
X013654Y019748D02*
X013654Y020024D01*
X012985Y019394D02*
X013024Y019354D01*
X013024Y019315D01*
X013024Y018803D01*
X012985Y018213D02*
X013024Y018173D01*
X013024Y016913D01*
X012946Y016992D01*
X012946Y017071D01*
X012156Y017111D02*
X009986Y017111D01*
X009986Y016953D02*
X012156Y016953D01*
X012156Y016794D02*
X009986Y016794D01*
X009986Y016636D02*
X012156Y016636D01*
X012156Y016477D02*
X009986Y016477D01*
X009986Y016319D02*
X012156Y016319D01*
X012004Y016160D02*
X009986Y016160D01*
X009986Y016001D02*
X011845Y016001D01*
X011687Y015843D02*
X009986Y015843D01*
X009986Y015684D02*
X011532Y015684D01*
X011466Y015526D02*
X009986Y015526D01*
X009986Y015367D02*
X011408Y015367D01*
X011408Y015209D02*
X009986Y015209D01*
X009986Y015050D02*
X011410Y015050D01*
X011476Y014892D02*
X009986Y014892D01*
X009986Y014733D02*
X011552Y014733D01*
X011710Y014575D02*
X009986Y014575D01*
X009986Y014416D02*
X012013Y014416D01*
X011951Y013623D02*
X009986Y013623D01*
X009986Y013465D02*
X011822Y013465D01*
X011772Y013306D02*
X009986Y013306D01*
X009986Y013148D02*
X011777Y013148D01*
X011843Y012989D02*
X011974Y012858D01*
X012906Y016126D02*
X012946Y016126D01*
X012985Y016165D01*
X012156Y017270D02*
X009986Y017270D01*
X009986Y017428D02*
X012156Y017428D01*
X012156Y017587D02*
X009986Y017587D01*
X009986Y017745D02*
X012156Y017745D01*
X012156Y017904D02*
X009986Y017904D01*
X009986Y018063D02*
X012156Y018063D01*
X012156Y018221D02*
X009986Y018221D01*
X009986Y018380D02*
X012156Y018380D01*
X012156Y018538D02*
X009986Y018538D01*
X009986Y018697D02*
X010989Y018697D01*
X011003Y018691D02*
X011266Y018691D01*
X011510Y018792D01*
X011697Y018979D01*
X011798Y019222D01*
X011798Y019486D01*
X011697Y019730D01*
X011510Y019916D01*
X011266Y020017D01*
X011003Y020017D01*
X010759Y019916D01*
X010572Y019730D01*
X010471Y019486D01*
X010471Y019222D01*
X010572Y018979D01*
X010759Y018792D01*
X011003Y018691D01*
X011279Y018697D02*
X012156Y018697D01*
X012156Y018855D02*
X011573Y018855D01*
X011711Y019014D02*
X012156Y019014D01*
X012156Y019172D02*
X011777Y019172D01*
X011798Y019331D02*
X012156Y019331D01*
X012156Y019489D02*
X011796Y019489D01*
X011731Y019648D02*
X012156Y019648D01*
X012156Y019806D02*
X011620Y019806D01*
X011393Y019965D02*
X012194Y019965D01*
X012259Y020124D02*
X009986Y020124D01*
X009986Y020282D02*
X012386Y020282D01*
X012545Y020441D02*
X009986Y020441D01*
X009986Y019965D02*
X010876Y019965D01*
X010649Y019806D02*
X009986Y019806D01*
X009986Y019648D02*
X010538Y019648D01*
X010473Y019489D02*
X009986Y019489D01*
X009986Y019331D02*
X010471Y019331D01*
X010492Y019172D02*
X009986Y019172D01*
X009986Y019014D02*
X010558Y019014D01*
X010696Y018855D02*
X009986Y018855D01*
X015331Y007599D02*
X015351Y007599D01*
X015351Y007440D02*
X015331Y007440D01*
X015331Y007282D02*
X015351Y007282D01*
X015351Y007123D02*
X015331Y007123D01*
X015331Y006964D02*
X015351Y006964D01*
X015351Y006806D02*
X015331Y006806D01*
X015331Y006647D02*
X015351Y006647D01*
X015331Y006489D02*
X015379Y006489D01*
X015404Y006013D02*
X015331Y006013D01*
X015331Y005855D02*
X015351Y005855D01*
X015351Y005696D02*
X015331Y005696D01*
X016877Y005696D02*
X016967Y005696D01*
X016967Y005538D02*
X016877Y005538D01*
X016877Y005379D02*
X016967Y005379D01*
X016967Y005221D02*
X016877Y005221D01*
X016877Y005062D02*
X016967Y005062D01*
X016967Y004903D02*
X016877Y004903D01*
X016877Y004745D02*
X016967Y004745D01*
X016967Y004586D02*
X016877Y004586D01*
X016877Y005855D02*
X016967Y005855D01*
X016967Y006013D02*
X016877Y006013D01*
X022709Y014669D02*
X022709Y014709D01*
X022749Y014748D01*
X023969Y014748D02*
X024009Y014709D01*
X024009Y014669D01*
D20*
X024009Y014669D03*
X022709Y014669D03*
X021449Y015575D03*
X020505Y015811D03*
X019402Y016008D03*
X018536Y016677D03*
X017827Y017386D03*
X019520Y019039D03*
X020032Y018528D03*
X020898Y018252D03*
X021646Y018764D03*
X022001Y019394D03*
X022985Y019512D03*
X023930Y019472D03*
X024757Y019669D03*
X018890Y019787D03*
X017591Y019866D03*
X016410Y019827D03*
X014993Y019827D03*
X013654Y020024D03*
X013024Y019315D03*
X012985Y018213D03*
X012946Y017071D03*
X012906Y016126D03*
X018379Y013567D03*
X020583Y012858D03*
X025386Y007937D03*
X026331Y008567D03*
X026961Y009394D03*
X027040Y010181D03*
X024520Y007031D03*
X023575Y005969D03*
X022749Y005260D03*
X022316Y004591D03*
X026213Y004630D03*
X026253Y005417D03*
X026568Y005969D03*
X014363Y007937D03*
D21*
X017461Y012465D02*
X017953Y012465D01*
X021505Y008913D01*
X022292Y010283D02*
X025032Y007543D01*
X025367Y007878D02*
X025386Y007898D01*
X025386Y007937D01*
X026331Y008567D02*
X026961Y009197D01*
X026961Y009394D01*
X026883Y009394D01*
X026784Y009295D01*
X027095Y010102D02*
X027040Y010157D01*
X027040Y010181D01*
X023575Y005969D02*
X023497Y005969D01*
X023477Y005988D01*
X022276Y004630D02*
X022316Y004591D01*
X022292Y010283D02*
X022292Y011276D01*
X018379Y013567D02*
X018379Y014472D01*
X017473Y015378D01*
D22*
X019323Y015929D02*
X019599Y015654D01*
X019953Y015654D01*
X020150Y015850D01*
X020465Y015929D01*
X021410Y015929D01*
X021371Y015811D01*
X021371Y015654D01*
X021449Y015575D01*
X021883Y015142D01*
X021843Y015063D01*
X021883Y014748D01*
X022749Y014748D01*
X023969Y014748D01*
X025741Y014748D01*
X027095Y011276D02*
X027095Y010102D01*
X027095Y009606D01*
X026784Y009295D01*
X025367Y007878D01*
X025032Y007543D01*
X024520Y007031D01*
X023477Y005988D01*
X022749Y005260D01*
X022276Y004787D01*
X022276Y004630D01*
X022276Y003252D01*
X022316Y003213D01*
X026213Y003528D02*
X026213Y004591D01*
X026213Y004630D01*
X026213Y005575D01*
X027276Y006638D01*
X019323Y015929D02*
X017867Y017386D01*
X017040Y018213D01*
X017040Y018449D01*
X016410Y019906D02*
X017709Y019906D01*
X018930Y019748D01*
X019009Y019748D01*
X019009Y019394D01*
X019402Y019000D01*
X019717Y018685D01*
X019717Y018646D01*
X019875Y018606D01*
X019914Y018567D01*
X020032Y018449D01*
X020111Y018331D01*
X020308Y018213D01*
X020229Y018331D01*
X020426Y018291D01*
X020308Y018291D01*
X020426Y018291D02*
X020701Y018291D01*
X020741Y018252D01*
X020898Y018252D01*
X020938Y018252D01*
X021056Y018370D01*
X021174Y018370D01*
X021292Y018488D01*
X021331Y018488D01*
X021843Y019000D01*
X021843Y019118D01*
X022001Y019276D01*
X022001Y019394D01*
X021922Y019472D01*
X022985Y019472D01*
X023930Y019472D01*
X025662Y019472D01*
X025701Y019433D01*
X016410Y019906D02*
X015032Y019906D01*
X013654Y019748D01*
X013024Y019748D01*
X012985Y019709D01*
X012985Y019394D01*
X012985Y018213D01*
X012985Y016165D01*
X012985Y015969D01*
X012237Y015220D01*
M02*
