G75*
G70*
%OFA0B0*%
%FSLAX24Y24*%
%IPPOS*%
%LPD*%
%AMOC8*
5,1,8,0,0,1.08239X$1,22.5*
%
%ADD10C,0.0000*%
%ADD11R,0.9843X0.3937*%
%ADD12C,0.0040*%
%ADD13C,0.0050*%
D10*
X007007Y002637D02*
X007007Y024685D01*
X029807Y024685D01*
X029807Y002637D01*
X007007Y002637D01*
X007753Y004215D02*
X007755Y004272D01*
X007761Y004329D01*
X007771Y004385D01*
X007784Y004441D01*
X007802Y004495D01*
X007823Y004548D01*
X007848Y004599D01*
X007876Y004649D01*
X007908Y004696D01*
X007942Y004742D01*
X007980Y004784D01*
X008021Y004824D01*
X008064Y004862D01*
X008110Y004896D01*
X008158Y004926D01*
X008208Y004954D01*
X008260Y004978D01*
X008314Y004998D01*
X008368Y005014D01*
X008424Y005027D01*
X008480Y005036D01*
X008537Y005041D01*
X008594Y005042D01*
X008651Y005039D01*
X008708Y005032D01*
X008764Y005021D01*
X008819Y005007D01*
X008873Y004988D01*
X008926Y004966D01*
X008977Y004941D01*
X009026Y004911D01*
X009073Y004879D01*
X009118Y004843D01*
X009160Y004805D01*
X009199Y004763D01*
X009235Y004719D01*
X009269Y004673D01*
X009299Y004624D01*
X009325Y004574D01*
X009348Y004522D01*
X009367Y004468D01*
X009383Y004413D01*
X009395Y004357D01*
X009403Y004300D01*
X009407Y004244D01*
X009407Y004186D01*
X009403Y004130D01*
X009395Y004073D01*
X009383Y004017D01*
X009367Y003962D01*
X009348Y003908D01*
X009325Y003856D01*
X009299Y003806D01*
X009269Y003757D01*
X009235Y003711D01*
X009199Y003667D01*
X009160Y003625D01*
X009118Y003587D01*
X009073Y003551D01*
X009026Y003519D01*
X008977Y003489D01*
X008926Y003464D01*
X008873Y003442D01*
X008819Y003423D01*
X008764Y003409D01*
X008708Y003398D01*
X008651Y003391D01*
X008594Y003388D01*
X008537Y003389D01*
X008480Y003394D01*
X008424Y003403D01*
X008368Y003416D01*
X008314Y003432D01*
X008260Y003452D01*
X008208Y003476D01*
X008158Y003504D01*
X008110Y003534D01*
X008064Y003568D01*
X008021Y003606D01*
X007980Y003646D01*
X007942Y003688D01*
X007908Y003734D01*
X007876Y003781D01*
X007848Y003831D01*
X007823Y003882D01*
X007802Y003935D01*
X007784Y003989D01*
X007771Y004045D01*
X007761Y004101D01*
X007755Y004158D01*
X007753Y004215D01*
X008291Y013877D02*
X008293Y013931D01*
X008299Y013985D01*
X008309Y014039D01*
X008323Y014092D01*
X008340Y014143D01*
X008361Y014193D01*
X008386Y014242D01*
X008415Y014288D01*
X008446Y014332D01*
X008481Y014374D01*
X008519Y014413D01*
X008559Y014450D01*
X008603Y014483D01*
X008648Y014513D01*
X008695Y014540D01*
X008745Y014563D01*
X008795Y014582D01*
X008848Y014598D01*
X008901Y014610D01*
X008955Y014618D01*
X009009Y014622D01*
X009063Y014622D01*
X009117Y014618D01*
X009171Y014610D01*
X009224Y014598D01*
X009277Y014582D01*
X009327Y014563D01*
X009377Y014540D01*
X009424Y014513D01*
X009469Y014483D01*
X009513Y014450D01*
X009553Y014413D01*
X009591Y014374D01*
X009626Y014332D01*
X009657Y014288D01*
X009686Y014242D01*
X009711Y014193D01*
X009732Y014143D01*
X009749Y014092D01*
X009763Y014039D01*
X009773Y013985D01*
X009779Y013931D01*
X009781Y013877D01*
X009779Y013823D01*
X009773Y013769D01*
X009763Y013715D01*
X009749Y013662D01*
X009732Y013611D01*
X009711Y013561D01*
X009686Y013512D01*
X009657Y013466D01*
X009626Y013422D01*
X009591Y013380D01*
X009553Y013341D01*
X009513Y013304D01*
X009469Y013271D01*
X009424Y013241D01*
X009377Y013214D01*
X009327Y013191D01*
X009277Y013172D01*
X009224Y013156D01*
X009171Y013144D01*
X009117Y013136D01*
X009063Y013132D01*
X009009Y013132D01*
X008955Y013136D01*
X008901Y013144D01*
X008848Y013156D01*
X008795Y013172D01*
X008745Y013191D01*
X008695Y013214D01*
X008648Y013241D01*
X008603Y013271D01*
X008559Y013304D01*
X008519Y013341D01*
X008481Y013380D01*
X008446Y013422D01*
X008415Y013466D01*
X008386Y013512D01*
X008361Y013561D01*
X008340Y013611D01*
X008323Y013662D01*
X008309Y013715D01*
X008299Y013769D01*
X008293Y013823D01*
X008291Y013877D01*
X011598Y013877D02*
X011600Y013931D01*
X011606Y013985D01*
X011616Y014039D01*
X011630Y014092D01*
X011647Y014143D01*
X011668Y014193D01*
X011693Y014242D01*
X011722Y014288D01*
X011753Y014332D01*
X011788Y014374D01*
X011826Y014413D01*
X011866Y014450D01*
X011910Y014483D01*
X011955Y014513D01*
X012002Y014540D01*
X012052Y014563D01*
X012102Y014582D01*
X012155Y014598D01*
X012208Y014610D01*
X012262Y014618D01*
X012316Y014622D01*
X012370Y014622D01*
X012424Y014618D01*
X012478Y014610D01*
X012531Y014598D01*
X012584Y014582D01*
X012634Y014563D01*
X012684Y014540D01*
X012731Y014513D01*
X012776Y014483D01*
X012820Y014450D01*
X012860Y014413D01*
X012898Y014374D01*
X012933Y014332D01*
X012964Y014288D01*
X012993Y014242D01*
X013018Y014193D01*
X013039Y014143D01*
X013056Y014092D01*
X013070Y014039D01*
X013080Y013985D01*
X013086Y013931D01*
X013088Y013877D01*
X013086Y013823D01*
X013080Y013769D01*
X013070Y013715D01*
X013056Y013662D01*
X013039Y013611D01*
X013018Y013561D01*
X012993Y013512D01*
X012964Y013466D01*
X012933Y013422D01*
X012898Y013380D01*
X012860Y013341D01*
X012820Y013304D01*
X012776Y013271D01*
X012731Y013241D01*
X012684Y013214D01*
X012634Y013191D01*
X012584Y013172D01*
X012531Y013156D01*
X012478Y013144D01*
X012424Y013136D01*
X012370Y013132D01*
X012316Y013132D01*
X012262Y013136D01*
X012208Y013144D01*
X012155Y013156D01*
X012102Y013172D01*
X012052Y013191D01*
X012002Y013214D01*
X011955Y013241D01*
X011910Y013271D01*
X011866Y013304D01*
X011826Y013341D01*
X011788Y013380D01*
X011753Y013422D01*
X011722Y013466D01*
X011693Y013512D01*
X011668Y013561D01*
X011647Y013611D01*
X011630Y013662D01*
X011616Y013715D01*
X011606Y013769D01*
X011600Y013823D01*
X011598Y013877D01*
X007337Y021185D02*
X007339Y021246D01*
X007345Y021308D01*
X007355Y021368D01*
X007369Y021428D01*
X007386Y021487D01*
X007408Y021545D01*
X007433Y021601D01*
X007462Y021656D01*
X007494Y021708D01*
X007529Y021758D01*
X007568Y021806D01*
X007610Y021851D01*
X007654Y021894D01*
X007702Y021933D01*
X007751Y021970D01*
X007803Y022003D01*
X007857Y022032D01*
X007913Y022058D01*
X007970Y022081D01*
X008029Y022099D01*
X008088Y022114D01*
X008149Y022125D01*
X008210Y022132D01*
X008272Y022135D01*
X008333Y022134D01*
X008394Y022129D01*
X008455Y022120D01*
X008515Y022107D01*
X008575Y022090D01*
X008633Y022070D01*
X008689Y022046D01*
X008744Y022018D01*
X008797Y021986D01*
X008848Y021952D01*
X008896Y021914D01*
X008942Y021873D01*
X008985Y021829D01*
X009026Y021782D01*
X009063Y021733D01*
X009097Y021682D01*
X009127Y021629D01*
X009154Y021573D01*
X009177Y021516D01*
X009197Y021458D01*
X009213Y021399D01*
X009225Y021338D01*
X009233Y021277D01*
X009237Y021216D01*
X009237Y021154D01*
X009233Y021093D01*
X009225Y021032D01*
X009213Y020971D01*
X009197Y020912D01*
X009177Y020854D01*
X009154Y020797D01*
X009127Y020741D01*
X009097Y020688D01*
X009063Y020637D01*
X009026Y020588D01*
X008985Y020541D01*
X008942Y020497D01*
X008896Y020456D01*
X008848Y020418D01*
X008797Y020384D01*
X008744Y020352D01*
X008689Y020324D01*
X008633Y020300D01*
X008575Y020280D01*
X008515Y020263D01*
X008455Y020250D01*
X008394Y020241D01*
X008333Y020236D01*
X008272Y020235D01*
X008210Y020238D01*
X008149Y020245D01*
X008088Y020256D01*
X008029Y020271D01*
X007970Y020289D01*
X007913Y020312D01*
X007857Y020338D01*
X007803Y020367D01*
X007751Y020400D01*
X007702Y020437D01*
X007654Y020476D01*
X007610Y020519D01*
X007568Y020564D01*
X007529Y020612D01*
X007494Y020662D01*
X007462Y020714D01*
X007433Y020769D01*
X007408Y020825D01*
X007386Y020883D01*
X007369Y020942D01*
X007355Y021002D01*
X007345Y021062D01*
X007339Y021124D01*
X007337Y021185D01*
X027405Y004215D02*
X027407Y004272D01*
X027413Y004329D01*
X027423Y004385D01*
X027436Y004441D01*
X027454Y004495D01*
X027475Y004548D01*
X027500Y004599D01*
X027528Y004649D01*
X027560Y004696D01*
X027594Y004742D01*
X027632Y004784D01*
X027673Y004824D01*
X027716Y004862D01*
X027762Y004896D01*
X027810Y004926D01*
X027860Y004954D01*
X027912Y004978D01*
X027966Y004998D01*
X028020Y005014D01*
X028076Y005027D01*
X028132Y005036D01*
X028189Y005041D01*
X028246Y005042D01*
X028303Y005039D01*
X028360Y005032D01*
X028416Y005021D01*
X028471Y005007D01*
X028525Y004988D01*
X028578Y004966D01*
X028629Y004941D01*
X028678Y004911D01*
X028725Y004879D01*
X028770Y004843D01*
X028812Y004805D01*
X028851Y004763D01*
X028887Y004719D01*
X028921Y004673D01*
X028951Y004624D01*
X028977Y004574D01*
X029000Y004522D01*
X029019Y004468D01*
X029035Y004413D01*
X029047Y004357D01*
X029055Y004300D01*
X029059Y004244D01*
X029059Y004186D01*
X029055Y004130D01*
X029047Y004073D01*
X029035Y004017D01*
X029019Y003962D01*
X029000Y003908D01*
X028977Y003856D01*
X028951Y003806D01*
X028921Y003757D01*
X028887Y003711D01*
X028851Y003667D01*
X028812Y003625D01*
X028770Y003587D01*
X028725Y003551D01*
X028678Y003519D01*
X028629Y003489D01*
X028578Y003464D01*
X028525Y003442D01*
X028471Y003423D01*
X028416Y003409D01*
X028360Y003398D01*
X028303Y003391D01*
X028246Y003388D01*
X028189Y003389D01*
X028132Y003394D01*
X028076Y003403D01*
X028020Y003416D01*
X027966Y003432D01*
X027912Y003452D01*
X027860Y003476D01*
X027810Y003504D01*
X027762Y003534D01*
X027716Y003568D01*
X027673Y003606D01*
X027632Y003646D01*
X027594Y003688D01*
X027560Y003734D01*
X027528Y003781D01*
X027500Y003831D01*
X027475Y003882D01*
X027454Y003935D01*
X027436Y003989D01*
X027423Y004045D01*
X027413Y004101D01*
X027407Y004158D01*
X027405Y004215D01*
X027577Y021185D02*
X027579Y021246D01*
X027585Y021308D01*
X027595Y021368D01*
X027609Y021428D01*
X027626Y021487D01*
X027648Y021545D01*
X027673Y021601D01*
X027702Y021656D01*
X027734Y021708D01*
X027769Y021758D01*
X027808Y021806D01*
X027850Y021851D01*
X027894Y021894D01*
X027942Y021933D01*
X027991Y021970D01*
X028043Y022003D01*
X028097Y022032D01*
X028153Y022058D01*
X028210Y022081D01*
X028269Y022099D01*
X028328Y022114D01*
X028389Y022125D01*
X028450Y022132D01*
X028512Y022135D01*
X028573Y022134D01*
X028634Y022129D01*
X028695Y022120D01*
X028755Y022107D01*
X028815Y022090D01*
X028873Y022070D01*
X028929Y022046D01*
X028984Y022018D01*
X029037Y021986D01*
X029088Y021952D01*
X029136Y021914D01*
X029182Y021873D01*
X029225Y021829D01*
X029266Y021782D01*
X029303Y021733D01*
X029337Y021682D01*
X029367Y021629D01*
X029394Y021573D01*
X029417Y021516D01*
X029437Y021458D01*
X029453Y021399D01*
X029465Y021338D01*
X029473Y021277D01*
X029477Y021216D01*
X029477Y021154D01*
X029473Y021093D01*
X029465Y021032D01*
X029453Y020971D01*
X029437Y020912D01*
X029417Y020854D01*
X029394Y020797D01*
X029367Y020741D01*
X029337Y020688D01*
X029303Y020637D01*
X029266Y020588D01*
X029225Y020541D01*
X029182Y020497D01*
X029136Y020456D01*
X029088Y020418D01*
X029037Y020384D01*
X028984Y020352D01*
X028929Y020324D01*
X028873Y020300D01*
X028815Y020280D01*
X028755Y020263D01*
X028695Y020250D01*
X028634Y020241D01*
X028573Y020236D01*
X028512Y020235D01*
X028450Y020238D01*
X028389Y020245D01*
X028328Y020256D01*
X028269Y020271D01*
X028210Y020289D01*
X028153Y020312D01*
X028097Y020338D01*
X028043Y020367D01*
X027991Y020400D01*
X027942Y020437D01*
X027894Y020476D01*
X027850Y020519D01*
X027808Y020564D01*
X027769Y020612D01*
X027734Y020662D01*
X027702Y020714D01*
X027673Y020769D01*
X027648Y020825D01*
X027626Y020883D01*
X027609Y020942D01*
X027595Y021002D01*
X027585Y021062D01*
X027579Y021124D01*
X027577Y021185D01*
D11*
X018670Y005798D03*
D12*
X012713Y006350D02*
X012634Y006271D01*
X012477Y006271D01*
X012398Y006350D01*
X012398Y006428D01*
X012477Y006507D01*
X012634Y006507D01*
X012713Y006586D01*
X012713Y006664D01*
X012634Y006743D01*
X012477Y006743D01*
X012398Y006664D01*
X012242Y006586D02*
X012242Y006350D01*
X012163Y006271D01*
X011927Y006271D01*
X011927Y006586D01*
X011771Y006586D02*
X011534Y006586D01*
X011456Y006507D01*
X011456Y006350D01*
X011534Y006271D01*
X011771Y006271D01*
X011771Y006113D02*
X011771Y006586D01*
X011299Y006586D02*
X011063Y006586D01*
X010984Y006507D01*
X010984Y006350D01*
X011063Y006271D01*
X011299Y006271D01*
X011299Y006113D02*
X011299Y006586D01*
X010828Y006507D02*
X010828Y006350D01*
X010749Y006271D01*
X010592Y006271D01*
X010513Y006350D01*
X010513Y006507D01*
X010592Y006586D01*
X010749Y006586D01*
X010828Y006507D01*
X010357Y006586D02*
X010357Y006271D01*
X010357Y006428D02*
X010199Y006586D01*
X010121Y006586D01*
X009964Y006586D02*
X009807Y006586D01*
X009885Y006664D02*
X009885Y006350D01*
X009807Y006271D01*
X009179Y006271D02*
X009179Y006586D01*
X009179Y006428D02*
X009021Y006586D01*
X008943Y006586D01*
X008786Y006664D02*
X008707Y006743D01*
X008550Y006743D01*
X008471Y006664D01*
X008471Y006586D01*
X008786Y006271D01*
X008471Y006271D01*
X008315Y006271D02*
X008236Y006271D01*
X008236Y006350D01*
X008315Y006350D01*
X008315Y006271D01*
X008079Y006350D02*
X007764Y006664D01*
X007764Y006350D01*
X007843Y006271D01*
X008000Y006271D01*
X008079Y006350D01*
X008079Y006664D01*
X008000Y006743D01*
X007843Y006743D01*
X007764Y006664D01*
X008137Y007220D02*
X008216Y007220D01*
X008137Y007220D02*
X008059Y007298D01*
X008059Y007692D01*
X008374Y007692D02*
X008374Y007456D01*
X008295Y007377D01*
X008059Y007377D01*
X008530Y007692D02*
X008609Y007692D01*
X008766Y007535D01*
X008923Y007535D02*
X009237Y007535D01*
X009237Y007613D02*
X009237Y007456D01*
X009159Y007377D01*
X009001Y007377D01*
X008923Y007535D02*
X008923Y007613D01*
X009001Y007692D01*
X009159Y007692D01*
X009237Y007613D01*
X009394Y007692D02*
X009552Y007692D01*
X009473Y007771D02*
X009473Y007456D01*
X009394Y007377D01*
X009708Y007377D02*
X009787Y007456D01*
X009787Y007771D01*
X009866Y007692D02*
X009708Y007692D01*
X010022Y007613D02*
X010022Y007377D01*
X010258Y007377D01*
X010337Y007456D01*
X010258Y007535D01*
X010022Y007535D01*
X010022Y007613D02*
X010101Y007692D01*
X010258Y007692D01*
X010494Y007692D02*
X010572Y007613D01*
X010808Y007613D01*
X010572Y007613D02*
X010494Y007535D01*
X010494Y007456D01*
X010572Y007377D01*
X010808Y007377D01*
X010808Y007849D01*
X010572Y007849D01*
X010494Y007771D01*
X010494Y007692D01*
X011436Y007535D02*
X011436Y007849D01*
X011751Y007849D02*
X011751Y007535D01*
X011593Y007377D01*
X011436Y007535D01*
X011907Y007692D02*
X012222Y007377D01*
X011907Y007377D01*
X011907Y007692D02*
X011907Y007771D01*
X011986Y007849D01*
X012143Y007849D01*
X012222Y007771D01*
X012536Y007849D02*
X012536Y007377D01*
X012693Y007377D02*
X012379Y007377D01*
X012693Y007692D02*
X012536Y007849D01*
X008766Y007692D02*
X008766Y007377D01*
X020829Y017926D02*
X020731Y018197D01*
X020774Y018289D01*
X020977Y018363D01*
X021125Y017957D01*
X020922Y017883D01*
X020829Y017926D01*
X021263Y018007D02*
X021115Y018414D01*
X021386Y018512D02*
X021263Y018007D01*
X021534Y018106D02*
X021386Y018512D01*
X021548Y018495D02*
X021591Y018587D01*
X021727Y018636D01*
X021819Y018593D01*
X021918Y018322D01*
X021875Y018230D01*
X021739Y018180D01*
X021647Y018223D01*
X021597Y018359D01*
X021733Y018408D01*
X021932Y018711D02*
X022351Y018403D01*
X022489Y018453D02*
X022760Y018552D01*
X022390Y018724D01*
X022366Y018792D01*
X022409Y018885D01*
X022544Y018934D01*
X022637Y018891D01*
X022750Y019009D02*
X022898Y018602D01*
X023021Y019107D01*
X023169Y018701D01*
X023282Y018819D02*
X023183Y019090D01*
X023226Y019182D01*
X023362Y019231D01*
X023454Y019188D01*
X023553Y018917D01*
X023510Y018825D01*
X023374Y018775D01*
X023282Y018819D01*
X020575Y018906D02*
X020489Y018721D01*
X020304Y018808D01*
X020206Y019079D01*
X020477Y019177D02*
X020575Y018906D01*
X020241Y018554D02*
X019970Y018455D01*
X019807Y018473D02*
X019536Y018374D01*
X019399Y018324D02*
X018979Y018632D01*
X018842Y018582D02*
X018571Y018484D01*
X018706Y018533D02*
X018854Y018126D01*
X019127Y018226D02*
X019251Y018731D01*
X019388Y018781D02*
X019659Y018880D01*
X019807Y018473D01*
X019733Y018676D02*
X019598Y018627D01*
X018041Y018720D02*
X017998Y018628D01*
X017862Y018579D01*
X017770Y018622D01*
X017671Y018893D01*
X017714Y018985D01*
X017850Y019035D01*
X017942Y018991D01*
X018041Y018720D01*
X017657Y018504D02*
X017509Y018910D01*
X017238Y018812D01*
X017100Y018762D02*
X016829Y018663D01*
X016741Y018477D02*
X016556Y018564D01*
X016704Y018157D01*
X016839Y018206D02*
X016568Y018108D01*
X017039Y018509D02*
X017174Y018558D01*
X017248Y018355D02*
X017100Y018762D01*
X017447Y018658D02*
X017583Y018707D01*
X015600Y018681D02*
X015557Y018589D01*
X015421Y018539D01*
X015329Y018582D01*
X015230Y018853D01*
X015273Y018946D01*
X015409Y018995D01*
X015501Y018952D01*
X015600Y018681D01*
X015216Y018464D02*
X015068Y018871D01*
X014945Y018366D01*
X014797Y018772D01*
X014709Y018587D02*
X014524Y018673D01*
X014672Y018266D01*
X014807Y018316D02*
X014536Y018217D01*
X015295Y023140D02*
X015160Y023189D01*
X015116Y023281D01*
X015166Y023417D01*
X015301Y023368D01*
X015215Y023553D02*
X015308Y023596D01*
X015443Y023546D01*
X015486Y023454D01*
X015388Y023183D01*
X015295Y023140D01*
X014954Y023264D02*
X015102Y023671D01*
X014683Y023362D01*
X014831Y023769D01*
X014693Y023819D02*
X014490Y023893D01*
X014398Y023850D01*
X014299Y023579D01*
X014342Y023487D01*
X014545Y023413D01*
X014693Y023819D01*
X016306Y023581D02*
X016578Y023483D01*
X016405Y023852D01*
X016430Y023920D01*
X016522Y023963D01*
X016658Y023914D01*
X016701Y023821D01*
X016863Y023839D02*
X017134Y023741D01*
X016986Y023334D01*
X017060Y023537D02*
X016925Y023586D01*
X017272Y023690D02*
X017543Y023592D01*
X017395Y023185D01*
X017557Y023203D02*
X017656Y023474D01*
X017749Y023517D01*
X017884Y023468D01*
X017927Y023375D01*
X017829Y023104D01*
X017736Y023061D01*
X017601Y023110D01*
X017557Y023203D01*
X017469Y023388D02*
X017334Y023438D01*
X018169Y023742D02*
X018440Y023643D01*
X018588Y024050D01*
X018317Y024148D01*
X018379Y023896D02*
X018514Y023846D01*
X018578Y023593D02*
X018855Y023722D01*
X018899Y023630D02*
X018726Y024000D01*
X018997Y023901D02*
X018849Y023494D01*
X018986Y023444D02*
X019122Y023395D01*
X019054Y023420D02*
X019202Y023826D01*
X019270Y023802D02*
X019134Y023851D01*
X019383Y023684D02*
X019358Y023616D01*
X019401Y023524D01*
X019604Y023450D01*
X019401Y023524D02*
X019309Y023481D01*
X019284Y023413D01*
X019327Y023320D01*
X019530Y023246D01*
X019678Y023653D01*
X019475Y023727D01*
X019383Y023684D01*
X019643Y023128D02*
X019914Y023030D01*
X020101Y023115D02*
X020200Y023386D01*
X020293Y023430D01*
X020428Y023380D01*
X020471Y023288D01*
X020373Y023017D01*
X020280Y022974D01*
X020145Y023023D01*
X020101Y023115D01*
X020634Y023305D02*
X020905Y023207D01*
X020769Y023256D02*
X020621Y022849D01*
X021309Y023641D02*
X021457Y024048D01*
X021592Y023999D02*
X021321Y024097D01*
X021681Y023813D02*
X021582Y023542D01*
X021656Y023745D02*
X021927Y023646D01*
X021952Y023714D02*
X021866Y023899D01*
X021681Y023813D01*
X021952Y023714D02*
X021853Y023443D01*
X022016Y023461D02*
X022040Y023529D01*
X022133Y023572D01*
X022336Y023498D01*
X022410Y023701D02*
X022207Y023775D01*
X022114Y023732D01*
X022090Y023664D01*
X022133Y023572D01*
X022016Y023461D02*
X022059Y023368D01*
X022262Y023294D01*
X022410Y023701D01*
X022375Y023177D02*
X022646Y023078D01*
X022858Y023231D02*
X022956Y023502D01*
X022858Y023231D02*
X022944Y023046D01*
X023129Y023133D01*
X023227Y023404D01*
X024772Y012461D02*
X024772Y012154D01*
X025079Y012461D01*
X025156Y012461D01*
X025232Y012384D01*
X025232Y012231D01*
X025156Y012154D01*
X027272Y012154D02*
X027272Y012461D01*
X027272Y012308D02*
X027732Y012308D01*
X027579Y012154D01*
D13*
X027052Y011834D02*
X026752Y013134D01*
X026652Y013234D01*
X026752Y013134D02*
X026452Y013134D01*
X026452Y013934D01*
X026752Y013134D02*
X026652Y013034D01*
X027252Y013134D02*
X027352Y013234D01*
X027252Y013134D02*
X027352Y013034D01*
X027252Y013134D02*
X027752Y013134D01*
X027052Y011834D02*
X027052Y011134D01*
X025052Y013134D02*
X024552Y013134D01*
X024652Y013234D01*
X024552Y013134D02*
X024652Y013034D01*
X024052Y013134D02*
X023952Y013034D01*
X024052Y013134D02*
X023752Y013134D01*
X023752Y013934D01*
X023952Y013234D02*
X024052Y013134D01*
X024352Y011834D01*
X024352Y011134D01*
M02*
