G75*
G70*
%OFA0B0*%
%FSLAX24Y24*%
%IPPOS*%
%LPD*%
%AMOC8*
5,1,8,0,0,1.08239X$1,22.5*
%
%ADD10C,0.1000*%
%ADD11C,0.0900*%
%ADD12C,0.0730*%
%ADD13C,0.0591*%
%ADD14C,0.0600*%
%ADD15C,0.0750*%
%ADD16C,0.0160*%
%ADD17R,0.0376X0.0376*%
%ADD18C,0.1200*%
%ADD19C,0.1142*%
%ADD20C,0.1181*%
%ADD21C,0.0709*%
%ADD22C,0.0700*%
D10*
X014957Y020035D03*
X017257Y020035D03*
X019557Y020035D03*
X021857Y020035D03*
X021857Y022335D03*
X019557Y022335D03*
X017257Y022335D03*
X014957Y022335D03*
D11*
X023992Y014374D03*
X025492Y012994D03*
X026672Y014374D03*
X028172Y012994D03*
X026932Y010634D03*
X024252Y010634D03*
D12*
X024252Y016544D03*
X025942Y016544D03*
X026922Y016544D03*
X028612Y016544D03*
D13*
X019526Y014238D03*
D14*
X020526Y013238D03*
X021526Y014238D03*
D15*
X013023Y015377D03*
X009716Y015377D03*
X008356Y012377D03*
X011663Y012377D03*
D16*
X007237Y020643D02*
X007237Y002867D01*
X029577Y002867D01*
X029577Y020643D01*
X029471Y020460D01*
X029252Y020240D01*
X028983Y020085D01*
X028682Y020005D01*
X028372Y020005D01*
X028072Y020085D01*
X027803Y020240D01*
X027583Y020460D01*
X027427Y020729D01*
X027347Y021029D01*
X027347Y021340D01*
X027427Y021640D01*
X027583Y021909D01*
X027803Y022129D01*
X028072Y022284D01*
X028372Y022365D01*
X028682Y022365D01*
X028983Y022284D01*
X029252Y022129D01*
X029471Y021909D01*
X029577Y021726D01*
X029577Y024455D01*
X023199Y024455D01*
X023230Y024440D01*
X023348Y024391D01*
X023363Y024377D01*
X023381Y024368D01*
X023466Y024273D01*
X023556Y024183D01*
X023564Y024164D01*
X024888Y022694D01*
X024979Y022603D01*
X024986Y022585D01*
X025000Y022570D01*
X025042Y022449D01*
X025091Y022331D01*
X025091Y022311D01*
X025098Y022292D01*
X025091Y022165D01*
X025091Y018816D01*
X025095Y018806D01*
X025091Y018669D01*
X025091Y018533D01*
X025087Y018523D01*
X025087Y018511D01*
X025031Y018387D01*
X024979Y018261D01*
X024971Y018253D01*
X024966Y018243D01*
X024868Y018150D01*
X024770Y018053D01*
X024760Y018048D01*
X023818Y017159D01*
X023438Y016779D01*
X023438Y015147D01*
X023438Y014578D01*
X023492Y014709D01*
X023658Y014874D01*
X023875Y014964D01*
X024109Y014964D01*
X024326Y014874D01*
X024492Y014709D01*
X024582Y014492D01*
X024582Y014257D01*
X024492Y014040D01*
X024326Y013874D01*
X024109Y013784D01*
X023875Y013784D01*
X023658Y013874D01*
X023492Y014040D01*
X023438Y014171D01*
X023438Y013975D01*
X024834Y012725D01*
X024781Y012853D01*
X024781Y013136D01*
X024889Y013397D01*
X025089Y013597D01*
X025272Y013673D01*
X025272Y016003D01*
X025272Y016185D01*
X025464Y016378D01*
X025437Y016444D01*
X025437Y016645D01*
X025514Y016830D01*
X025656Y016972D01*
X025841Y017049D01*
X026042Y017049D01*
X026228Y016972D01*
X026370Y016830D01*
X026432Y016681D01*
X026494Y016830D01*
X026636Y016972D01*
X026821Y017049D01*
X027022Y017049D01*
X027208Y016972D01*
X027350Y016830D01*
X027427Y016645D01*
X027427Y016444D01*
X027350Y016258D01*
X027208Y016116D01*
X027022Y016039D01*
X026821Y016039D01*
X026636Y016116D01*
X026494Y016258D01*
X026432Y016408D01*
X026370Y016258D01*
X026228Y016116D01*
X026042Y016039D01*
X025841Y016039D01*
X025775Y016067D01*
X025712Y016003D01*
X025712Y013705D01*
X026092Y013705D01*
X026118Y013717D01*
X026409Y013731D01*
X026682Y013632D01*
X027627Y012769D01*
X027582Y012877D01*
X027582Y013112D01*
X027672Y013329D01*
X027838Y013494D01*
X028055Y013584D01*
X028289Y013584D01*
X028506Y013494D01*
X028672Y013329D01*
X028762Y013112D01*
X028762Y012877D01*
X028672Y012660D01*
X028506Y012494D01*
X028289Y012404D01*
X028055Y012404D01*
X028003Y012426D01*
X028469Y012000D01*
X028564Y011961D01*
X029092Y011433D01*
X029297Y011228D01*
X029408Y010959D01*
X029408Y009936D01*
X029408Y009645D01*
X029297Y009376D01*
X028381Y008460D01*
X028317Y008306D01*
X028111Y008100D01*
X027843Y007989D01*
X020418Y007989D01*
X013497Y007989D01*
X013229Y008100D01*
X013023Y008306D01*
X013023Y008306D01*
X011267Y010062D01*
X011244Y010071D01*
X011036Y010279D01*
X010923Y010551D01*
X010923Y012524D01*
X011036Y012796D01*
X011244Y013004D01*
X011516Y013117D01*
X011724Y013117D01*
X011517Y013325D01*
X011368Y013683D01*
X011368Y014071D01*
X011517Y014429D01*
X011791Y014703D01*
X012149Y014852D01*
X012537Y014852D01*
X012896Y014703D01*
X013170Y014429D01*
X013318Y014071D01*
X013318Y013683D01*
X013170Y013325D01*
X012896Y013050D01*
X012537Y012902D01*
X012185Y012902D01*
X012291Y012796D01*
X012403Y012524D01*
X012403Y010992D01*
X013945Y009450D01*
X020312Y009450D01*
X020312Y011660D01*
X019604Y012368D01*
X019604Y012551D01*
X019604Y013653D01*
X019732Y013782D01*
X020115Y014165D01*
X020115Y014197D01*
X019933Y014441D01*
X019899Y014474D01*
X019961Y014325D01*
X019961Y014152D01*
X019895Y013992D01*
X019773Y013869D01*
X019613Y013803D01*
X019439Y013803D01*
X019279Y013869D01*
X019157Y013992D01*
X019091Y014152D01*
X019091Y014325D01*
X019157Y014485D01*
X019279Y014607D01*
X019439Y014674D01*
X019613Y014674D01*
X019773Y014607D01*
X019879Y014501D01*
X019879Y014512D01*
X019869Y014526D01*
X019879Y014601D01*
X019879Y014966D01*
X019853Y014966D01*
X019771Y015048D01*
X019771Y015540D01*
X019853Y015622D01*
X020345Y015622D01*
X020427Y015540D01*
X020427Y015048D01*
X020345Y014966D01*
X020319Y014966D01*
X020319Y014659D01*
X020502Y014415D01*
X020509Y014408D01*
X020509Y016472D01*
X017527Y019454D01*
X017384Y019395D01*
X017130Y019395D01*
X016895Y019492D01*
X016715Y019672D01*
X016617Y019907D01*
X016617Y020162D01*
X016715Y020397D01*
X015499Y020397D01*
X015500Y020397D02*
X015320Y020577D01*
X015084Y020675D01*
X014830Y020675D01*
X014595Y020577D01*
X014415Y020397D01*
X009169Y020397D01*
X009231Y020460D02*
X009387Y020729D01*
X009467Y021029D01*
X009467Y021340D01*
X009387Y021640D01*
X009231Y021909D01*
X009012Y022129D01*
X008743Y022284D01*
X008442Y022365D01*
X008132Y022365D01*
X007832Y022284D01*
X007563Y022129D01*
X007343Y021909D01*
X007237Y021726D01*
X007237Y024455D01*
X020149Y024455D01*
X020130Y024450D01*
X020080Y024414D01*
X020023Y024391D01*
X019962Y024329D01*
X019891Y024278D01*
X019859Y024226D01*
X019815Y024183D01*
X019782Y024102D01*
X018851Y022599D01*
X018803Y022309D01*
X018870Y022022D01*
X019042Y021783D01*
X019292Y021628D01*
X019583Y021581D01*
X019869Y021648D01*
X020109Y021820D01*
X020854Y023023D01*
X022600Y023023D01*
X023611Y021900D01*
X023611Y018999D01*
X022892Y018321D01*
X022882Y018316D01*
X022785Y018219D01*
X022686Y018126D01*
X022682Y018116D01*
X022070Y017505D01*
X021958Y017233D01*
X021958Y016938D01*
X021958Y015514D01*
X021530Y015514D01*
X021530Y015540D01*
X021448Y015622D01*
X020955Y015622D01*
X020949Y015616D01*
X020949Y016472D01*
X020949Y016654D01*
X017838Y019765D01*
X017897Y019907D01*
X017897Y020162D01*
X017800Y020397D01*
X017620Y020577D01*
X017384Y020675D01*
X017130Y020675D01*
X016895Y020577D01*
X016715Y020397D01*
X016649Y020239D02*
X015565Y020239D01*
X015597Y020162D02*
X015500Y020397D01*
X015341Y020556D02*
X016873Y020556D01*
X016617Y020080D02*
X015597Y020080D01*
X015597Y020162D02*
X015597Y019907D01*
X015500Y019672D01*
X015320Y019492D01*
X015084Y019395D01*
X014830Y019395D01*
X014595Y019492D01*
X014415Y019672D01*
X014317Y019907D01*
X014317Y020162D01*
X014415Y020397D01*
X014349Y020239D02*
X009009Y020239D01*
X009012Y020240D02*
X009231Y020460D01*
X009287Y020556D02*
X014573Y020556D01*
X014317Y020080D02*
X008725Y020080D01*
X008743Y020085D02*
X009012Y020240D01*
X008743Y020085D02*
X008442Y020005D01*
X008132Y020005D01*
X007832Y020085D01*
X007563Y020240D01*
X007343Y020460D01*
X007237Y020643D01*
X007237Y020556D02*
X007287Y020556D01*
X007237Y020397D02*
X007406Y020397D01*
X007565Y020239D02*
X007237Y020239D01*
X007237Y020080D02*
X007849Y020080D01*
X007237Y019922D02*
X014317Y019922D01*
X014377Y019763D02*
X007237Y019763D01*
X007237Y019605D02*
X014482Y019605D01*
X014705Y019446D02*
X007237Y019446D01*
X007237Y019288D02*
X017693Y019288D01*
X017534Y019446D02*
X017509Y019446D01*
X017840Y019763D02*
X018423Y019763D01*
X018423Y019892D02*
X018423Y019430D01*
X018416Y019422D01*
X018423Y019340D01*
X018423Y019258D01*
X018430Y019251D01*
X018431Y019240D01*
X018494Y019187D01*
X018551Y019129D01*
X018562Y019129D01*
X018474Y019129D01*
X018562Y019129D02*
X019005Y018754D01*
X019063Y018696D01*
X019074Y018696D01*
X019082Y018689D01*
X019164Y018696D01*
X021297Y018696D01*
X021297Y018103D01*
X021270Y018103D01*
X021188Y018021D01*
X021188Y017528D01*
X021270Y017446D01*
X021763Y017446D01*
X021845Y017528D01*
X021845Y018021D01*
X021763Y018103D01*
X021736Y018103D01*
X021736Y018696D01*
X022358Y018696D01*
X022423Y018682D01*
X022446Y018696D01*
X022474Y018696D01*
X022521Y018743D01*
X023023Y019061D01*
X023377Y019061D01*
X023459Y019143D01*
X023459Y019635D01*
X023377Y019717D01*
X022885Y019717D01*
X022803Y019635D01*
X022803Y019442D01*
X022319Y019136D01*
X021529Y019136D01*
X021347Y019136D01*
X019235Y019136D01*
X018862Y019451D01*
X018862Y019976D01*
X018865Y020064D01*
X018862Y020067D01*
X018862Y020070D01*
X018800Y020132D01*
X017477Y021531D01*
X017477Y021733D01*
X017620Y021792D01*
X017800Y021972D01*
X017897Y022207D01*
X017897Y022462D01*
X017800Y022697D01*
X017620Y022877D01*
X017384Y022975D01*
X017130Y022975D01*
X016895Y022877D01*
X016715Y022697D01*
X016617Y022462D01*
X016617Y022207D01*
X016715Y021972D01*
X016895Y021792D01*
X017037Y021733D01*
X017037Y021447D01*
X017035Y021358D01*
X017037Y021356D01*
X017037Y021352D01*
X017099Y021290D01*
X018423Y019892D01*
X018394Y019922D02*
X017897Y019922D01*
X017897Y020080D02*
X018244Y020080D01*
X018094Y020239D02*
X017865Y020239D01*
X017799Y020397D02*
X017944Y020397D01*
X017794Y020556D02*
X017641Y020556D01*
X017644Y020715D02*
X009378Y020715D01*
X009425Y020873D02*
X017494Y020873D01*
X017344Y021032D02*
X009467Y021032D01*
X009467Y021190D02*
X017194Y021190D01*
X017041Y021349D02*
X009465Y021349D01*
X009422Y021507D02*
X017037Y021507D01*
X017037Y021666D02*
X015086Y021666D01*
X015090Y021666D02*
X015176Y021689D01*
X015258Y021724D01*
X015336Y021768D01*
X015406Y021822D01*
X015469Y021885D01*
X015524Y021956D01*
X015568Y022033D01*
X015602Y022116D01*
X015625Y022202D01*
X015633Y022260D01*
X015032Y022260D01*
X015032Y022410D01*
X014882Y022410D01*
X014882Y023011D01*
X014824Y023003D01*
X014738Y022980D01*
X014656Y022946D01*
X014578Y022901D01*
X014508Y022847D01*
X014445Y022784D01*
X014390Y022713D01*
X014346Y022636D01*
X014312Y022554D01*
X014289Y022468D01*
X014281Y022410D01*
X014882Y022410D01*
X014882Y022260D01*
X014281Y022260D01*
X014289Y022202D01*
X014312Y022116D01*
X014346Y022033D01*
X014390Y021956D01*
X014445Y021885D01*
X014508Y021822D01*
X014578Y021768D01*
X014656Y021724D01*
X014738Y021689D01*
X014824Y021666D01*
X014882Y021659D01*
X014882Y022259D01*
X015032Y022259D01*
X015032Y021659D01*
X015090Y021666D01*
X015032Y021666D02*
X014882Y021666D01*
X014828Y021666D02*
X009372Y021666D01*
X009280Y021824D02*
X014506Y021824D01*
X014375Y021983D02*
X009158Y021983D01*
X008990Y022141D02*
X014305Y022141D01*
X014288Y022459D02*
X007237Y022459D01*
X007237Y022617D02*
X014338Y022617D01*
X014438Y022776D02*
X007237Y022776D01*
X007237Y022934D02*
X014635Y022934D01*
X014882Y022934D02*
X015032Y022934D01*
X015032Y023011D02*
X015090Y023003D01*
X015176Y022980D01*
X015258Y022946D01*
X015336Y022901D01*
X015406Y022847D01*
X015469Y022784D01*
X015524Y022713D01*
X015568Y022636D01*
X015602Y022554D01*
X015625Y022468D01*
X015633Y022410D01*
X015032Y022410D01*
X015032Y023011D01*
X015032Y022776D02*
X014882Y022776D01*
X014882Y022617D02*
X015032Y022617D01*
X015032Y022459D02*
X014882Y022459D01*
X014882Y022300D02*
X008684Y022300D01*
X007890Y022300D02*
X007237Y022300D01*
X007237Y022141D02*
X007584Y022141D01*
X007416Y021983D02*
X007237Y021983D01*
X007237Y021824D02*
X007294Y021824D01*
X007237Y023093D02*
X019156Y023093D01*
X019255Y023251D02*
X007237Y023251D01*
X007237Y023410D02*
X019353Y023410D01*
X019451Y023568D02*
X007237Y023568D01*
X007237Y023727D02*
X019549Y023727D01*
X019648Y023885D02*
X007237Y023885D01*
X007237Y024044D02*
X019746Y024044D01*
X019835Y024203D02*
X007237Y024203D01*
X007237Y024361D02*
X019994Y024361D01*
X021495Y022877D02*
X021730Y022975D01*
X021984Y022975D01*
X022220Y022877D01*
X022400Y022697D01*
X022497Y022462D01*
X022497Y022207D01*
X022400Y021972D01*
X022220Y021792D01*
X021984Y021695D01*
X021730Y021695D01*
X021495Y021792D01*
X021315Y021972D01*
X021217Y022207D01*
X021217Y022462D01*
X021315Y022697D01*
X021495Y022877D01*
X021393Y022776D02*
X020701Y022776D01*
X020799Y022934D02*
X021632Y022934D01*
X022082Y022934D02*
X022680Y022934D01*
X022823Y022776D02*
X022321Y022776D01*
X022433Y022617D02*
X022965Y022617D01*
X023108Y022459D02*
X022497Y022459D01*
X022497Y022300D02*
X023251Y022300D01*
X023394Y022141D02*
X022470Y022141D01*
X022404Y021983D02*
X023536Y021983D01*
X023611Y021824D02*
X022252Y021824D01*
X021462Y021824D02*
X020111Y021824D01*
X020210Y021983D02*
X021310Y021983D01*
X021244Y022141D02*
X020308Y022141D01*
X020406Y022300D02*
X021217Y022300D01*
X021217Y022459D02*
X020504Y022459D01*
X020603Y022617D02*
X021281Y022617D01*
X019894Y021666D02*
X023611Y021666D01*
X023611Y021507D02*
X017499Y021507D01*
X017477Y021666D02*
X019232Y021666D01*
X019013Y021824D02*
X017652Y021824D01*
X017804Y021983D02*
X018899Y021983D01*
X018842Y022141D02*
X017870Y022141D01*
X017897Y022300D02*
X018805Y022300D01*
X018828Y022459D02*
X017897Y022459D01*
X017833Y022617D02*
X018862Y022617D01*
X018960Y022776D02*
X017721Y022776D01*
X017482Y022934D02*
X019058Y022934D01*
X017257Y022335D02*
X017257Y021443D01*
X018643Y019979D01*
X018643Y019349D01*
X019154Y018916D01*
X021438Y018916D01*
X021517Y018837D01*
X021517Y017774D01*
X021845Y017702D02*
X022268Y017702D01*
X022426Y017861D02*
X021845Y017861D01*
X021845Y018019D02*
X022585Y018019D01*
X022741Y018178D02*
X021736Y018178D01*
X021736Y018336D02*
X022909Y018336D01*
X023077Y018495D02*
X021736Y018495D01*
X021736Y018654D02*
X023245Y018654D01*
X023413Y018812D02*
X022630Y018812D01*
X022383Y018916D02*
X023131Y019389D01*
X023459Y019446D02*
X023611Y019446D01*
X023611Y019288D02*
X023459Y019288D01*
X023445Y019129D02*
X023611Y019129D01*
X023581Y018971D02*
X022881Y018971D01*
X022559Y019288D02*
X019056Y019288D01*
X018869Y019446D02*
X019305Y019446D01*
X019195Y019492D02*
X019430Y019395D01*
X019684Y019395D01*
X019920Y019492D01*
X020100Y019672D01*
X020197Y019907D01*
X020197Y020162D01*
X020100Y020397D01*
X019920Y020577D01*
X019684Y020675D01*
X019430Y020675D01*
X019195Y020577D01*
X019015Y020397D01*
X018550Y020397D01*
X018700Y020239D02*
X018949Y020239D01*
X018917Y020162D02*
X018917Y019907D01*
X019015Y019672D01*
X019195Y019492D01*
X019082Y019605D02*
X018862Y019605D01*
X018862Y019763D02*
X018977Y019763D01*
X018917Y019922D02*
X018862Y019922D01*
X018852Y020080D02*
X018917Y020080D01*
X018917Y020162D02*
X019015Y020397D01*
X019173Y020556D02*
X018400Y020556D01*
X018250Y020715D02*
X023611Y020715D01*
X023611Y020873D02*
X018100Y020873D01*
X017949Y021032D02*
X023611Y021032D01*
X023611Y021190D02*
X017799Y021190D01*
X017649Y021349D02*
X023611Y021349D01*
X023611Y020556D02*
X022295Y020556D01*
X022306Y020547D02*
X022236Y020601D01*
X022158Y020646D01*
X022076Y020680D01*
X021990Y020703D01*
X021932Y020711D01*
X021932Y020110D01*
X021782Y020110D01*
X021782Y020711D01*
X021724Y020703D01*
X021638Y020680D01*
X021556Y020646D01*
X021478Y020601D01*
X021408Y020547D01*
X021345Y020484D01*
X021290Y020413D01*
X021246Y020336D01*
X021212Y020254D01*
X021189Y020168D01*
X021181Y020110D01*
X021782Y020110D01*
X021782Y019960D01*
X021181Y019960D01*
X021189Y019902D01*
X021212Y019816D01*
X021246Y019733D01*
X021290Y019656D01*
X021345Y019585D01*
X021408Y019522D01*
X021478Y019468D01*
X021556Y019424D01*
X021638Y019389D01*
X021724Y019366D01*
X021782Y019359D01*
X021782Y019959D01*
X021932Y019959D01*
X021932Y019359D01*
X021990Y019366D01*
X022076Y019389D01*
X022158Y019424D01*
X022236Y019468D01*
X022306Y019522D01*
X022369Y019585D01*
X022424Y019656D01*
X022468Y019733D01*
X022502Y019816D01*
X022525Y019902D01*
X022533Y019960D01*
X021932Y019960D01*
X021932Y020110D01*
X022533Y020110D01*
X022525Y020168D01*
X022502Y020254D01*
X022468Y020336D01*
X022424Y020413D01*
X022369Y020484D01*
X022306Y020547D01*
X022433Y020397D02*
X023611Y020397D01*
X023611Y020239D02*
X022506Y020239D01*
X022528Y019922D02*
X023611Y019922D01*
X023611Y020080D02*
X021932Y020080D01*
X021782Y020080D02*
X020197Y020080D01*
X020197Y019922D02*
X021186Y019922D01*
X021233Y019763D02*
X020137Y019763D01*
X020032Y019605D02*
X021330Y019605D01*
X021516Y019446D02*
X019809Y019446D01*
X020165Y020239D02*
X021208Y020239D01*
X021281Y020397D02*
X020099Y020397D01*
X019941Y020556D02*
X021419Y020556D01*
X021782Y020556D02*
X021932Y020556D01*
X021932Y020397D02*
X021782Y020397D01*
X021782Y020239D02*
X021932Y020239D01*
X021932Y019922D02*
X021782Y019922D01*
X021782Y019763D02*
X021932Y019763D01*
X021932Y019605D02*
X021782Y019605D01*
X021782Y019446D02*
X021932Y019446D01*
X022198Y019446D02*
X022803Y019446D01*
X022803Y019605D02*
X022384Y019605D01*
X022481Y019763D02*
X023611Y019763D01*
X023611Y019605D02*
X023459Y019605D01*
X022383Y018916D02*
X021438Y018916D01*
X021297Y018654D02*
X018949Y018654D01*
X018937Y018812D02*
X018791Y018812D01*
X018749Y018971D02*
X018632Y018971D01*
X018423Y019288D02*
X018315Y019288D01*
X018423Y019446D02*
X018157Y019446D01*
X017998Y019605D02*
X018423Y019605D01*
X017852Y019129D02*
X007237Y019129D01*
X007237Y018971D02*
X018010Y018971D01*
X018169Y018812D02*
X007237Y018812D01*
X007237Y018654D02*
X018327Y018654D01*
X018486Y018495D02*
X007237Y018495D01*
X007237Y018336D02*
X018644Y018336D01*
X018803Y018178D02*
X007237Y018178D01*
X007237Y018019D02*
X018961Y018019D01*
X019120Y017861D02*
X007237Y017861D01*
X007237Y017702D02*
X019278Y017702D01*
X019437Y017544D02*
X007237Y017544D01*
X007237Y017385D02*
X019596Y017385D01*
X019754Y017227D02*
X007237Y017227D01*
X007237Y017068D02*
X012227Y017068D01*
X012251Y017098D02*
X012202Y017039D01*
X012148Y016985D01*
X012140Y016965D01*
X011250Y015907D01*
X011243Y015904D01*
X011211Y015877D01*
X011174Y015858D01*
X011137Y015815D01*
X011094Y015778D01*
X011075Y015741D01*
X010211Y014721D01*
X010156Y014666D01*
X010148Y014647D01*
X010135Y014631D01*
X010111Y014557D01*
X010082Y014486D01*
X010082Y014465D01*
X010075Y014445D01*
X010082Y014368D01*
X010082Y013450D01*
X009499Y012867D01*
X008519Y012867D01*
X008459Y012892D01*
X008254Y012892D01*
X008064Y012813D01*
X007920Y012669D01*
X007841Y012479D01*
X007841Y012274D01*
X007920Y012085D01*
X008064Y011940D01*
X008254Y011862D01*
X008459Y011862D01*
X008519Y011887D01*
X009604Y011887D01*
X009799Y011887D01*
X009979Y011961D01*
X010849Y012832D01*
X010987Y012969D01*
X011062Y013149D01*
X011062Y014209D01*
X011715Y014980D01*
X011723Y014983D01*
X011756Y015011D01*
X011793Y015030D01*
X011829Y015073D01*
X011872Y015109D01*
X011891Y015147D01*
X012792Y016218D01*
X015857Y016221D01*
X015867Y016217D01*
X016064Y016217D01*
X016245Y016292D01*
X016384Y016431D01*
X016460Y016613D01*
X016460Y016810D01*
X016384Y016991D01*
X016245Y017131D01*
X016064Y017206D01*
X015867Y017206D01*
X015856Y017201D01*
X012639Y017198D01*
X012619Y017204D01*
X012542Y017197D01*
X012466Y017197D01*
X012446Y017189D01*
X012424Y017187D01*
X012356Y017152D01*
X012286Y017123D01*
X012271Y017107D01*
X012251Y017098D01*
X012093Y016910D02*
X007237Y016910D01*
X007237Y016751D02*
X011960Y016751D01*
X011827Y016592D02*
X007237Y016592D01*
X007237Y016434D02*
X011693Y016434D01*
X011560Y016275D02*
X007237Y016275D01*
X007237Y016117D02*
X011427Y016117D01*
X011293Y015958D02*
X007237Y015958D01*
X007237Y015800D02*
X009411Y015800D01*
X009424Y015813D02*
X009280Y015669D01*
X009201Y015479D01*
X009201Y015274D01*
X009280Y015085D01*
X009424Y014940D01*
X009614Y014862D01*
X009819Y014862D01*
X010008Y014940D01*
X010153Y015085D01*
X010231Y015274D01*
X010231Y015479D01*
X010153Y015669D01*
X010008Y015813D01*
X009819Y015892D01*
X009614Y015892D01*
X009424Y015813D01*
X009268Y015641D02*
X007237Y015641D01*
X007237Y015483D02*
X009203Y015483D01*
X009201Y015324D02*
X007237Y015324D01*
X007237Y015166D02*
X009246Y015166D01*
X009358Y015007D02*
X007237Y015007D01*
X007237Y014848D02*
X008834Y014848D01*
X008842Y014852D02*
X008484Y014703D01*
X008210Y014429D01*
X008061Y014071D01*
X008061Y013683D01*
X008210Y013325D01*
X008484Y013050D01*
X008842Y012902D01*
X009230Y012902D01*
X009589Y013050D01*
X009863Y013325D01*
X010011Y013683D01*
X010011Y014071D01*
X009863Y014429D01*
X009589Y014703D01*
X009230Y014852D01*
X008842Y014852D01*
X009238Y014848D02*
X010319Y014848D01*
X010453Y015007D02*
X010075Y015007D01*
X010186Y015166D02*
X010587Y015166D01*
X010722Y015324D02*
X010231Y015324D01*
X010230Y015483D02*
X010856Y015483D01*
X010990Y015641D02*
X010164Y015641D01*
X010022Y015800D02*
X011119Y015800D01*
X011907Y015166D02*
X012553Y015166D01*
X012587Y015085D02*
X012732Y014940D01*
X012921Y014862D01*
X013126Y014862D01*
X013315Y014940D01*
X013460Y015085D01*
X013538Y015274D01*
X013538Y015479D01*
X013460Y015669D01*
X013315Y015813D01*
X013126Y015892D01*
X012921Y015892D01*
X012732Y015813D01*
X012587Y015669D01*
X012508Y015479D01*
X012508Y015274D01*
X012587Y015085D01*
X012665Y015007D02*
X011751Y015007D01*
X011603Y014848D02*
X012141Y014848D01*
X011778Y014690D02*
X011469Y014690D01*
X011334Y014531D02*
X011619Y014531D01*
X011493Y014373D02*
X011200Y014373D01*
X011066Y014214D02*
X011428Y014214D01*
X011368Y014056D02*
X011062Y014056D01*
X011062Y013897D02*
X011368Y013897D01*
X011368Y013739D02*
X011062Y013739D01*
X011062Y013580D02*
X011411Y013580D01*
X011477Y013422D02*
X011062Y013422D01*
X011062Y013263D02*
X011578Y013263D01*
X011486Y013104D02*
X011043Y013104D01*
X010964Y012946D02*
X011186Y012946D01*
X011032Y012787D02*
X010805Y012787D01*
X010647Y012629D02*
X010967Y012629D01*
X010923Y012470D02*
X010488Y012470D01*
X010329Y012312D02*
X010923Y012312D01*
X010923Y012153D02*
X010171Y012153D01*
X010012Y011995D02*
X010923Y011995D01*
X010923Y011836D02*
X007237Y011836D01*
X007237Y011678D02*
X010923Y011678D01*
X010923Y011519D02*
X007237Y011519D01*
X007237Y011361D02*
X010923Y011361D01*
X010923Y011202D02*
X007237Y011202D01*
X007237Y011043D02*
X010923Y011043D01*
X010923Y010885D02*
X007237Y010885D01*
X007237Y010726D02*
X010923Y010726D01*
X010923Y010568D02*
X007237Y010568D01*
X007237Y010409D02*
X010982Y010409D01*
X011065Y010251D02*
X007237Y010251D01*
X007237Y010092D02*
X011223Y010092D01*
X011395Y009934D02*
X007237Y009934D01*
X007237Y009775D02*
X011554Y009775D01*
X011712Y009617D02*
X007237Y009617D01*
X007237Y009458D02*
X011871Y009458D01*
X012029Y009299D02*
X007237Y009299D01*
X007237Y009141D02*
X012188Y009141D01*
X012346Y008982D02*
X007237Y008982D01*
X007237Y008824D02*
X012505Y008824D01*
X012663Y008665D02*
X007237Y008665D01*
X007237Y008507D02*
X012822Y008507D01*
X012981Y008348D02*
X007237Y008348D01*
X007237Y008190D02*
X013139Y008190D01*
X013395Y008031D02*
X007237Y008031D01*
X007237Y007873D02*
X029577Y007873D01*
X029577Y008031D02*
X027945Y008031D01*
X028201Y008190D02*
X029577Y008190D01*
X029577Y008348D02*
X028335Y008348D01*
X028428Y008507D02*
X029577Y008507D01*
X029577Y008665D02*
X028586Y008665D01*
X028745Y008824D02*
X029577Y008824D01*
X029577Y008982D02*
X028903Y008982D01*
X029062Y009141D02*
X029577Y009141D01*
X029577Y009299D02*
X029220Y009299D01*
X029331Y009458D02*
X029577Y009458D01*
X029577Y009617D02*
X029397Y009617D01*
X029408Y009775D02*
X029577Y009775D01*
X029577Y009934D02*
X029408Y009934D01*
X029408Y010092D02*
X029577Y010092D01*
X029577Y010251D02*
X029408Y010251D01*
X029408Y010409D02*
X029577Y010409D01*
X029577Y010568D02*
X029408Y010568D01*
X029408Y010726D02*
X029577Y010726D01*
X029577Y010885D02*
X029408Y010885D01*
X029374Y011043D02*
X029577Y011043D01*
X029577Y011202D02*
X029308Y011202D01*
X029164Y011361D02*
X029577Y011361D01*
X029577Y011519D02*
X029006Y011519D01*
X028847Y011678D02*
X029577Y011678D01*
X029577Y011836D02*
X028689Y011836D01*
X028482Y011995D02*
X029577Y011995D01*
X029577Y012153D02*
X028301Y012153D01*
X028128Y012312D02*
X029577Y012312D01*
X029577Y012470D02*
X028449Y012470D01*
X028641Y012629D02*
X029577Y012629D01*
X029577Y012787D02*
X028725Y012787D01*
X028762Y012946D02*
X029577Y012946D01*
X029577Y013104D02*
X028762Y013104D01*
X028699Y013263D02*
X029577Y013263D01*
X029577Y013422D02*
X028579Y013422D01*
X028299Y013580D02*
X029577Y013580D01*
X029577Y013739D02*
X025712Y013739D01*
X025712Y013897D02*
X026258Y013897D01*
X026262Y013894D02*
X026342Y013836D01*
X026430Y013790D01*
X026524Y013760D01*
X026614Y013746D01*
X026614Y014317D01*
X026043Y014317D01*
X026057Y014227D01*
X026088Y014132D01*
X026133Y014044D01*
X026191Y013964D01*
X026262Y013894D01*
X026127Y014056D02*
X025712Y014056D01*
X025712Y014214D02*
X026061Y014214D01*
X026043Y014432D02*
X026614Y014432D01*
X026614Y014317D01*
X026729Y014317D01*
X026729Y013746D01*
X026819Y013760D01*
X026914Y013790D01*
X027002Y013836D01*
X027082Y013894D01*
X027152Y013964D01*
X027211Y014044D01*
X027256Y014132D01*
X027286Y014227D01*
X027301Y014317D01*
X026730Y014317D01*
X026730Y014432D01*
X027301Y014432D01*
X027286Y014522D01*
X027256Y014616D01*
X027211Y014704D01*
X027152Y014785D01*
X027082Y014855D01*
X027002Y014913D01*
X026914Y014958D01*
X026819Y014989D01*
X026729Y015003D01*
X026729Y014432D01*
X026614Y014432D01*
X026614Y015003D01*
X026524Y014989D01*
X026430Y014958D01*
X026342Y014913D01*
X026262Y014855D01*
X026191Y014785D01*
X026133Y014704D01*
X026088Y014616D01*
X026057Y014522D01*
X026043Y014432D01*
X026061Y014531D02*
X025712Y014531D01*
X025712Y014373D02*
X026614Y014373D01*
X026730Y014373D02*
X029577Y014373D01*
X029577Y014531D02*
X027283Y014531D01*
X027218Y014690D02*
X029577Y014690D01*
X029577Y014848D02*
X027089Y014848D01*
X026729Y014848D02*
X026614Y014848D01*
X026614Y014690D02*
X026729Y014690D01*
X026729Y014531D02*
X026614Y014531D01*
X026614Y014214D02*
X026729Y014214D01*
X026729Y014056D02*
X026614Y014056D01*
X026614Y013897D02*
X026729Y013897D01*
X026739Y013580D02*
X028045Y013580D01*
X027765Y013422D02*
X026912Y013422D01*
X027086Y013263D02*
X027645Y013263D01*
X027582Y013104D02*
X027259Y013104D01*
X027433Y012946D02*
X027582Y012946D01*
X027607Y012787D02*
X027619Y012787D01*
X027086Y013897D02*
X029577Y013897D01*
X029577Y014056D02*
X027217Y014056D01*
X027282Y014214D02*
X029577Y014214D01*
X029577Y015007D02*
X025712Y015007D01*
X025712Y014848D02*
X026255Y014848D01*
X026126Y014690D02*
X025712Y014690D01*
X025272Y014690D02*
X024500Y014690D01*
X024566Y014531D02*
X025272Y014531D01*
X025272Y014373D02*
X024582Y014373D01*
X024564Y014214D02*
X025272Y014214D01*
X025272Y014056D02*
X024499Y014056D01*
X024349Y013897D02*
X025272Y013897D01*
X025272Y013739D02*
X023701Y013739D01*
X023635Y013897D02*
X023524Y013897D01*
X023485Y014056D02*
X023438Y014056D01*
X023878Y013580D02*
X025072Y013580D01*
X024914Y013422D02*
X024056Y013422D01*
X024233Y013263D02*
X024834Y013263D01*
X024781Y013104D02*
X024410Y013104D01*
X024587Y012946D02*
X024781Y012946D01*
X024764Y012787D02*
X024808Y012787D01*
X025492Y012994D02*
X025492Y016094D01*
X025942Y016544D01*
X026291Y016910D02*
X026573Y016910D01*
X026461Y016751D02*
X026403Y016751D01*
X026377Y016275D02*
X026487Y016275D01*
X026635Y016117D02*
X026229Y016117D01*
X025712Y015958D02*
X029577Y015958D01*
X029577Y015800D02*
X025712Y015800D01*
X025712Y015641D02*
X029577Y015641D01*
X029577Y015483D02*
X025712Y015483D01*
X025712Y015324D02*
X029577Y015324D01*
X029577Y015166D02*
X025712Y015166D01*
X025272Y015166D02*
X023438Y015166D01*
X023438Y015324D02*
X025272Y015324D01*
X025272Y015483D02*
X023438Y015483D01*
X023438Y015641D02*
X025272Y015641D01*
X025272Y015800D02*
X023438Y015800D01*
X023438Y015958D02*
X025272Y015958D01*
X025272Y016117D02*
X024591Y016117D01*
X024607Y016129D02*
X024668Y016189D01*
X024718Y016259D01*
X024757Y016335D01*
X024784Y016417D01*
X024797Y016501D01*
X024797Y016517D01*
X024280Y016517D01*
X024280Y016572D01*
X024797Y016572D01*
X024797Y016587D01*
X024784Y016672D01*
X024757Y016754D01*
X024718Y016830D01*
X024668Y016899D01*
X024607Y016960D01*
X024538Y017010D01*
X024461Y017049D01*
X024380Y017076D01*
X024295Y017089D01*
X024279Y017089D01*
X024279Y016572D01*
X024224Y016572D01*
X024224Y016517D01*
X023707Y016517D01*
X023707Y016501D01*
X023720Y016417D01*
X023747Y016335D01*
X023786Y016259D01*
X023836Y016189D01*
X023897Y016129D01*
X023966Y016078D01*
X024043Y016039D01*
X024124Y016013D01*
X024209Y015999D01*
X024224Y015999D01*
X024224Y016517D01*
X024279Y016517D01*
X024279Y015999D01*
X024295Y015999D01*
X024380Y016013D01*
X024461Y016039D01*
X024538Y016078D01*
X024607Y016129D01*
X024727Y016275D02*
X025362Y016275D01*
X025441Y016434D02*
X024786Y016434D01*
X024796Y016592D02*
X025437Y016592D01*
X025481Y016751D02*
X024758Y016751D01*
X024657Y016910D02*
X025593Y016910D01*
X024404Y017068D02*
X029577Y017068D01*
X029577Y016910D02*
X028961Y016910D01*
X028898Y016972D02*
X029040Y016830D01*
X029117Y016645D01*
X029117Y016444D01*
X029040Y016258D01*
X028898Y016116D01*
X028712Y016039D01*
X028511Y016039D01*
X028326Y016116D01*
X028184Y016258D01*
X028107Y016444D01*
X028107Y016645D01*
X028184Y016830D01*
X028326Y016972D01*
X028511Y017049D01*
X028712Y017049D01*
X028898Y016972D01*
X029073Y016751D02*
X029577Y016751D01*
X029577Y016592D02*
X029117Y016592D01*
X029113Y016434D02*
X029577Y016434D01*
X029577Y016275D02*
X029047Y016275D01*
X028899Y016117D02*
X029577Y016117D01*
X028325Y016117D02*
X027209Y016117D01*
X027357Y016275D02*
X028177Y016275D01*
X028111Y016434D02*
X027423Y016434D01*
X027427Y016592D02*
X028107Y016592D01*
X028151Y016751D02*
X027383Y016751D01*
X027271Y016910D02*
X028263Y016910D01*
X029577Y017227D02*
X023889Y017227D01*
X023727Y017068D02*
X024100Y017068D01*
X024124Y017076D02*
X024043Y017049D01*
X023966Y017010D01*
X023897Y016960D01*
X023836Y016899D01*
X023786Y016830D01*
X023747Y016754D01*
X023720Y016672D01*
X023707Y016587D01*
X023707Y016572D01*
X024224Y016572D01*
X024224Y017089D01*
X024209Y017089D01*
X024124Y017076D01*
X024224Y017068D02*
X024279Y017068D01*
X024279Y016910D02*
X024224Y016910D01*
X024224Y016751D02*
X024279Y016751D01*
X024279Y016592D02*
X024224Y016592D01*
X024224Y016434D02*
X024279Y016434D01*
X024279Y016275D02*
X024224Y016275D01*
X024224Y016117D02*
X024279Y016117D01*
X023913Y016117D02*
X023438Y016117D01*
X023438Y016275D02*
X023777Y016275D01*
X023718Y016434D02*
X023438Y016434D01*
X023438Y016592D02*
X023708Y016592D01*
X023746Y016751D02*
X023438Y016751D01*
X023568Y016910D02*
X023846Y016910D01*
X024057Y017385D02*
X029577Y017385D01*
X029577Y017544D02*
X024225Y017544D01*
X024393Y017702D02*
X029577Y017702D01*
X029577Y017861D02*
X024561Y017861D01*
X024729Y018019D02*
X029577Y018019D01*
X029577Y018178D02*
X024897Y018178D01*
X025010Y018336D02*
X029577Y018336D01*
X029577Y018495D02*
X025079Y018495D01*
X025091Y018654D02*
X029577Y018654D01*
X029577Y018812D02*
X025093Y018812D01*
X025091Y018971D02*
X029577Y018971D01*
X029577Y019129D02*
X025091Y019129D01*
X025091Y019288D02*
X029577Y019288D01*
X029577Y019446D02*
X025091Y019446D01*
X025091Y019605D02*
X029577Y019605D01*
X029577Y019763D02*
X025091Y019763D01*
X025091Y019922D02*
X029577Y019922D01*
X029577Y020080D02*
X028965Y020080D01*
X029249Y020239D02*
X029577Y020239D01*
X029577Y020397D02*
X029409Y020397D01*
X029527Y020556D02*
X029577Y020556D01*
X028089Y020080D02*
X025091Y020080D01*
X025091Y020239D02*
X027805Y020239D01*
X027646Y020397D02*
X025091Y020397D01*
X025091Y020556D02*
X027527Y020556D01*
X027436Y020715D02*
X025091Y020715D01*
X025091Y020873D02*
X027389Y020873D01*
X027347Y021032D02*
X025091Y021032D01*
X025091Y021190D02*
X027347Y021190D01*
X027349Y021349D02*
X025091Y021349D01*
X025091Y021507D02*
X027392Y021507D01*
X027442Y021666D02*
X025091Y021666D01*
X025091Y021824D02*
X027534Y021824D01*
X027656Y021983D02*
X025091Y021983D01*
X025091Y022141D02*
X027824Y022141D01*
X028130Y022300D02*
X025095Y022300D01*
X025039Y022459D02*
X029577Y022459D01*
X029577Y022617D02*
X024965Y022617D01*
X024814Y022776D02*
X029577Y022776D01*
X029577Y022934D02*
X024671Y022934D01*
X024529Y023093D02*
X029577Y023093D01*
X029577Y023251D02*
X024386Y023251D01*
X024243Y023410D02*
X029577Y023410D01*
X029577Y023568D02*
X024100Y023568D01*
X023958Y023727D02*
X029577Y023727D01*
X029577Y023885D02*
X023815Y023885D01*
X023672Y024044D02*
X029577Y024044D01*
X029577Y024203D02*
X023537Y024203D01*
X023387Y024361D02*
X029577Y024361D01*
X029577Y022300D02*
X028924Y022300D01*
X029230Y022141D02*
X029577Y022141D01*
X029577Y021983D02*
X029398Y021983D01*
X029520Y021824D02*
X029577Y021824D01*
X022109Y017544D02*
X021845Y017544D01*
X022021Y017385D02*
X020218Y017385D01*
X020376Y017227D02*
X021958Y017227D01*
X021958Y017068D02*
X020535Y017068D01*
X020693Y016910D02*
X021958Y016910D01*
X021958Y016751D02*
X020852Y016751D01*
X020949Y016592D02*
X021958Y016592D01*
X021958Y016434D02*
X020949Y016434D01*
X020949Y016275D02*
X021958Y016275D01*
X021958Y016117D02*
X020949Y016117D01*
X020949Y015958D02*
X021958Y015958D01*
X021958Y015800D02*
X020949Y015800D01*
X020949Y015641D02*
X021958Y015641D01*
X021958Y015074D02*
X021530Y015074D01*
X021530Y015048D01*
X021448Y014966D01*
X020955Y014966D01*
X020949Y014972D01*
X020949Y014125D01*
X023934Y011141D01*
X024135Y011224D01*
X024320Y011224D01*
X022325Y013010D01*
X022278Y013029D01*
X022070Y013237D01*
X021958Y013509D01*
X021958Y014028D01*
X021936Y013987D01*
X021892Y013926D01*
X021839Y013872D01*
X021778Y013828D01*
X021710Y013793D01*
X021638Y013770D01*
X021564Y013758D01*
X021546Y013758D01*
X021546Y014218D01*
X021506Y014218D01*
X021506Y013758D01*
X021488Y013758D01*
X021414Y013770D01*
X021342Y013793D01*
X021274Y013828D01*
X021213Y013872D01*
X021160Y013926D01*
X021115Y013987D01*
X021081Y014054D01*
X021058Y014126D01*
X021046Y014200D01*
X021046Y014218D01*
X021506Y014218D01*
X021506Y014258D01*
X021046Y014258D01*
X021046Y014276D01*
X021058Y014351D01*
X021081Y014423D01*
X021115Y014490D01*
X021160Y014551D01*
X021213Y014604D01*
X021274Y014649D01*
X021342Y014683D01*
X021414Y014706D01*
X021488Y014718D01*
X021506Y014718D01*
X021506Y014259D01*
X021546Y014259D01*
X021546Y014718D01*
X021564Y014718D01*
X021638Y014706D01*
X021710Y014683D01*
X021778Y014649D01*
X021839Y014604D01*
X021892Y014551D01*
X021936Y014490D01*
X021958Y014448D01*
X021958Y015074D01*
X021958Y015007D02*
X021489Y015007D01*
X021506Y014690D02*
X021546Y014690D01*
X021689Y014690D02*
X021958Y014690D01*
X021958Y014848D02*
X020949Y014848D01*
X020949Y014690D02*
X021363Y014690D01*
X021506Y014531D02*
X021546Y014531D01*
X021546Y014373D02*
X021506Y014373D01*
X021506Y014214D02*
X021546Y014214D01*
X021546Y014056D02*
X021506Y014056D01*
X021506Y013897D02*
X021546Y013897D01*
X021336Y013739D02*
X021958Y013739D01*
X021958Y013897D02*
X021864Y013897D01*
X021958Y013580D02*
X021494Y013580D01*
X021653Y013422D02*
X021994Y013422D01*
X022060Y013263D02*
X021811Y013263D01*
X021970Y013104D02*
X022203Y013104D01*
X022129Y012946D02*
X022396Y012946D01*
X022287Y012787D02*
X022573Y012787D01*
X022446Y012629D02*
X022750Y012629D01*
X022604Y012470D02*
X022928Y012470D01*
X022763Y012312D02*
X023105Y012312D01*
X023282Y012153D02*
X022921Y012153D01*
X023080Y011995D02*
X023459Y011995D01*
X023636Y011836D02*
X023238Y011836D01*
X023397Y011678D02*
X023814Y011678D01*
X023991Y011519D02*
X023555Y011519D01*
X023714Y011361D02*
X024168Y011361D01*
X024081Y011202D02*
X023873Y011202D01*
X023567Y010885D02*
X020752Y010885D01*
X020752Y011043D02*
X023409Y011043D01*
X023250Y011202D02*
X020752Y011202D01*
X020752Y011361D02*
X023092Y011361D01*
X022933Y011519D02*
X020752Y011519D01*
X020752Y011660D02*
X020752Y011842D01*
X020044Y012551D01*
X020044Y013471D01*
X020513Y013940D01*
X020638Y013814D01*
X023673Y010779D01*
X023662Y010752D01*
X023662Y010517D01*
X023752Y010300D01*
X023918Y010134D01*
X024135Y010044D01*
X024369Y010044D01*
X024586Y010134D01*
X024752Y010300D01*
X024842Y010517D01*
X024842Y010752D01*
X024838Y010761D01*
X025683Y010005D01*
X025958Y009909D01*
X026248Y009925D01*
X026264Y009932D01*
X027064Y009922D01*
X027326Y010026D01*
X027529Y010224D01*
X027641Y010483D01*
X027645Y010766D01*
X027642Y010774D01*
X027693Y010722D01*
X027709Y010716D01*
X027722Y010704D01*
X027773Y010685D01*
X027947Y010511D01*
X027947Y010093D01*
X027304Y009450D01*
X020752Y009450D01*
X020752Y011660D01*
X020752Y011678D02*
X022775Y011678D01*
X022616Y011836D02*
X020752Y011836D01*
X020600Y011995D02*
X022458Y011995D01*
X022299Y012153D02*
X020441Y012153D01*
X020282Y012312D02*
X022141Y012312D01*
X021982Y012470D02*
X020124Y012470D01*
X020044Y012629D02*
X021823Y012629D01*
X021665Y012787D02*
X020044Y012787D01*
X020044Y012946D02*
X020196Y012946D01*
X020153Y012989D02*
X020277Y012865D01*
X020438Y012798D01*
X020614Y012798D01*
X020775Y012865D01*
X020899Y012989D01*
X020966Y013151D01*
X020966Y013326D01*
X020899Y013487D01*
X020775Y013611D01*
X020614Y013678D01*
X020438Y013678D01*
X020277Y013611D01*
X020153Y013487D01*
X020086Y013326D01*
X020086Y013151D01*
X020153Y012989D01*
X020105Y013104D02*
X020044Y013104D01*
X020044Y013263D02*
X020086Y013263D01*
X020126Y013422D02*
X020044Y013422D01*
X020153Y013580D02*
X020246Y013580D01*
X020311Y013739D02*
X020714Y013739D01*
X020806Y013580D02*
X020872Y013580D01*
X020926Y013422D02*
X021031Y013422D01*
X020966Y013263D02*
X021189Y013263D01*
X021348Y013104D02*
X020947Y013104D01*
X020856Y012946D02*
X021506Y012946D01*
X021188Y013897D02*
X021177Y013897D01*
X021081Y014056D02*
X021019Y014056D01*
X021046Y014214D02*
X020949Y014214D01*
X020949Y014373D02*
X021065Y014373D01*
X021146Y014531D02*
X020949Y014531D01*
X020509Y014531D02*
X020415Y014531D01*
X020509Y014690D02*
X020319Y014690D01*
X020319Y014848D02*
X020509Y014848D01*
X020509Y015007D02*
X020386Y015007D01*
X020427Y015166D02*
X020509Y015166D01*
X020509Y015324D02*
X020427Y015324D01*
X020427Y015483D02*
X020509Y015483D01*
X020509Y015641D02*
X016115Y015641D01*
X016115Y015483D02*
X019771Y015483D01*
X019771Y015324D02*
X015158Y015324D01*
X015338Y015483D02*
X015459Y015483D01*
X015459Y015482D02*
X015541Y015400D01*
X016033Y015400D01*
X016115Y015482D01*
X016115Y015974D01*
X016033Y016056D01*
X015541Y016056D01*
X015459Y015974D01*
X015459Y015943D01*
X015282Y015941D01*
X015200Y015946D01*
X015192Y015940D01*
X015182Y015940D01*
X015125Y015880D01*
X014009Y014902D01*
X014001Y014902D01*
X013942Y014843D01*
X013879Y014788D01*
X013878Y014779D01*
X013872Y014773D01*
X013872Y014690D01*
X012909Y014690D01*
X013068Y014531D02*
X013872Y014531D01*
X013872Y014600D02*
X013872Y012618D01*
X013846Y012618D01*
X013764Y012536D01*
X013764Y012044D01*
X013846Y011962D01*
X014338Y011962D01*
X014420Y012044D01*
X014420Y012536D01*
X014338Y012618D01*
X014312Y012618D01*
X014312Y014583D01*
X015360Y015502D01*
X015459Y015503D01*
X015459Y015482D01*
X015276Y015721D02*
X014092Y014682D01*
X014092Y012290D01*
X013764Y012312D02*
X012403Y012312D01*
X012403Y012470D02*
X013764Y012470D01*
X013872Y012629D02*
X012360Y012629D01*
X012294Y012787D02*
X013872Y012787D01*
X013872Y012946D02*
X012644Y012946D01*
X012950Y013104D02*
X013872Y013104D01*
X013872Y013263D02*
X013108Y013263D01*
X013210Y013422D02*
X013872Y013422D01*
X013872Y013580D02*
X013276Y013580D01*
X013318Y013739D02*
X013872Y013739D01*
X013872Y013897D02*
X013318Y013897D01*
X013318Y014056D02*
X013872Y014056D01*
X013872Y014214D02*
X013259Y014214D01*
X013193Y014373D02*
X013872Y014373D01*
X013872Y014600D02*
X013867Y014606D01*
X013872Y014690D01*
X013947Y014848D02*
X012545Y014848D01*
X012508Y015324D02*
X012040Y015324D01*
X012174Y015483D02*
X012510Y015483D01*
X012575Y015641D02*
X012307Y015641D01*
X012440Y015800D02*
X012718Y015800D01*
X012574Y015958D02*
X015459Y015958D01*
X015276Y015721D02*
X015787Y015728D01*
X016115Y015800D02*
X020509Y015800D01*
X020509Y015958D02*
X016115Y015958D01*
X016204Y016275D02*
X020509Y016275D01*
X020509Y016117D02*
X012707Y016117D01*
X013329Y015800D02*
X015033Y015800D01*
X014852Y015641D02*
X013471Y015641D01*
X013537Y015483D02*
X014671Y015483D01*
X014490Y015324D02*
X013538Y015324D01*
X013493Y015166D02*
X014309Y015166D01*
X014129Y015007D02*
X013382Y015007D01*
X014312Y014531D02*
X019204Y014531D01*
X019111Y014373D02*
X014312Y014373D01*
X014312Y014214D02*
X019091Y014214D01*
X019130Y014056D02*
X014312Y014056D01*
X014312Y013897D02*
X019251Y013897D01*
X019604Y013580D02*
X014312Y013580D01*
X014312Y013422D02*
X014385Y013422D01*
X014377Y013414D02*
X014377Y012922D01*
X014459Y012840D01*
X014705Y012840D01*
X014836Y012694D01*
X014836Y012688D01*
X014896Y012627D01*
X014953Y012564D01*
X014960Y012563D01*
X014965Y012559D01*
X015050Y012558D01*
X015135Y012554D01*
X015140Y012558D01*
X018552Y012555D01*
X018553Y012554D01*
X018643Y012554D01*
X018733Y012554D01*
X018734Y012555D01*
X018755Y012556D01*
X018755Y012532D01*
X018837Y012450D01*
X019330Y012450D01*
X019412Y012532D01*
X019412Y013025D01*
X019330Y013106D01*
X018837Y013106D01*
X018755Y013025D01*
X018755Y012995D01*
X018639Y012994D01*
X015154Y012998D01*
X015034Y013132D01*
X015034Y013414D01*
X014952Y013496D01*
X014459Y013496D01*
X014377Y013414D01*
X014377Y013263D02*
X014312Y013263D01*
X014312Y013104D02*
X014377Y013104D01*
X014377Y012946D02*
X014312Y012946D01*
X014312Y012787D02*
X014752Y012787D01*
X014894Y012629D02*
X014312Y012629D01*
X014420Y012470D02*
X018817Y012470D01*
X018643Y012774D02*
X019076Y012778D01*
X019083Y012778D01*
X019412Y012787D02*
X019604Y012787D01*
X019604Y012629D02*
X019412Y012629D01*
X019350Y012470D02*
X019604Y012470D01*
X019660Y012312D02*
X014420Y012312D01*
X014420Y012153D02*
X019819Y012153D01*
X019977Y011995D02*
X014371Y011995D01*
X013813Y011995D02*
X012403Y011995D01*
X012403Y012153D02*
X013764Y012153D01*
X014706Y013168D02*
X015056Y012778D01*
X018643Y012774D01*
X018835Y013104D02*
X015059Y013104D01*
X015034Y013263D02*
X019604Y013263D01*
X019604Y013104D02*
X019332Y013104D01*
X019412Y012946D02*
X019604Y012946D01*
X019604Y013422D02*
X015026Y013422D01*
X014312Y013739D02*
X019689Y013739D01*
X019800Y013897D02*
X019848Y013897D01*
X019921Y014056D02*
X020006Y014056D01*
X019961Y014214D02*
X020103Y014214D01*
X019984Y014373D02*
X019941Y014373D01*
X019869Y014531D02*
X019848Y014531D01*
X019879Y014690D02*
X014434Y014690D01*
X014615Y014848D02*
X019879Y014848D01*
X019812Y015007D02*
X014796Y015007D01*
X014977Y015166D02*
X019771Y015166D01*
X020099Y015294D02*
X020099Y014586D01*
X020335Y014271D01*
X020335Y014074D01*
X019824Y013562D01*
X019824Y012460D01*
X020532Y011751D01*
X020532Y008719D01*
X020564Y008719D01*
X020752Y009458D02*
X027313Y009458D01*
X027471Y009617D02*
X020752Y009617D01*
X020752Y009775D02*
X027630Y009775D01*
X027788Y009934D02*
X027094Y009934D01*
X027394Y010092D02*
X027947Y010092D01*
X027947Y010251D02*
X027541Y010251D01*
X027609Y010409D02*
X027947Y010409D01*
X027891Y010568D02*
X027642Y010568D01*
X027644Y010726D02*
X027689Y010726D01*
X025886Y009934D02*
X020752Y009934D01*
X020752Y010092D02*
X024019Y010092D01*
X023801Y010251D02*
X020752Y010251D01*
X020752Y010409D02*
X023707Y010409D01*
X023662Y010568D02*
X020752Y010568D01*
X020752Y010726D02*
X023662Y010726D01*
X024129Y010634D02*
X020729Y014034D01*
X020729Y016563D01*
X017257Y020035D01*
X016782Y019605D02*
X015432Y019605D01*
X015537Y019763D02*
X016677Y019763D01*
X016617Y019922D02*
X015597Y019922D01*
X015209Y019446D02*
X017005Y019446D01*
X019108Y018495D02*
X021297Y018495D01*
X021297Y018336D02*
X019266Y018336D01*
X019425Y018178D02*
X021297Y018178D01*
X021188Y018019D02*
X019584Y018019D01*
X019742Y017861D02*
X021188Y017861D01*
X021188Y017702D02*
X019901Y017702D01*
X020059Y017544D02*
X021188Y017544D01*
X020230Y016751D02*
X016460Y016751D01*
X016451Y016592D02*
X020388Y016592D01*
X020509Y016434D02*
X016385Y016434D01*
X016418Y016910D02*
X020071Y016910D01*
X019913Y017068D02*
X016308Y017068D01*
X020470Y013897D02*
X020555Y013897D01*
X021906Y014531D02*
X021958Y014531D01*
X022698Y015294D02*
X021202Y015294D01*
X023438Y015007D02*
X025272Y015007D01*
X025272Y014848D02*
X024352Y014848D01*
X023632Y014848D02*
X023438Y014848D01*
X023438Y014690D02*
X023484Y014690D01*
X020136Y011836D02*
X012403Y011836D01*
X012403Y011678D02*
X020294Y011678D01*
X020312Y011519D02*
X012403Y011519D01*
X012403Y011361D02*
X020312Y011361D01*
X020312Y011202D02*
X012403Y011202D01*
X012403Y011043D02*
X020312Y011043D01*
X020312Y010885D02*
X012510Y010885D01*
X012669Y010726D02*
X020312Y010726D01*
X020312Y010568D02*
X012827Y010568D01*
X012986Y010409D02*
X020312Y010409D01*
X020312Y010251D02*
X013144Y010251D01*
X013303Y010092D02*
X020312Y010092D01*
X020312Y009934D02*
X013461Y009934D01*
X013620Y009775D02*
X020312Y009775D01*
X020312Y009617D02*
X013778Y009617D01*
X013937Y009458D02*
X020312Y009458D01*
X024129Y010634D02*
X024252Y010634D01*
X024703Y010251D02*
X025409Y010251D01*
X025586Y010092D02*
X024485Y010092D01*
X024797Y010409D02*
X025231Y010409D01*
X025054Y010568D02*
X024842Y010568D01*
X024842Y010726D02*
X024877Y010726D01*
X029577Y007714D02*
X007237Y007714D01*
X007237Y007555D02*
X029577Y007555D01*
X029577Y007397D02*
X007237Y007397D01*
X007237Y007238D02*
X029577Y007238D01*
X029577Y007080D02*
X007237Y007080D01*
X007237Y006921D02*
X029577Y006921D01*
X029577Y006763D02*
X007237Y006763D01*
X007237Y006604D02*
X029577Y006604D01*
X029577Y006446D02*
X007237Y006446D01*
X007237Y006287D02*
X029577Y006287D01*
X029577Y006129D02*
X007237Y006129D01*
X007237Y005970D02*
X029577Y005970D01*
X029577Y005811D02*
X007237Y005811D01*
X007237Y005653D02*
X029577Y005653D01*
X029577Y005494D02*
X007237Y005494D01*
X007237Y005336D02*
X029577Y005336D01*
X029577Y005177D02*
X028680Y005177D01*
X028640Y005200D02*
X028371Y005272D01*
X028093Y005272D01*
X027824Y005200D01*
X027583Y005061D01*
X027387Y004864D01*
X027248Y004623D01*
X027176Y004355D01*
X027176Y004076D01*
X027248Y003808D01*
X027387Y003567D01*
X027583Y003370D01*
X027824Y003231D01*
X028093Y003159D01*
X028371Y003159D01*
X028640Y003231D01*
X028881Y003370D01*
X029078Y003567D01*
X029217Y003808D01*
X029289Y004076D01*
X029289Y004355D01*
X029217Y004623D01*
X029078Y004864D01*
X028881Y005061D01*
X028640Y005200D01*
X028923Y005019D02*
X029577Y005019D01*
X029577Y004860D02*
X029080Y004860D01*
X029172Y004702D02*
X029577Y004702D01*
X029577Y004543D02*
X029239Y004543D01*
X029281Y004385D02*
X029577Y004385D01*
X029577Y004226D02*
X029289Y004226D01*
X029287Y004068D02*
X029577Y004068D01*
X029577Y003909D02*
X029244Y003909D01*
X029184Y003750D02*
X029577Y003750D01*
X029577Y003592D02*
X029092Y003592D01*
X028945Y003433D02*
X029577Y003433D01*
X029577Y003275D02*
X028717Y003275D01*
X029577Y003116D02*
X007237Y003116D01*
X007237Y002958D02*
X029577Y002958D01*
X027748Y003275D02*
X009064Y003275D01*
X008987Y003231D02*
X009228Y003370D01*
X009425Y003567D01*
X009564Y003808D01*
X009636Y004076D01*
X009636Y004355D01*
X009564Y004623D01*
X009425Y004864D01*
X009228Y005061D01*
X008987Y005200D01*
X008719Y005272D01*
X008440Y005272D01*
X008172Y005200D01*
X007931Y005061D01*
X007734Y004864D01*
X007595Y004623D01*
X007523Y004355D01*
X007523Y004076D01*
X007595Y003808D01*
X007734Y003567D01*
X007931Y003370D01*
X008172Y003231D01*
X008440Y003159D01*
X008719Y003159D01*
X008987Y003231D01*
X009292Y003433D02*
X027520Y003433D01*
X027372Y003592D02*
X009440Y003592D01*
X009531Y003750D02*
X027280Y003750D01*
X027220Y003909D02*
X009591Y003909D01*
X009634Y004068D02*
X027178Y004068D01*
X027176Y004226D02*
X009636Y004226D01*
X009628Y004385D02*
X027184Y004385D01*
X027226Y004543D02*
X009586Y004543D01*
X009519Y004702D02*
X027293Y004702D01*
X027384Y004860D02*
X009427Y004860D01*
X009271Y005019D02*
X027541Y005019D01*
X027785Y005177D02*
X009027Y005177D01*
X008132Y005177D02*
X007237Y005177D01*
X007237Y005019D02*
X007888Y005019D01*
X007732Y004860D02*
X007237Y004860D01*
X007237Y004702D02*
X007640Y004702D01*
X007573Y004543D02*
X007237Y004543D01*
X007237Y004385D02*
X007531Y004385D01*
X007523Y004226D02*
X007237Y004226D01*
X007237Y004068D02*
X007525Y004068D01*
X007568Y003909D02*
X007237Y003909D01*
X007237Y003750D02*
X007628Y003750D01*
X007719Y003592D02*
X007237Y003592D01*
X007237Y003433D02*
X007867Y003433D01*
X008095Y003275D02*
X007237Y003275D01*
X007237Y011995D02*
X008010Y011995D01*
X007891Y012153D02*
X007237Y012153D01*
X007237Y012312D02*
X007841Y012312D01*
X007841Y012470D02*
X007237Y012470D01*
X007237Y012629D02*
X007903Y012629D01*
X008038Y012787D02*
X007237Y012787D01*
X007237Y012946D02*
X008736Y012946D01*
X008430Y013104D02*
X007237Y013104D01*
X007237Y013263D02*
X008271Y013263D01*
X008169Y013422D02*
X007237Y013422D01*
X007237Y013580D02*
X008104Y013580D01*
X008061Y013739D02*
X007237Y013739D01*
X007237Y013897D02*
X008061Y013897D01*
X008061Y014056D02*
X007237Y014056D01*
X007237Y014214D02*
X008121Y014214D01*
X008186Y014373D02*
X007237Y014373D01*
X007237Y014531D02*
X008312Y014531D01*
X008470Y014690D02*
X007237Y014690D01*
X009602Y014690D02*
X010180Y014690D01*
X010100Y014531D02*
X009761Y014531D01*
X009886Y014373D02*
X010081Y014373D01*
X010082Y014214D02*
X009952Y014214D01*
X010011Y014056D02*
X010082Y014056D01*
X010082Y013897D02*
X010011Y013897D01*
X010011Y013739D02*
X010082Y013739D01*
X010082Y013580D02*
X009969Y013580D01*
X009903Y013422D02*
X010053Y013422D01*
X009895Y013263D02*
X009801Y013263D01*
X009736Y013104D02*
X009643Y013104D01*
X009578Y012946D02*
X009337Y012946D01*
X011663Y012377D02*
X011667Y012381D01*
X014882Y021824D02*
X015032Y021824D01*
X015032Y021983D02*
X014882Y021983D01*
X014882Y022141D02*
X015032Y022141D01*
X015032Y022300D02*
X016617Y022300D01*
X016617Y022459D02*
X015627Y022459D01*
X015576Y022617D02*
X016681Y022617D01*
X016793Y022776D02*
X015476Y022776D01*
X015279Y022934D02*
X017032Y022934D01*
X016644Y022141D02*
X015609Y022141D01*
X015539Y021983D02*
X016710Y021983D01*
X016862Y021824D02*
X015408Y021824D01*
D17*
X012304Y019349D03*
X011127Y017086D03*
X008131Y018798D03*
X009784Y023570D03*
X015787Y015728D03*
X018564Y015511D03*
X020099Y015294D03*
X021202Y015294D03*
X021595Y016672D03*
X021517Y017774D03*
X023131Y019389D03*
X027107Y019586D03*
X026595Y023483D03*
X024737Y015495D03*
X028170Y015019D03*
X022698Y010334D03*
X019312Y011475D03*
X019083Y012778D03*
X016879Y011688D03*
X014706Y013168D03*
X014092Y012290D03*
X013328Y011515D03*
X010497Y011794D03*
X008123Y008613D03*
X012143Y003987D03*
X025753Y004660D03*
X028883Y007503D03*
D18*
X022698Y013656D02*
X022698Y015294D01*
X022698Y017086D01*
X023301Y017689D01*
X024351Y018680D01*
X024351Y022184D01*
X022929Y023763D01*
X020443Y023763D01*
X019557Y022335D01*
X011663Y012377D02*
X011663Y010699D01*
D19*
X025492Y012994D02*
X026297Y012994D01*
X026062Y010646D02*
X026932Y010634D01*
D20*
X026062Y010646D02*
X022698Y013656D01*
X026297Y012994D02*
X028107Y011341D01*
X028150Y011341D01*
X028678Y010814D01*
X028678Y009790D01*
X027698Y008810D01*
X027698Y008719D01*
X020564Y008719D01*
X013643Y008719D01*
X011663Y010699D01*
D21*
X015965Y016711D03*
X017540Y016704D03*
D22*
X015965Y016711D02*
X012564Y016708D01*
X011481Y015420D01*
X011485Y015467D01*
X010572Y014389D01*
X010572Y013247D01*
X009702Y012377D01*
X008356Y012377D01*
M02*
