G75*
G70*
%OFA0B0*%
%FSLAX24Y24*%
%IPPOS*%
%LPD*%
%AMOC8*
5,1,8,0,0,1.08239X$1,22.5*
%
%ADD10C,0.1734*%
%ADD11R,0.0789X0.0710*%
%ADD12R,0.0480X0.0230*%
%ADD13R,0.0474X0.0513*%
%ADD14C,0.1980*%
%ADD15C,0.1080*%
%ADD16R,0.0950X0.0320*%
%ADD17C,0.0980*%
%ADD18C,0.0810*%
%ADD19C,0.0671*%
%ADD20C,0.0680*%
%ADD21R,0.0631X0.0631*%
%ADD22C,0.0830*%
%ADD23C,0.1570*%
%ADD24R,0.0456X0.0456*%
%ADD25C,0.0789*%
D10*
X008580Y004215D03*
X028232Y004215D03*
D11*
X014853Y014367D03*
X014853Y015469D03*
D12*
X015785Y014901D03*
X015785Y014645D03*
X015785Y014389D03*
X015785Y014133D03*
X017557Y014133D03*
X017557Y014389D03*
X017557Y014645D03*
X017557Y014901D03*
D13*
X017224Y015721D03*
X016554Y015721D03*
X018446Y014480D03*
X018446Y013811D03*
D14*
X028527Y021185D03*
X008287Y021185D03*
D15*
X014957Y022335D03*
X017257Y022335D03*
X019557Y022335D03*
X021857Y022335D03*
X021857Y020035D03*
X019557Y020035D03*
X017257Y020035D03*
X014957Y020035D03*
D16*
X015841Y013071D03*
X015841Y012571D03*
X015841Y012071D03*
X015841Y011571D03*
X017901Y011571D03*
X017901Y012071D03*
X017901Y012571D03*
X017901Y013071D03*
D17*
X023992Y014374D03*
X025492Y012994D03*
X026672Y014374D03*
X028172Y012994D03*
X026932Y010634D03*
X024252Y010634D03*
D18*
X024252Y016544D03*
X025942Y016544D03*
X026922Y016544D03*
X028612Y016544D03*
D19*
X019526Y014238D03*
D20*
X020526Y013238D03*
X021526Y014238D03*
D21*
X020808Y016160D03*
X020808Y017026D03*
X019312Y017026D03*
X019312Y016160D03*
D22*
X013023Y015377D03*
X009716Y015377D03*
X008356Y012377D03*
X011663Y012377D03*
D23*
X012343Y013877D03*
X009036Y013877D03*
D24*
X010497Y011794D03*
X013328Y011515D03*
X014092Y012290D03*
X014706Y013168D03*
X016879Y011688D03*
X019083Y012778D03*
X019312Y011475D03*
X022698Y010334D03*
X028170Y015019D03*
X024737Y015495D03*
X021595Y016672D03*
X021517Y017774D03*
X023131Y019389D03*
X027107Y019586D03*
X026595Y023483D03*
X018564Y015511D03*
X020099Y015294D03*
X021202Y015294D03*
X015787Y015728D03*
X012304Y019349D03*
X011127Y017086D03*
X008131Y018798D03*
X009784Y023570D03*
X008123Y008613D03*
X012143Y003987D03*
X025753Y004660D03*
X028883Y007503D03*
D25*
X017540Y016704D03*
X015965Y016711D03*
M02*
