%
M48
M72
T01C0.0236
T02C0.0394
T03C0.0400
T04C0.0430
T05C0.0472
T06C0.0500
T07C0.0550
T08C0.0620
T09C0.1490
T10C0.1654
T11C0.1900
%
T01
X8123Y8613
X10497Y11794
X13328Y11515
X14092Y12290
X14706Y13168
X16879Y11688
X19083Y12778
X19312Y11475
X22698Y10334
X28170Y15019
X24737Y15495
X21595Y16672
X21517Y17774
X23131Y19389
X27107Y19586
X26595Y23483
X18564Y15511
X20099Y15294
X21202Y15294
X15787Y15728
X12304Y19349
X11127Y17086
X8131Y18798
X9784Y23570
X28883Y7503
X25753Y4660
X12143Y3987
T02
X19526Y14238
T03
X20526Y13238
X21526Y14238
T04
X24252Y16544
X25942Y16544
X26922Y16544
X28612Y16544
T05
X17540Y16704
X15965Y16711
T06
X13023Y15377
X9716Y15377
X8356Y12377
X11663Y12377
T07
X23992Y14374
X25492Y12994
X26672Y14374
X28172Y12994
X26932Y10634
X24252Y10634
T08
X21857Y20035
X19557Y20035
X17257Y20035
X14957Y20035
X14957Y22335
X17257Y22335
X19557Y22335
X21857Y22335
T09
X12343Y13877
X9036Y13877
T10
X8580Y4215
X28232Y4215
T11
X28527Y21185
X8287Y21185
M30
