G75*
G70*
%OFA0B0*%
%FSLAX24Y24*%
%IPPOS*%
%LPD*%
%AMOC8*
5,1,8,0,0,1.08239X$1,22.5*
%
%ADD10C,0.0000*%
%ADD11C,0.0060*%
%ADD12C,0.0050*%
%ADD13C,0.0040*%
%ADD14C,0.0080*%
%ADD15C,0.0010*%
%ADD16R,0.1050X0.0050*%
%ADD17R,0.1150X0.0050*%
%ADD18R,0.1250X0.0050*%
%ADD19R,0.1350X0.0050*%
%ADD20R,0.1450X0.0050*%
%ADD21R,0.1550X0.0050*%
%ADD22R,0.1650X0.0050*%
%ADD23R,0.1750X0.0050*%
%ADD24R,0.1850X0.0050*%
%ADD25R,0.0650X0.0050*%
%ADD26R,0.0600X0.0050*%
%ADD27R,0.0550X0.0050*%
%ADD28R,0.0200X0.0050*%
%ADD29R,0.0050X0.0050*%
%ADD30R,0.0100X0.0050*%
%ADD31R,0.0300X0.0050*%
%ADD32R,0.1100X0.0050*%
D10*
X007007Y002637D02*
X007007Y024685D01*
X029807Y024685D01*
X029807Y002637D01*
X007007Y002637D01*
X007753Y004215D02*
X007755Y004272D01*
X007761Y004329D01*
X007771Y004385D01*
X007784Y004441D01*
X007802Y004495D01*
X007823Y004548D01*
X007848Y004599D01*
X007876Y004649D01*
X007908Y004696D01*
X007942Y004742D01*
X007980Y004784D01*
X008021Y004824D01*
X008064Y004862D01*
X008110Y004896D01*
X008158Y004926D01*
X008208Y004954D01*
X008260Y004978D01*
X008314Y004998D01*
X008368Y005014D01*
X008424Y005027D01*
X008480Y005036D01*
X008537Y005041D01*
X008594Y005042D01*
X008651Y005039D01*
X008708Y005032D01*
X008764Y005021D01*
X008819Y005007D01*
X008873Y004988D01*
X008926Y004966D01*
X008977Y004941D01*
X009026Y004911D01*
X009073Y004879D01*
X009118Y004843D01*
X009160Y004805D01*
X009199Y004763D01*
X009235Y004719D01*
X009269Y004673D01*
X009299Y004624D01*
X009325Y004574D01*
X009348Y004522D01*
X009367Y004468D01*
X009383Y004413D01*
X009395Y004357D01*
X009403Y004300D01*
X009407Y004244D01*
X009407Y004186D01*
X009403Y004130D01*
X009395Y004073D01*
X009383Y004017D01*
X009367Y003962D01*
X009348Y003908D01*
X009325Y003856D01*
X009299Y003806D01*
X009269Y003757D01*
X009235Y003711D01*
X009199Y003667D01*
X009160Y003625D01*
X009118Y003587D01*
X009073Y003551D01*
X009026Y003519D01*
X008977Y003489D01*
X008926Y003464D01*
X008873Y003442D01*
X008819Y003423D01*
X008764Y003409D01*
X008708Y003398D01*
X008651Y003391D01*
X008594Y003388D01*
X008537Y003389D01*
X008480Y003394D01*
X008424Y003403D01*
X008368Y003416D01*
X008314Y003432D01*
X008260Y003452D01*
X008208Y003476D01*
X008158Y003504D01*
X008110Y003534D01*
X008064Y003568D01*
X008021Y003606D01*
X007980Y003646D01*
X007942Y003688D01*
X007908Y003734D01*
X007876Y003781D01*
X007848Y003831D01*
X007823Y003882D01*
X007802Y003935D01*
X007784Y003989D01*
X007771Y004045D01*
X007761Y004101D01*
X007755Y004158D01*
X007753Y004215D01*
X008291Y013877D02*
X008293Y013931D01*
X008299Y013985D01*
X008309Y014039D01*
X008323Y014092D01*
X008340Y014143D01*
X008361Y014193D01*
X008386Y014242D01*
X008415Y014288D01*
X008446Y014332D01*
X008481Y014374D01*
X008519Y014413D01*
X008559Y014450D01*
X008603Y014483D01*
X008648Y014513D01*
X008695Y014540D01*
X008745Y014563D01*
X008795Y014582D01*
X008848Y014598D01*
X008901Y014610D01*
X008955Y014618D01*
X009009Y014622D01*
X009063Y014622D01*
X009117Y014618D01*
X009171Y014610D01*
X009224Y014598D01*
X009277Y014582D01*
X009327Y014563D01*
X009377Y014540D01*
X009424Y014513D01*
X009469Y014483D01*
X009513Y014450D01*
X009553Y014413D01*
X009591Y014374D01*
X009626Y014332D01*
X009657Y014288D01*
X009686Y014242D01*
X009711Y014193D01*
X009732Y014143D01*
X009749Y014092D01*
X009763Y014039D01*
X009773Y013985D01*
X009779Y013931D01*
X009781Y013877D01*
X009779Y013823D01*
X009773Y013769D01*
X009763Y013715D01*
X009749Y013662D01*
X009732Y013611D01*
X009711Y013561D01*
X009686Y013512D01*
X009657Y013466D01*
X009626Y013422D01*
X009591Y013380D01*
X009553Y013341D01*
X009513Y013304D01*
X009469Y013271D01*
X009424Y013241D01*
X009377Y013214D01*
X009327Y013191D01*
X009277Y013172D01*
X009224Y013156D01*
X009171Y013144D01*
X009117Y013136D01*
X009063Y013132D01*
X009009Y013132D01*
X008955Y013136D01*
X008901Y013144D01*
X008848Y013156D01*
X008795Y013172D01*
X008745Y013191D01*
X008695Y013214D01*
X008648Y013241D01*
X008603Y013271D01*
X008559Y013304D01*
X008519Y013341D01*
X008481Y013380D01*
X008446Y013422D01*
X008415Y013466D01*
X008386Y013512D01*
X008361Y013561D01*
X008340Y013611D01*
X008323Y013662D01*
X008309Y013715D01*
X008299Y013769D01*
X008293Y013823D01*
X008291Y013877D01*
X011598Y013877D02*
X011600Y013931D01*
X011606Y013985D01*
X011616Y014039D01*
X011630Y014092D01*
X011647Y014143D01*
X011668Y014193D01*
X011693Y014242D01*
X011722Y014288D01*
X011753Y014332D01*
X011788Y014374D01*
X011826Y014413D01*
X011866Y014450D01*
X011910Y014483D01*
X011955Y014513D01*
X012002Y014540D01*
X012052Y014563D01*
X012102Y014582D01*
X012155Y014598D01*
X012208Y014610D01*
X012262Y014618D01*
X012316Y014622D01*
X012370Y014622D01*
X012424Y014618D01*
X012478Y014610D01*
X012531Y014598D01*
X012584Y014582D01*
X012634Y014563D01*
X012684Y014540D01*
X012731Y014513D01*
X012776Y014483D01*
X012820Y014450D01*
X012860Y014413D01*
X012898Y014374D01*
X012933Y014332D01*
X012964Y014288D01*
X012993Y014242D01*
X013018Y014193D01*
X013039Y014143D01*
X013056Y014092D01*
X013070Y014039D01*
X013080Y013985D01*
X013086Y013931D01*
X013088Y013877D01*
X013086Y013823D01*
X013080Y013769D01*
X013070Y013715D01*
X013056Y013662D01*
X013039Y013611D01*
X013018Y013561D01*
X012993Y013512D01*
X012964Y013466D01*
X012933Y013422D01*
X012898Y013380D01*
X012860Y013341D01*
X012820Y013304D01*
X012776Y013271D01*
X012731Y013241D01*
X012684Y013214D01*
X012634Y013191D01*
X012584Y013172D01*
X012531Y013156D01*
X012478Y013144D01*
X012424Y013136D01*
X012370Y013132D01*
X012316Y013132D01*
X012262Y013136D01*
X012208Y013144D01*
X012155Y013156D01*
X012102Y013172D01*
X012052Y013191D01*
X012002Y013214D01*
X011955Y013241D01*
X011910Y013271D01*
X011866Y013304D01*
X011826Y013341D01*
X011788Y013380D01*
X011753Y013422D01*
X011722Y013466D01*
X011693Y013512D01*
X011668Y013561D01*
X011647Y013611D01*
X011630Y013662D01*
X011616Y013715D01*
X011606Y013769D01*
X011600Y013823D01*
X011598Y013877D01*
X007337Y021185D02*
X007339Y021246D01*
X007345Y021308D01*
X007355Y021368D01*
X007369Y021428D01*
X007386Y021487D01*
X007408Y021545D01*
X007433Y021601D01*
X007462Y021656D01*
X007494Y021708D01*
X007529Y021758D01*
X007568Y021806D01*
X007610Y021851D01*
X007654Y021894D01*
X007702Y021933D01*
X007751Y021970D01*
X007803Y022003D01*
X007857Y022032D01*
X007913Y022058D01*
X007970Y022081D01*
X008029Y022099D01*
X008088Y022114D01*
X008149Y022125D01*
X008210Y022132D01*
X008272Y022135D01*
X008333Y022134D01*
X008394Y022129D01*
X008455Y022120D01*
X008515Y022107D01*
X008575Y022090D01*
X008633Y022070D01*
X008689Y022046D01*
X008744Y022018D01*
X008797Y021986D01*
X008848Y021952D01*
X008896Y021914D01*
X008942Y021873D01*
X008985Y021829D01*
X009026Y021782D01*
X009063Y021733D01*
X009097Y021682D01*
X009127Y021629D01*
X009154Y021573D01*
X009177Y021516D01*
X009197Y021458D01*
X009213Y021399D01*
X009225Y021338D01*
X009233Y021277D01*
X009237Y021216D01*
X009237Y021154D01*
X009233Y021093D01*
X009225Y021032D01*
X009213Y020971D01*
X009197Y020912D01*
X009177Y020854D01*
X009154Y020797D01*
X009127Y020741D01*
X009097Y020688D01*
X009063Y020637D01*
X009026Y020588D01*
X008985Y020541D01*
X008942Y020497D01*
X008896Y020456D01*
X008848Y020418D01*
X008797Y020384D01*
X008744Y020352D01*
X008689Y020324D01*
X008633Y020300D01*
X008575Y020280D01*
X008515Y020263D01*
X008455Y020250D01*
X008394Y020241D01*
X008333Y020236D01*
X008272Y020235D01*
X008210Y020238D01*
X008149Y020245D01*
X008088Y020256D01*
X008029Y020271D01*
X007970Y020289D01*
X007913Y020312D01*
X007857Y020338D01*
X007803Y020367D01*
X007751Y020400D01*
X007702Y020437D01*
X007654Y020476D01*
X007610Y020519D01*
X007568Y020564D01*
X007529Y020612D01*
X007494Y020662D01*
X007462Y020714D01*
X007433Y020769D01*
X007408Y020825D01*
X007386Y020883D01*
X007369Y020942D01*
X007355Y021002D01*
X007345Y021062D01*
X007339Y021124D01*
X007337Y021185D01*
X027405Y004215D02*
X027407Y004272D01*
X027413Y004329D01*
X027423Y004385D01*
X027436Y004441D01*
X027454Y004495D01*
X027475Y004548D01*
X027500Y004599D01*
X027528Y004649D01*
X027560Y004696D01*
X027594Y004742D01*
X027632Y004784D01*
X027673Y004824D01*
X027716Y004862D01*
X027762Y004896D01*
X027810Y004926D01*
X027860Y004954D01*
X027912Y004978D01*
X027966Y004998D01*
X028020Y005014D01*
X028076Y005027D01*
X028132Y005036D01*
X028189Y005041D01*
X028246Y005042D01*
X028303Y005039D01*
X028360Y005032D01*
X028416Y005021D01*
X028471Y005007D01*
X028525Y004988D01*
X028578Y004966D01*
X028629Y004941D01*
X028678Y004911D01*
X028725Y004879D01*
X028770Y004843D01*
X028812Y004805D01*
X028851Y004763D01*
X028887Y004719D01*
X028921Y004673D01*
X028951Y004624D01*
X028977Y004574D01*
X029000Y004522D01*
X029019Y004468D01*
X029035Y004413D01*
X029047Y004357D01*
X029055Y004300D01*
X029059Y004244D01*
X029059Y004186D01*
X029055Y004130D01*
X029047Y004073D01*
X029035Y004017D01*
X029019Y003962D01*
X029000Y003908D01*
X028977Y003856D01*
X028951Y003806D01*
X028921Y003757D01*
X028887Y003711D01*
X028851Y003667D01*
X028812Y003625D01*
X028770Y003587D01*
X028725Y003551D01*
X028678Y003519D01*
X028629Y003489D01*
X028578Y003464D01*
X028525Y003442D01*
X028471Y003423D01*
X028416Y003409D01*
X028360Y003398D01*
X028303Y003391D01*
X028246Y003388D01*
X028189Y003389D01*
X028132Y003394D01*
X028076Y003403D01*
X028020Y003416D01*
X027966Y003432D01*
X027912Y003452D01*
X027860Y003476D01*
X027810Y003504D01*
X027762Y003534D01*
X027716Y003568D01*
X027673Y003606D01*
X027632Y003646D01*
X027594Y003688D01*
X027560Y003734D01*
X027528Y003781D01*
X027500Y003831D01*
X027475Y003882D01*
X027454Y003935D01*
X027436Y003989D01*
X027423Y004045D01*
X027413Y004101D01*
X027407Y004158D01*
X027405Y004215D01*
X027577Y021185D02*
X027579Y021246D01*
X027585Y021308D01*
X027595Y021368D01*
X027609Y021428D01*
X027626Y021487D01*
X027648Y021545D01*
X027673Y021601D01*
X027702Y021656D01*
X027734Y021708D01*
X027769Y021758D01*
X027808Y021806D01*
X027850Y021851D01*
X027894Y021894D01*
X027942Y021933D01*
X027991Y021970D01*
X028043Y022003D01*
X028097Y022032D01*
X028153Y022058D01*
X028210Y022081D01*
X028269Y022099D01*
X028328Y022114D01*
X028389Y022125D01*
X028450Y022132D01*
X028512Y022135D01*
X028573Y022134D01*
X028634Y022129D01*
X028695Y022120D01*
X028755Y022107D01*
X028815Y022090D01*
X028873Y022070D01*
X028929Y022046D01*
X028984Y022018D01*
X029037Y021986D01*
X029088Y021952D01*
X029136Y021914D01*
X029182Y021873D01*
X029225Y021829D01*
X029266Y021782D01*
X029303Y021733D01*
X029337Y021682D01*
X029367Y021629D01*
X029394Y021573D01*
X029417Y021516D01*
X029437Y021458D01*
X029453Y021399D01*
X029465Y021338D01*
X029473Y021277D01*
X029477Y021216D01*
X029477Y021154D01*
X029473Y021093D01*
X029465Y021032D01*
X029453Y020971D01*
X029437Y020912D01*
X029417Y020854D01*
X029394Y020797D01*
X029367Y020741D01*
X029337Y020688D01*
X029303Y020637D01*
X029266Y020588D01*
X029225Y020541D01*
X029182Y020497D01*
X029136Y020456D01*
X029088Y020418D01*
X029037Y020384D01*
X028984Y020352D01*
X028929Y020324D01*
X028873Y020300D01*
X028815Y020280D01*
X028755Y020263D01*
X028695Y020250D01*
X028634Y020241D01*
X028573Y020236D01*
X028512Y020235D01*
X028450Y020238D01*
X028389Y020245D01*
X028328Y020256D01*
X028269Y020271D01*
X028210Y020289D01*
X028153Y020312D01*
X028097Y020338D01*
X028043Y020367D01*
X027991Y020400D01*
X027942Y020437D01*
X027894Y020476D01*
X027850Y020519D01*
X027808Y020564D01*
X027769Y020612D01*
X027734Y020662D01*
X027702Y020714D01*
X027673Y020769D01*
X027648Y020825D01*
X027626Y020883D01*
X027609Y020942D01*
X027595Y021002D01*
X027585Y021062D01*
X027579Y021124D01*
X027577Y021185D01*
D11*
X017581Y013251D02*
X016161Y013251D01*
X016161Y011391D02*
X017581Y011391D01*
X013020Y009865D02*
X012534Y009379D01*
X012295Y009379D02*
X011931Y009379D01*
X011809Y009501D01*
X011931Y009622D01*
X012295Y009622D01*
X012295Y009743D02*
X012173Y009865D01*
X011931Y009865D01*
X012295Y009743D02*
X012295Y009379D01*
X012534Y009865D02*
X013020Y009379D01*
X011570Y009379D02*
X011570Y010107D01*
X011327Y009865D01*
X011084Y010107D01*
X011084Y009379D01*
X010120Y009379D02*
X010120Y009865D01*
X009877Y010107D01*
X009634Y009865D01*
X009634Y009379D01*
X009395Y009501D02*
X009273Y009379D01*
X009031Y009379D01*
X008909Y009501D01*
X009395Y009986D01*
X009395Y009501D01*
X009634Y009743D02*
X010120Y009743D01*
X009395Y009986D02*
X009273Y010107D01*
X009031Y010107D01*
X008909Y009986D01*
X008909Y009501D01*
X008670Y009379D02*
X008184Y009379D01*
X008427Y009379D02*
X008427Y010107D01*
X008184Y009865D01*
X014968Y006006D02*
X014968Y005884D01*
X015089Y005763D01*
X015332Y005763D01*
X015453Y005642D01*
X015453Y005520D01*
X015332Y005399D01*
X015089Y005399D01*
X014968Y005520D01*
X014968Y006006D02*
X015089Y006127D01*
X015332Y006127D01*
X015453Y006006D01*
X015693Y005884D02*
X015693Y005520D01*
X015814Y005399D01*
X016178Y005399D01*
X016178Y005884D01*
X016418Y005884D02*
X016782Y005884D01*
X016903Y005763D01*
X016903Y005520D01*
X016782Y005399D01*
X016418Y005399D01*
X016418Y005156D02*
X016418Y005884D01*
X017143Y005884D02*
X017507Y005884D01*
X017628Y005763D01*
X017628Y005520D01*
X017507Y005399D01*
X017143Y005399D01*
X017143Y005156D02*
X017143Y005884D01*
X017868Y005763D02*
X017868Y005520D01*
X017989Y005399D01*
X018232Y005399D01*
X018353Y005520D01*
X018353Y005763D01*
X018232Y005884D01*
X017989Y005884D01*
X017868Y005763D01*
X018593Y005884D02*
X018593Y005399D01*
X018593Y005642D02*
X018835Y005884D01*
X018957Y005884D01*
X019197Y005884D02*
X019440Y005884D01*
X019318Y006006D02*
X019318Y005520D01*
X019440Y005399D01*
X020405Y005399D02*
X020405Y005884D01*
X020405Y005642D02*
X020648Y005884D01*
X020769Y005884D01*
X021009Y006006D02*
X021131Y006127D01*
X021373Y006127D01*
X021495Y006006D01*
X021495Y005884D01*
X021009Y005399D01*
X021495Y005399D01*
X021734Y005399D02*
X021734Y005520D01*
X021856Y005520D01*
X021856Y005399D01*
X021734Y005399D01*
X022097Y005520D02*
X022582Y006006D01*
X022582Y005520D01*
X022461Y005399D01*
X022218Y005399D01*
X022097Y005520D01*
X022097Y006006D01*
X022218Y006127D01*
X022461Y006127D01*
X022582Y006006D01*
X022163Y006456D02*
X022284Y006577D01*
X022284Y007184D01*
X021799Y007184D02*
X021799Y006819D01*
X021920Y006698D01*
X022284Y006698D01*
X022163Y006456D02*
X022041Y006456D01*
X021559Y007184D02*
X021437Y007184D01*
X021195Y006941D01*
X020955Y006941D02*
X020470Y006941D01*
X020470Y007062D02*
X020470Y006819D01*
X020591Y006698D01*
X020834Y006698D01*
X020955Y006941D02*
X020955Y007062D01*
X020834Y007184D01*
X020591Y007184D01*
X020470Y007062D01*
X020229Y007184D02*
X019986Y007184D01*
X020107Y007305D02*
X020107Y006819D01*
X020229Y006698D01*
X019745Y006698D02*
X019624Y006819D01*
X019624Y007305D01*
X019503Y007184D02*
X019745Y007184D01*
X019263Y007062D02*
X019263Y006698D01*
X018899Y006698D01*
X018778Y006819D01*
X018899Y006941D01*
X019263Y006941D01*
X019263Y007062D02*
X019142Y007184D01*
X018899Y007184D01*
X018538Y007184D02*
X018538Y007305D01*
X018417Y007426D01*
X018053Y007426D01*
X018053Y006698D01*
X018417Y006698D01*
X018538Y006819D01*
X018538Y006941D01*
X018417Y007062D01*
X018053Y007062D01*
X018417Y007062D02*
X018538Y007184D01*
X017088Y006941D02*
X017088Y007426D01*
X016603Y007426D02*
X016603Y006941D01*
X016845Y006698D01*
X017088Y006941D01*
X016363Y007184D02*
X016363Y007305D01*
X016242Y007426D01*
X015999Y007426D01*
X015878Y007305D01*
X016363Y007184D02*
X015878Y006698D01*
X016363Y006698D01*
X015638Y006698D02*
X015153Y006698D01*
X015395Y006698D02*
X015395Y007426D01*
X015153Y007184D01*
X021195Y007184D02*
X021195Y006698D01*
D12*
X021826Y012738D02*
X019226Y012738D01*
X019226Y015628D01*
X021826Y015628D01*
X021826Y012738D01*
X018516Y016653D02*
X018156Y016653D01*
X016233Y014928D02*
X016235Y014938D01*
X016240Y014947D01*
X016248Y014954D01*
X016258Y014958D01*
X016268Y014958D01*
X016278Y014954D01*
X016286Y014947D01*
X016291Y014938D01*
X016293Y014928D01*
X016291Y014918D01*
X016286Y014909D01*
X016278Y014902D01*
X016268Y014898D01*
X016258Y014898D01*
X016248Y014902D01*
X016240Y014909D01*
X016235Y014918D01*
X016233Y014928D01*
X015088Y016413D02*
X015088Y016774D01*
X014908Y016594D02*
X015268Y016594D01*
X015907Y023685D02*
X020407Y023685D01*
X020407Y024185D01*
X022407Y024185D01*
X022407Y024535D01*
X020407Y024185D02*
X015907Y024185D01*
X015907Y023685D01*
X015907Y024185D02*
X013907Y024185D01*
X013907Y024535D01*
D13*
X014004Y022165D02*
X014157Y022165D01*
X014234Y022088D01*
X014234Y022012D01*
X014157Y021935D01*
X014004Y021935D01*
X013927Y022012D01*
X013927Y022088D01*
X014004Y022165D01*
X014004Y021935D02*
X013927Y021858D01*
X013927Y021781D01*
X014004Y021705D01*
X014157Y021705D01*
X014234Y021781D01*
X014234Y021858D01*
X014157Y021935D01*
X015927Y021781D02*
X015927Y021705D01*
X015927Y021781D02*
X016234Y022088D01*
X016234Y022165D01*
X015927Y022165D01*
X018427Y021935D02*
X018427Y021781D01*
X018504Y021705D01*
X018657Y021705D01*
X018734Y021781D01*
X018734Y021858D01*
X018657Y021935D01*
X018427Y021935D01*
X018581Y022088D01*
X018734Y022165D01*
X020927Y022165D02*
X020927Y021935D01*
X021081Y022012D01*
X021157Y022012D01*
X021234Y021935D01*
X021234Y021781D01*
X021157Y021705D01*
X021004Y021705D01*
X020927Y021781D01*
X020927Y022165D02*
X021234Y022165D01*
X021081Y019665D02*
X021081Y019205D01*
X021234Y019205D02*
X020927Y019205D01*
X020927Y019512D02*
X021081Y019665D01*
X018734Y019588D02*
X018734Y019512D01*
X018427Y019205D01*
X018734Y019205D01*
X018734Y019588D02*
X018657Y019665D01*
X018504Y019665D01*
X018427Y019588D01*
X016234Y019588D02*
X016234Y019512D01*
X016157Y019435D01*
X016234Y019358D01*
X016234Y019281D01*
X016157Y019205D01*
X016004Y019205D01*
X015927Y019281D01*
X016081Y019435D02*
X016157Y019435D01*
X016234Y019588D02*
X016157Y019665D01*
X016004Y019665D01*
X015927Y019588D01*
X014234Y019435D02*
X013927Y019435D01*
X014157Y019665D01*
X014157Y019205D01*
D14*
X016424Y013031D02*
X016426Y013046D01*
X016432Y013059D01*
X016441Y013071D01*
X016452Y013080D01*
X016466Y013086D01*
X016481Y013088D01*
X016496Y013086D01*
X016509Y013080D01*
X016521Y013071D01*
X016530Y013060D01*
X016536Y013046D01*
X016538Y013031D01*
X016536Y013016D01*
X016530Y013003D01*
X016521Y012991D01*
X016510Y012982D01*
X016496Y012976D01*
X016481Y012974D01*
X016466Y012976D01*
X016453Y012982D01*
X016441Y012991D01*
X016432Y013002D01*
X016426Y013016D01*
X016424Y013031D01*
D15*
X016876Y012729D02*
X017026Y012729D01*
X017026Y012679D02*
X017026Y012779D01*
X016926Y012679D02*
X016876Y012729D01*
X016876Y012631D02*
X016876Y012531D01*
X016876Y012484D02*
X016876Y012384D01*
X017026Y012384D01*
X017026Y012484D01*
X016951Y012434D02*
X016951Y012384D01*
X016876Y012337D02*
X016876Y012237D01*
X017026Y012237D01*
X016951Y012237D02*
X016951Y012287D01*
X016951Y012189D02*
X016951Y012089D01*
X017026Y012042D02*
X016876Y012042D01*
X016876Y011942D02*
X017026Y012042D01*
X017026Y011942D02*
X016876Y011942D01*
X016876Y012581D02*
X017026Y012581D01*
D16*
X013153Y005109D03*
X024472Y005074D03*
D17*
X024472Y005124D03*
X024472Y007474D03*
X013153Y007509D03*
X013153Y005159D03*
D18*
X013153Y005209D03*
X013153Y007459D03*
X024472Y007424D03*
X024472Y005174D03*
D19*
X024472Y005224D03*
X024472Y007374D03*
X013153Y007409D03*
X013153Y005259D03*
D20*
X013153Y005309D03*
X013153Y007359D03*
X024472Y007324D03*
X024472Y005274D03*
D21*
X024472Y005324D03*
X024472Y007274D03*
X013153Y007309D03*
X013153Y005359D03*
D22*
X013153Y005409D03*
X013153Y007259D03*
X024472Y007224D03*
X024472Y005374D03*
D23*
X024472Y005424D03*
X024472Y007174D03*
X013153Y007209D03*
X013153Y005459D03*
D24*
X013153Y005509D03*
X013153Y005559D03*
X013153Y005609D03*
X013153Y005659D03*
X013153Y007009D03*
X013153Y007059D03*
X013153Y007109D03*
X013153Y007159D03*
X024472Y007124D03*
X024472Y007074D03*
X024472Y007024D03*
X024472Y006974D03*
X024472Y005624D03*
X024472Y005574D03*
X024472Y005524D03*
X024472Y005474D03*
D25*
X025072Y005674D03*
X023872Y005674D03*
X023872Y006924D03*
X025072Y006924D03*
X013753Y006959D03*
X012553Y006959D03*
X012553Y005709D03*
X013753Y005709D03*
D26*
X013778Y005759D03*
X013778Y006909D03*
X012528Y006909D03*
X012528Y005759D03*
X023847Y005724D03*
X025097Y005724D03*
X025097Y006874D03*
X023847Y006874D03*
D27*
X023822Y006824D03*
X023822Y006774D03*
X023822Y006724D03*
X023822Y006674D03*
X023822Y006624D03*
X023822Y006574D03*
X023822Y006524D03*
X023822Y006474D03*
X023822Y006424D03*
X023822Y006374D03*
X023822Y006324D03*
X023822Y006274D03*
X023822Y006224D03*
X023822Y006174D03*
X023822Y006124D03*
X023822Y006074D03*
X023822Y006024D03*
X023822Y005974D03*
X023822Y005924D03*
X023822Y005874D03*
X023822Y005824D03*
X023822Y005774D03*
X025122Y005774D03*
X025122Y005824D03*
X025122Y005874D03*
X025122Y006674D03*
X025122Y006724D03*
X025122Y006774D03*
X025122Y006824D03*
X013803Y006809D03*
X013803Y006759D03*
X013803Y006709D03*
X013803Y006859D03*
X013803Y005909D03*
X013803Y005859D03*
X013803Y005809D03*
X012503Y005809D03*
X012503Y005859D03*
X012503Y005909D03*
X012503Y005959D03*
X012503Y006009D03*
X012503Y006059D03*
X012503Y006109D03*
X012503Y006159D03*
X012503Y006209D03*
X012503Y006259D03*
X012503Y006309D03*
X012503Y006359D03*
X012503Y006409D03*
X012503Y006459D03*
X012503Y006509D03*
X012503Y006559D03*
X012503Y006609D03*
X012503Y006659D03*
X012503Y006709D03*
X012503Y006759D03*
X012503Y006809D03*
X012503Y006859D03*
D28*
X013628Y005959D03*
X013978Y005959D03*
X024947Y005924D03*
X025297Y005924D03*
D29*
X024872Y005974D03*
X025122Y006574D03*
X013803Y006609D03*
X013553Y006009D03*
D30*
X014028Y006009D03*
X025347Y005974D03*
D31*
X025097Y006624D03*
X013778Y006659D03*
D32*
X013128Y007559D03*
X024447Y007524D03*
M02*
